{
.appVersion = "3151";
.formatVersion = 3;
axes = (
{
name = Weight;
tag = wght;
}
);
classes = (
{
automatic = 1;

glyphs = (
{
color = 6;
glyphname = A;
kernLeft = A;
kernRight = A;
lastChange = "2023-03-10 14:52:57 +0000";
layers = (
{
anchors = (
{
name = bottom;
pos = (258,0);
},
{
name = ogonek;
pos = (514,0);
},
{
name = top;
pos = (442,700);
}
);
layerId = "45069982-2EFC-4B7D-8C53-1932E6EAC4CA";
shapes = (
{
closed = 1;
nodes = (
(-14,0,o),
(11,0,o),
(35,0,cs),
(58,0,o),
(103,0,o),
(158,-2,c),
(162,8,o),
(166,25,o),
(166,35,c),
(87,35,l),
(107,103,o),
(138,159,o),
(169,210,cs),
(380,561,l),
(483,720,l),
(465,723,o),
(443,723,o),
(422,720,c),
(383,652,o),
(331,569,o),
(301,519,cs),
(115,210,ls),
(77,147,o),
(43,95,o),
(-1,35,c),
(-53,35,l),
(-57,25,o),
(-61,9,o),
(-61,-2,c)
);
},
{
closed = 1;
nodes = (
(528,105,o),
(523,159,o),
(519,210,cs),
(494,500,ls),
(486,596,o),
(482,653,o),
(483,720,c),
(380,561,l),
(408,210,ls),
(413,152,o),
(412,94,o),
(409,35,c),
(340,35,l),
(336,25,o),
(332,9,o),
(332,-2,c),
(377,0,o),
(427,0,o),
(473,0,cs),
(516,0,o),
(548,0,o),
(594,-2,c),
(598,8,o),
(602,25,o),
(602,35,c),
(540,35,l)
);
},
{
closed = 1;
nodes = (
(444,275,l),
(184,275,l),
(175,235,l),
(435,235,l)
);
}
);
userData = {
com.hugojourdan.ColorFlow = {
"0" = 0;
"1" = 0;
"10" = 0;
"11" = 0;
"2" = 0;
"3" = 0;
"4" = 0;
"5" = 0;
"6" = 0;
"7" = 0;
"8" = 0;
"9" = 0;
};
};
width = 653;
},
{
anchors = (
{
name = bottom;
pos = (256,0);
},
{
name = ogonek;
pos = (525,0);
},
{
name = top;
pos = (449,700);
}
);
layerId = "503E420B-61F7-4277-A1BE-A8852071B452";
shapes = (
{
closed = 1;
nodes = (
(-21,0,o),
(4,0,o),
(28,0,cs),
(51,0,o),
(106,0,o),
(161,-2,c),
(165,8,o),
(169,25,o),
(169,35,c),
(78,35,l),
(101,98,o),
(134,163,o),
(162,210,cs),
(363,545,l),
(507,720,l),
(488,723,o),
(431,723,o),
(410,720,c),
(375,652,o),
(325,570,o),
(294,519,cs),
(109,210,ls),
(73,150,o),
(37,94,o),
(-9,35,c),
(-60,35,l),
(-64,25,o),
(-68,9,o),
(-68,-2,c)
);
},
{
closed = 1;
nodes = (
(556,91,o),
(548,146,o),
(542,210,cs),
(513,518,ls),
(506,593,o),
(504,652,o),
(507,720,c),
(363,545,l),
(395,210,ls),
(401,149,o),
(406,96,o),
(405,35,c),
(335,35,l),
(331,25,o),
(327,9,o),
(327,-2,c),
(372,0,o),
(418,0,o),
(469,0,cs),
(539,0,o),
(571,0,o),
(617,-2,c),
(621,8,o),
(625,24,o),
(625,35,c),
(573,35,l)
);
},
{
closed = 1;
nodes = (
(434,270,l),
(169,270,l),
(160,230,l),
(425,230,l)
);
}
);
userData = {
com.hugojourdan.ColorFlow = {
"0" = 0;
"1" = 0;
"10" = 0;
"11" = 0;
"2" = 0;
"3" = 0;
"4" = 0;
"5" = 0;
"6" = 0;
"7" = 0;
"8" = 0;
"9" = 0;
};
};
width = 672;
},
{
associatedMasterId = "503E420B-61F7-4277-A1BE-A8852071B452";
layerId = "0382C2FF-F800-4864-8231-4D40843BB73E";
name = "Nov 3 20, 17:23";
shapes = (
{
closed = 1;
nodes = (
(641,0,l),
(641,32,l),
(588,32,l),
(564,77,o),
(542,124,o),
(524,172,cs),
(381,560,ls),
(363,610,o),
(348,662,o),
(336,714,c),
(286,714,l),
(277,662,o),
(264,610,o),
(247,560,cs),
(118,172,ls),
(102,124,o),
(83,77,o),
(60,32,c),
(7,32,l),
(7,0,l),
(170,0,l),
(170,32,l),
(118,32,l),
(125,80,o),
(137,126,o),
(152,172,cs),
(175,241,l),
(355,241,l),
(381,172,ls),
(397,126,o),
(411,80,o),
(420,32,c),
(367,32,l),
(367,0,l)
);
},
{
closed = 1;
nodes = (
(343,273,l),
(186,273,l),
(260,498,l)
);
}
);
width = 600;
},
{
associatedMasterId = "45069982-2EFC-4B7D-8C53-1932E6EAC4CA";
layerId = "2E6632BE-65B1-4B7E-A6E7-2954410A0793";
name = "Nov 3 20, 17:23";
shapes = (
{
closed = 1;
nodes = (
(633,0,l),
(633,28,l),
(580,28,l),
(556,73,o),
(534,120,o),
(516,168,cs),
(372,560,ls),
(353,610,o),
(338,662,o),
(327,714,c),
(290,714,l),
(281,662,o),
(268,610,o),
(251,560,cs),
(120,168,ls),
(104,120,o),
(85,73,o),
(62,28,c),
(9,28,l),
(9,0,l),
(168,0,l),
(168,28,l),
(115,28,l),
(123,76,o),
(135,122,o),
(150,168,cs),
(176,245,l),
(383,245,l),
(411,168,ls),
(428,122,o),
(441,76,o),
(451,28,c),
(398,28,l),
(398,0,l)
);
},
{
closed = 1;
nodes = (
(372,273,l),
(185,273,l),
(274,540,l)
);
}
);
width = 600;
},
{
anchors = (
{
name = bottom;
pos = (361,0);
},
{
name = ogonek;
pos = (641,10);
},
{
name = top;
pos = (502,700);
}
);
associatedMasterId = "45069982-2EFC-4B7D-8C53-1932E6EAC4CA";
backgroundImage = {
imagePath = "../../../../aniawielunska/Dropbox/POLTAWSKI_NOVA/POLTAWSKII_NOVA_MATERIALY/Idzkowski_AP/kursywa/kursywa_94.gif";
locked = 1;
pos = (-683,-212);
scale = (10.996,10.996);
};
layerId = "C8F49939-06DE-43BB-8618-7F68C6E67FD1";
name = "Nov 17 20, 04:13";
shapes = (
{
closed = 1;
nodes = (
(55,0,o),
(80,0,o),
(104,0,cs),
(127,0,o),
(172,0,o),
(227,-2,c),
(231,8,o),
(235,25,o),
(235,35,c),
(154,35,l),
(174,103,o),
(205,159,o),
(236,210,cs),
(450,560,l),
(558,720,l),
(540,723,o),
(519,723,o),
(498,720,c),
(464,652,o),
(406,570,o),
(375,519,cs),
(189,210,ls),
(151,147,o),
(117,95,o),
(73,35,c),
(16,35,l),
(12,25,o),
(8,9,o),
(8,-2,c)
);
},
{
closed = 1;
nodes = (
(599,105,o),
(594,159,o),
(590,210,cs),
(565,500,ls),
(557,596,o),
(555,653,o),
(558,720,c),
(450,560,l),
(477,210,ls),
(482,142,o),
(481,94,o),
(478,35,c),
(409,35,l),
(405,25,o),
(401,9,o),
(401,-2,c),
(446,0,o),
(496,0,o),
(542,0,cs),
(587,0,o),
(619,0,o),
(665,-2,c),
(669,8,o),
(673,25,o),
(673,35,c),
(611,35,l)
);
},
{
closed = 1;
nodes = (
(513,275,l),
(253,275,l),
(244,235,l),
(504,235,l)
);
}
);
width = 707;
}
);
unicode = 65;
},
{
color = 6;
glyphname = AE;
kernLeft = AE;
kernRight = E;
lastChange = "2023-03-10 14:52:57 +0000";
layers = (
{
anchors = (
{
name = bottom;
pos = (618,0);
},
{
name = ogonek;
pos = (845,0);
},
{
name = top;
pos = (606,700);
},
{
name = topleft;
pos = (448,700);
}
);
layerId = "45069982-2EFC-4B7D-8C53-1932E6EAC4CA";
shapes = (
{
closed = 1;
nodes = (
(828,95,o),
(785,40,o),
(681,40,cs),
(533,40,l),
(539,100,o),
(546,150,o),
(559,210,cs),
(619,490,ls),
(632,550,o),
(645,600,o),
(665,660,c),
(778,660,ls),
(882,660,o),
(903,615,o),
(887,515,c),
(898,513,o),
(908,513,o),
(919,515,c),
(958,700,l),
(608,700,ls),
(562,700,o),
(477,700,o),
(432,702,c),
(428,692,o),
(424,675,o),
(424,665,c),
(508,665,l),
(470,611,o),
(433,558,o),
(402,519,cs),
(155,210,ls),
(106,149,o),
(61,95,o),
(3,35,c),
(-42,35,l),
(-47,23,o),
(-49,10,o),
(-50,-2,c),
(-2,0,o),
(23,0,o),
(47,0,cs),
(70,0,o),
(115,0,o),
(169,-2,c),
(174,10,o),
(176,23,o),
(177,35,c),
(101,35,l),
(133,95,o),
(170,149,o),
(219,210,cs),
(491,550,ls),
(504,567,o),
(516,581,o),
(528,595,c),
(523,559,o),
(517,528,o),
(509,490,cs),
(449,210,ls),
(436,150,o),
(422,95,o),
(402,35,c),
(330,35,l),
(326,25,o),
(322,8,o),
(322,-2,c),
(369,0,o),
(414,0,o),
(460,0,cs),
(845,0,l),
(884,185,l),
(873,187,o),
(863,187,o),
(852,185,c)
);
},
{
closed = 1;
nodes = (
(516,275,l),
(246,275,l),
(228,235,l),
(508,235,l)
);
},
{
closed = 1;
nodes = (
(795,398,o),
(776,380,o),
(730,380,cs),
(540,380,l),
(532,340,l),
(722,340,ls),
(768,340,o),
(779,322,o),
(768,260,c),
(778,258,o),
(788,258,o),
(800,260,c),
(842,460,l),
(832,462,o),
(822,462,o),
(810,460,c)
);
}
);
userData = {
com.hugojourdan.ColorFlow = {
"0" = 0;
"1" = 0;
"10" = 0;
"11" = 0;
"2" = 0;
"3" = 0;
"4" = 0;
"5" = 0;
"6" = 0;
"7" = 0;
"8" = 0;
"9" = 0;
};
};
width = 937;
},
{
anchors = (
{
name = bottom;
pos = (689,0);
},
{
name = ogonek;
pos = (932,0);
},
{
name = top;
pos = (631,700);
},
{
name = topleft;
pos = (379,700);
}
);
layerId = "503E420B-61F7-4277-A1BE-A8852071B452";
shapes = (
{
closed = 1;
nodes = (
(844,110,o),
(788,40,o),
(684,40,cs),
(576,40,l),
(582,100,o),
(589,150,o),
(602,210,cs),
(662,490,ls),
(675,550,o),
(688,600,o),
(708,660,c),
(781,660,ls),
(885,660,o),
(913,600,o),
(899,510,c),
(910,508,o),
(920,508,o),
(931,510,c),
(971,700,l),
(631,700,ls),
(585,700,o),
(549,700,o),
(424,702,c),
(420,692,o),
(416,675,o),
(416,665,c),
(506,665,l),
(468,611,o),
(430,558,o),
(399,519,cs),
(153,210,ls),
(104,149,o),
(59,95,o),
(1,35,c),
(-50,35,l),
(-55,23,o),
(-57,10,o),
(-58,-2,c),
(-10,0,o),
(15,0,o),
(39,0,cs),
(62,0,o),
(117,0,o),
(171,-2,c),
(176,10,o),
(178,23,o),
(179,35,c),
(98,35,l),
(125,95,o),
(162,149,o),
(211,210,cs),
(483,550,ls),
(501,573,o),
(517,592,o),
(534,611,c),
(528,577,o),
(521,533,o),
(512,490,cs),
(452,210,ls),
(439,150,o),
(424,90,o),
(405,35,c),
(338,35,l),
(334,25,o),
(330,8,o),
(330,-2,c),
(377,0,o),
(437,0,o),
(483,0,cs),
(858,0,l),
(898,190,l),
(887,192,o),
(877,192,o),
(866,190,c)
);
},
{
closed = 1;
nodes = (
(508,275,l),
(238,275,l),
(220,235,l),
(500,235,l)
);
},
{
closed = 1;
nodes = (
(800,408,o),
(769,380,o),
(713,380,cs),
(563,380,l),
(555,340,l),
(705,340,ls),
(761,340,o),
(780,312,o),
(769,250,c),
(779,248,o),
(789,248,o),
(801,250,c),
(848,470,l),
(837,472,o),
(827,472,o),
(816,470,c)
);
}
);
userData = {
com.hugojourdan.ColorFlow = {
"0" = 0;
"1" = 0;
"10" = 0;
"11" = 0;
"2" = 0;
"3" = 0;
"4" = 0;
"5" = 0;
"6" = 0;
"7" = 0;
"8" = 0;
"9" = 0;
};
};
width = 951;
}
);
unicode = 198;
},
{
color = 6;
glyphname = B;
kernLeft = H;
lastChange = "2023-03-10 14:52:57 +0000";
layers = (
{
anchors = (
{
name = bottom;
pos = (263,0);
},
{
name = top;
pos = (412,700);
}
);
layerId = "45069982-2EFC-4B7D-8C53-1932E6EAC4CA";
shapes = (
{
closed = 1;
nodes = (
(559,384,o),
(649,459,o),
(649,553,cs),
(649,649,o),
(554,700,o),
(432,700,cs),
(282,700,ls),
(236,700,o),
(191,700,o),
(146,702,c),
(142,692,o),
(138,675,o),
(138,665,c),
(210,665,l),
(203,595,o),
(194,541,o),
(183,490,cs),
(123,210,ls),
(112,159,o),
(96,95,o),
(76,35,c),
(4,35,l),
(0,25,o),
(-4,9,o),
(-4,-2,c),
(42,0,o),
(87,0,o),
(133,0,cs),
(313,0,ls),
(505,0,o),
(624,92,o),
(624,213,cs),
(624,317,o),
(540,361,o),
(442,370,c)
);
},
{
closed = 1;
nodes = (
(212,93,o),
(220,151,o),
(233,210,cs),
(294,495,ls),
(308,562,o),
(319,599,o),
(339,660,c),
(414,660,ls),
(493,660,o),
(529,610,o),
(529,547,cs),
(529,457,o),
(457,385,o),
(375,385,cs),
(215,385,l),
(207,345,l),
(367,345,ls),
(462,345,o),
(499,294,o),
(499,219,cs),
(499,123,o),
(439,40,o),
(332,40,cs),
(207,40,l)
);
}
);
userData = {
com.hugojourdan.ColorFlow = {
"0" = 0;
"1" = 0;
"10" = 0;
"11" = 0;
"2" = 0;
"3" = 0;
"4" = 0;
"5" = 0;
"6" = 0;
"7" = 0;
"8" = 0;
"9" = 0;
};
};
width = 675;
},
{
anchors = (
{
name = bottom;
pos = (283,0);
},
{
name = top;
pos = (432,700);
}
);
layerId = "503E420B-61F7-4277-A1BE-A8852071B452";
shapes = (
{
closed = 1;
nodes = (
(574,385,o),
(671,458,o),
(671,555,cs),
(671,652,o),
(574,700,o),
(435,700,cs),
(293,700,ls),
(247,700,o),
(187,700,o),
(142,702,c),
(138,692,o),
(134,675,o),
(134,665,c),
(201,665,l),
(196,610,o),
(188,557,o),
(174,490,cs),
(114,210,ls),
(101,150,o),
(86,93,o),
(67,35,c),
(0,35,l),
(-4,25,o),
(-8,9,o),
(-8,-2,c),
(38,0,o),
(98,0,o),
(144,0,cs),
(335,0,ls),
(515,0,o),
(640,88,o),
(640,210,cs),
(640,310,o),
(563,366,o),
(445,371,c)
);
},
{
closed = 1;
nodes = (
(244,105,o),
(253,158,o),
(264,210,cs),
(324,490,ls),
(338,557,o),
(350,599,o),
(370,660,c),
(397,660,ls),
(470,660,o),
(506,626,o),
(506,555,cs),
(506,461,o),
(439,380,o),
(357,380,cs),
(232,380,l),
(224,340,l),
(369,340,ls),
(435,340,o),
(475,301,o),
(475,225,cs),
(475,130,o),
(412,40,o),
(305,40,cs),
(238,40,l)
);
}
);
userData = {
com.hugojourdan.ColorFlow = {
"0" = 0;
"1" = 0;
"10" = 0;
"11" = 0;
"2" = 0;
"3" = 0;
"4" = 0;
"5" = 0;
"6" = 0;
"7" = 0;
"8" = 0;
"9" = 0;
};
};
width = 689;
},
{
associatedMasterId = "45069982-2EFC-4B7D-8C53-1932E6EAC4CA";
layerId = "7A36FBBF-359E-4486-8001-DB64745F7A60";
name = "Nov 3 20, 00:31";
shapes = (
{
closed = 1;
nodes = (
(552,294,o),
(483,354,o),
(382,372,c),
(459,393,o),
(510,446,o),
(510,531,cs),
(510,644,o),
(420,700,o),
(298,700,cs),
(26,700,l),
(26,672,l),
(92,672,l),
(100,626,o),
(104,579,o),
(104,532,cs),
(104,168,ls),
(104,121,o),
(100,74,o),
(92,28,c),
(26,28,l),
(26,0,l),
(314,0,ls),
(451,0,o),
(552,62,o),
(552,189,cs)
);
},
{
closed = 1;
nodes = (
(414,436,o),
(360,378,o),
(272,378,cs),
(214,378,l),
(214,532,ls),
(214,579,o),
(218,626,o),
(226,672,c),
(272,672,ls),
(360,672,o),
(414,614,o),
(414,525,cs)
);
},
{
closed = 1;
nodes = (
(442,90,o),
(378,28,o),
(278,28,cs),
(226,28,l),
(218,74,o),
(214,121,o),
(214,168,cs),
(214,350,l),
(278,350,ls),
(378,350,o),
(442,288,o),
(442,189,cs)
);
}
);
width = 600;
},
{
associatedMasterId = "503E420B-61F7-4277-A1BE-A8852071B452";
layerId = "D4FE6D89-57D7-4DDE-A630-5A6B506E6BA9";
name = "Nov 3 20, 00:31";
shapes = (
{
closed = 1;
nodes = (
(606,296,o),
(538,355,o),
(438,375,c),
(512,397,o),
(560,448,o),
(560,531,cs),
(560,646,o),
(466,700,o),
(341,700,cs),
(22,700,l),
(22,668,l),
(88,668,l),
(96,622,o),
(100,575,o),
(100,528,cs),
(100,172,ls),
(100,125,o),
(96,78,o),
(88,32,c),
(22,32,l),
(22,0,l),
(358,0,ls),
(500,0,o),
(606,60,o),
(606,191,cs)
);
},
{
closed = 1;
nodes = (
(434,441,o),
(391,382,o),
(312,382,cs),
(250,382,l),
(250,528,ls),
(250,575,o),
(254,622,o),
(262,668,c),
(312,668,ls),
(391,668,o),
(434,609,o),
(434,525,cs)
);
},
{
closed = 1;
nodes = (
(466,95,o),
(409,32,o),
(314,32,cs),
(262,32,l),
(254,78,o),
(250,125,o),
(250,172,cs),
(250,350,l),
(314,350,ls),
(409,350,o),
(466,287,o),
(466,191,cs)
);
}
);
width = 600;
}
);
unicode = 66;
},
{
color = 6;
glyphname = C;
kernLeft = O;
kernRight = C;
lastChange = "2023-03-10 14:52:57 +0000";
layers = (
{
anchors = (
{
name = bottom;
pos = (358,0);
},
{
name = top;
pos = (517,700);
}
);
layerId = "45069982-2EFC-4B7D-8C53-1932E6EAC4CA";
shapes = (
{
closed = 1;
nodes = (
(470,-15,o),
(554,8,o),
(607,37,c),
(645,210,l),
(634,212,o),
(624,212,o),
(613,210,c),
(551,83,o),
(475,27,o),
(377,27,cs),
(243,27,o),
(199,132,o),
(199,273,cs),
(199,506,o),
(319,673,o),
(499,673,cs),
(600,673,o),
(666,622,o),
(664,495,c),
(676,493,o),
(684,493,o),
(696,495,c),
(733,670,l),
(689,689,o),
(611,715,o),
(511,715,cs),
(225,715,o),
(74,504,o),
(74,278,cs),
(74,81,o),
(188,-15,o),
(377,-15,cs)
);
}
);
userData = {
com.hugojourdan.ColorFlow = {
"0" = 0;
"1" = 0;
"10" = 0;
"11" = 0;
"2" = 0;
"3" = 0;
"4" = 0;
"5" = 0;
"6" = 0;
"7" = 0;
"8" = 0;
"9" = 0;
};
};
width = 702;
},
{
anchors = (
{
name = bottom;
pos = (355,0);
},
{
name = top;
pos = (524,700);
}
);
layerId = "503E420B-61F7-4277-A1BE-A8852071B452";
shapes = (
{
closed = 1;
nodes = (
(468,-15,o),
(540,3,o),
(613,35,c),
(651,215,l),
(640,217,o),
(630,217,o),
(619,215,c),
(561,84,o),
(474,27,o),
(389,27,cs),
(276,27,o),
(238,130,o),
(238,278,cs),
(238,499,o),
(323,673,o),
(506,673,cs),
(610,673,o),
(670,616,o),
(666,485,c),
(677,483,o),
(687,483,o),
(698,485,c),
(737,670,l),
(673,702,o),
(595,715,o),
(521,715,cs),
(233,715,o),
(68,519,o),
(68,289,cs),
(68,104,o),
(176,-15,o),
(387,-15,cs)
);
}
);
userData = {
com.hugojourdan.ColorFlow = {
"0" = 0;
"1" = 0;
"10" = 0;
"11" = 0;
"2" = 0;
"3" = 0;
"4" = 0;
"5" = 0;
"6" = 0;
"7" = 0;
"8" = 0;
"9" = 0;
};
};
width = 705;
}
);
unicode = 67;
},
{
color = 6;
glyphname = D;
kernLeft = H;
kernRight = D;
lastChange = "2023-03-10 14:52:57 +0000";
layers = (
{
anchors = (
{
name = bottom;
pos = (343,0);
},
{
name = center;
pos = (418,350);
},
{
name = top;
pos = (492,700);
}
);
layerId = "45069982-2EFC-4B7D-8C53-1932E6EAC4CA";
shapes = (
{
closed = 1;
nodes = (
(236,700,o),
(191,700,o),
(146,702,c),
(142,692,o),
(138,675,o),
(138,665,c),
(210,665,l),
(203,595,o),
(194,541,o),
(183,490,cs),
(123,210,ls),
(112,159,o),
(96,95,o),
(76,35,c),
(4,35,l),
(0,25,o),
(-4,9,o),
(-4,-2,c),
(42,0,o),
(87,0,o),
(133,0,cs),
(308,0,ls),
(570,0,o),
(771,187,o),
(771,435,cs),
(771,615,o),
(660,700,o),
(477,700,cs),
(282,700,ls)
);
},
{
closed = 1;
nodes = (
(213,105,o),
(222,158,o),
(233,210,cs),
(293,490,ls),
(307,557,o),
(319,599,o),
(339,660,c),
(459,660,ls),
(594,660,o),
(646,581,o),
(646,424,cs),
(646,213,o),
(511,40,o),
(307,40,cs),
(207,40,l)
);
}
);
userData = {
com.hugojourdan.ColorFlow = {
"0" = 0;
"1" = 0;
"10" = 0;
"11" = 0;
"2" = 0;
"3" = 0;
"4" = 0;
"5" = 0;
"6" = 0;
"7" = 0;
"8" = 0;
"9" = 0;
};
};
width = 787;
},
{
anchors = (
{
name = bottom;
pos = (346,0);
},
{
name = center;
pos = (421,350);
},
{
name = top;
pos = (495,700);
}
);
layerId = "503E420B-61F7-4277-A1BE-A8852071B452";
shapes = (
{
closed = 1;
nodes = (
(247,700,o),
(187,700,o),
(142,702,c),
(138,692,o),
(134,675,o),
(134,665,c),
(201,665,l),
(196,610,o),
(188,557,o),
(174,490,cs),
(114,210,ls),
(101,150,o),
(86,93,o),
(67,35,c),
(0,35,l),
(-4,25,o),
(-8,9,o),
(-8,-2,c),
(38,0,o),
(98,0,o),
(144,0,cs),
(305,0,ls),
(593,0,o),
(799,175,o),
(799,440,cs),
(799,610,o),
(684,700,o),
(474,700,cs),
(293,700,ls)
);
},
{
closed = 1;
nodes = (
(244,105,o),
(253,158,o),
(264,210,cs),
(324,490,ls),
(338,557,o),
(350,599,o),
(370,660,c),
(456,660,ls),
(582,660,o),
(629,577,o),
(629,433,cs),
(629,204,o),
(504,40,o),
(324,40,cs),
(238,40,l)
);
}
);
userData = {
com.hugojourdan.ColorFlow = {
"0" = 0;
"1" = 0;
"10" = 0;
"11" = 0;
"2" = 0;
"3" = 0;
"4" = 0;
"5" = 0;
"6" = 0;
"7" = 0;
"8" = 0;
"9" = 0;
};
};
width = 812;
}
);
unicode = 68;
},
{
color = 3;
glyphname = Eth;
kernLeft = H;
kernRight = D;
lastChange = "2023-03-10 14:52:57 +0000";
layers = (
{
layerId = "45069982-2EFC-4B7D-8C53-1932E6EAC4CA";
shapes = (
{
closed = 1;
nodes = (
(464,357,o),
(468,373,o),
(468,390,c),
(58,390,l),
(52,373,o),
(48,357,o),
(48,340,c),
(458,340,l)
);
},
{
pos = (11,0);
ref = D;
}
);
userData = {
com.hugojourdan.ColorFlow = {
"0" = 0;
"1" = 0;
"10" = 0;
"11" = 0;
"2" = 0;
"3" = 0;
"4" = 0;
"5" = 0;
"6" = 0;
"7" = 0;
"8" = 0;
"9" = 0;
};
};
width = 798;
},
{
layerId = "503E420B-61F7-4277-A1BE-A8852071B452";
shapes = (
{
closed = 1;
nodes = (
(499,357,o),
(503,373,o),
(503,390,c),
(53,390,l),
(47,373,o),
(43,357,o),
(43,340,c),
(493,340,l)
);
},
{
pos = (11,0);
ref = D;
}
);
userData = {
com.hugojourdan.ColorFlow = {
"0" = 0;
"1" = 0;
"10" = 0;
"11" = 0;
"2" = 0;
"3" = 0;
"4" = 0;
"5" = 0;
"6" = 0;
"7" = 0;
"8" = 0;
"9" = 0;
};
};
width = 823;
}
);
unicode = 208;
},
{
color = 6;
glyphname = E;
kernLeft = H;
kernRight = E;
lastChange = "2023-03-10 14:52:57 +0000";
layers = (
{
anchors = (
{
name = bottom;
pos = (291,0);
},
{
name = ogonek;
pos = (488,0);
},
{
name = top;
pos = (420,700);
},
{
name = topleft;
pos = (122,700);
}
);
layerId = "45069982-2EFC-4B7D-8C53-1932E6EAC4CA";
shapes = (
{
closed = 1;
nodes = (
(42,0,o),
(87,0,o),
(133,0,cs),
(518,0,l),
(558,185,l),
(547,187,o),
(537,187,o),
(526,185,c),
(502,95,o),
(459,40,o),
(355,40,cs),
(207,40,l),
(213,105,o),
(222,158,o),
(233,210,cs),
(293,490,ls),
(307,557,o),
(319,599,o),
(339,660,c),
(452,660,ls),
(541,660,o),
(580,630,o),
(561,515,c),
(572,513,o),
(582,513,o),
(593,515,c),
(632,700,l),
(282,700,ls),
(236,700,o),
(191,700,o),
(146,702,c),
(142,692,o),
(138,675,o),
(138,665,c),
(210,665,l),
(203,595,o),
(194,541,o),
(183,490,cs),
(123,210,ls),
(112,159,o),
(96,95,o),
(76,35,c),
(4,35,l),
(0,25,o),
(-4,9,o),
(-4,-2,c)
);
},
{
closed = 1;
nodes = (
(454,258,o),
(462,258,o),
(474,260,c),
(516,460,l),
(504,462,o),
(496,462,o),
(484,460,c),
(469,398,o),
(450,380,o),
(404,380,cs),
(214,380,l),
(206,340,l),
(396,340,ls),
(442,340,o),
(453,322,o),
(442,260,c)
);
}
);
userData = {
com.hugojourdan.ColorFlow = {
"0" = 0;
"1" = 0;
"10" = 0;
"11" = 0;
"2" = 0;
"3" = 0;
"4" = 0;
"5" = 0;
"6" = 0;
"7" = 0;
"8" = 0;
"9" = 0;
};
};
width = 611;
},
{
anchors = (
{
name = bottom;
pos = (276,0);
},
{
name = ogonek;
pos = (489,0);
},
{
name = top;
pos = (425,700);
},
{
name = topleft;
pos = (115,700);
}
);
layerId = "503E420B-61F7-4277-A1BE-A8852071B452";
shapes = (
{
closed = 1;
nodes = (
(38,0,o),
(98,0,o),
(144,0,cs),
(529,0,l),
(570,190,l),
(559,192,o),
(549,192,o),
(538,190,c),
(516,110,o),
(459,40,o),
(356,40,cs),
(238,40,l),
(244,105,o),
(253,158,o),
(264,210,cs),
(324,490,ls),
(338,557,o),
(350,599,o),
(370,660,c),
(453,660,ls),
(556,660,o),
(585,600,o),
(571,510,c),
(583,508,o),
(591,508,o),
(603,510,c),
(643,700,l),
(293,700,ls),
(247,700,o),
(187,700,o),
(142,702,c),
(138,692,o),
(134,675,o),
(134,665,c),
(201,665,l),
(196,610,o),
(188,557,o),
(174,490,cs),
(114,210,ls),
(101,150,o),
(86,93,o),
(67,35,c),
(0,35,l),
(-4,25,o),
(-8,9,o),
(-8,-2,c)
);
},
{
closed = 1;
nodes = (
(451,248,o),
(461,248,o),
(473,250,c),
(519,470,l),
(507,472,o),
(499,472,o),
(487,470,c),
(472,408,o),
(441,380,o),
(385,380,cs),
(225,380,l),
(217,340,l),
(377,340,ls),
(432,340,o),
(452,312,o),
(441,250,c)
);
}
);
userData = {
com.hugojourdan.ColorFlow = {
"0" = 0;
"1" = 0;
"10" = 0;
"11" = 0;
"2" = 0;
"3" = 0;
"4" = 0;
"5" = 0;
"6" = 0;
"7" = 0;
"8" = 0;
"9" = 0;
};
};
width = 623;
},
{
associatedMasterId = "45069982-2EFC-4B7D-8C53-1932E6EAC4CA";
layerId = "60009E37-1443-40CD-9C6F-0B5F08E8891D";
name = "Nov 1 20, 18:56";
shapes = (
{
closed = 1;
nodes = (
(540,0,l),
(540,175,l),
(512,175,l),
(512,99,o),
(469,28,o),
(400,28,cs),
(232,28,l),
(224,74,o),
(220,121,o),
(220,168,cs),
(220,350,l),
(382,350,ls),
(405,350,o),
(424,332,o),
(424,310,cs),
(424,284,l),
(452,284,l),
(452,444,l),
(424,444,l),
(424,418,ls),
(424,396,o),
(405,378,o),
(382,378,cs),
(220,378,l),
(220,532,ls),
(220,579,o),
(224,626,o),
(232,672,c),
(356,672,ls),
(425,672,o),
(468,601,o),
(468,525,c),
(496,525,l),
(496,700,l),
(32,700,l),
(32,672,l),
(98,672,l),
(106,626,o),
(110,579,o),
(110,532,cs),
(110,168,ls),
(110,121,o),
(106,74,o),
(98,28,c),
(32,28,l),
(32,0,l)
);
}
);
width = 606;
}
);
unicode = 69;
},
{
color = 6;
glyphname = Schwa;
kernLeft = O;
kernRight = O;
lastChange = "2023-03-10 14:52:57 +0000";
layers = (
{
background = {
shapes = (
{
pos = (-82,0);
ref = O;
}
);
};
layerId = "45069982-2EFC-4B7D-8C53-1932E6EAC4CA";
shapes = (
{
closed = 1;
nodes = (
(286,715,o),
(194,657,o),
(90,541,c),
(99,530,o),
(107,523,o),
(119,515,c),
(209,620,o),
(293,661,o),
(375,661,cs),
(514,661,o),
(574,548,o),
(574,427,cs),
(574,254,o),
(490,25,o),
(301,25,cs),
(216,25,o),
(155,103,o),
(180,266,c),
(584,266,l),
(590,306,l),
(216,306,ls),
(146,306,o),
(101,311,o),
(57,317,c),
(26,115,o),
(105,-15,o),
(301,-15,cs),
(549,-15,o),
(699,196,o),
(699,418,cs),
(699,620,o),
(573,715,o),
(403,715,cs)
);
}
);
userData = {
com.hugojourdan.ColorFlow = {
"0" = 0;
"1" = 0;
"10" = 0;
"11" = 0;
"2" = 0;
"3" = 0;
"4" = 0;
"5" = 0;
"6" = 0;
"7" = 0;
"8" = 0;
"9" = 0;
};
};
width = 717;
},
{
background = {
shapes = (
{
closed = 1;
nodes = (
(148,715,o),
(-18,519,o),
(-18,289,cs),
(-18,104,o),
(90,-15,o),
(292,-15,cs),
(550,-15,o),
(717,180,o),
(717,411,cs),
(717,596,o),
(609,715,o),
(407,715,cs)
);
},
{
closed = 1;
nodes = (
(180,27,o),
(152,131,o),
(152,260,cs),
(152,502,o),
(250,673,o),
(401,673,cs),
(519,673,o),
(547,569,o),
(547,439,cs),
(547,197,o),
(449,27,o),
(298,27,cs)
);
}
);
};
layerId = "503E420B-61F7-4277-A1BE-A8852071B452";
shapes = (
{
closed = 1;
nodes = (
(292,715,o),
(184,659,o),
(78,545,c),
(89,532,o),
(96,524,o),
(109,515,c),
(204,617,o),
(290,657,o),
(381,657,cs),
(497,657,o),
(547,549,o),
(547,439,cs),
(547,294,o),
(474,27,o),
(298,27,cs),
(223,27,o),
(175,104,o),
(199,265,c),
(586,265,l),
(592,305,l),
(200,305,ls),
(125,305,o),
(76,310,o),
(28,316,c),
(-7,92,o),
(90,-15,o),
(292,-15,cs),
(550,-15,o),
(717,180,o),
(717,411,cs),
(717,596,o),
(609,715,o),
(407,715,cs)
);
}
);
userData = {
com.hugojourdan.ColorFlow = {
"0" = 0;
"1" = 0;
"10" = 0;
"11" = 0;
"2" = 0;
"3" = 0;
"4" = 0;
"5" = 0;
"6" = 0;
"7" = 0;
"8" = 0;
"9" = 0;
};
};
width = 731;
}
);
unicode = 399;
},
{
color = 6;
glyphname = F;
kernLeft = H;
lastChange = "2023-03-10 14:52:57 +0000";
layers = (
{
anchors = (
{
name = bottom;
pos = (229,0);
},
{
name = top;
pos = (378,700);
}
);
layerId = "45069982-2EFC-4B7D-8C53-1932E6EAC4CA";
shapes = (
{
closed = 1;
nodes = (
(42,0,o),
(87,0,o),
(133,0,cs),
(181,0,o),
(224,0,o),
(290,-2,c),
(294,8,o),
(298,25,o),
(298,35,c),
(206,35,l),
(212,103,o),
(223,161,o),
(233,210,cs),
(293,490,ls),
(307,557,o),
(319,599,o),
(339,660,c),
(447,660,ls),
(544,660,o),
(574,628,o),
(557,520,c),
(568,518,o),
(578,518,o),
(589,520,c),
(627,700,l),
(282,700,ls),
(236,700,o),
(191,700,o),
(146,702,c),
(142,692,o),
(138,675,o),
(138,665,c),
(210,665,l),
(203,595,o),
(194,541,o),
(183,490,cs),
(123,210,ls),
(112,159,o),
(96,95,o),
(76,35,c),
(4,35,l),
(0,25,o),
(-4,9,o),
(-4,-2,c)
);
},
{
closed = 1;
nodes = (
(458,248,o),
(468,248,o),
(480,250,c),
(522,450,l),
(511,452,o),
(501,452,o),
(490,450,c),
(475,388,o),
(455,370,o),
(410,370,cs),
(212,370,l),
(204,330,l),
(402,330,ls),
(447,330,o),
(459,312,o),
(448,250,c)
);
}
);
userData = {
com.hugojourdan.ColorFlow = {
"0" = 0;
"1" = 0;
"10" = 0;
"11" = 0;
"2" = 0;
"3" = 0;
"4" = 0;
"5" = 0;
"6" = 0;
"7" = 0;
"8" = 0;
"9" = 0;
};
};
width = 567;
},
{
anchors = (
{
name = bottom;
pos = (231,0);
},
{
name = top;
pos = (380,700);
}
);
layerId = "503E420B-61F7-4277-A1BE-A8852071B452";
shapes = (
{
closed = 1;
nodes = (
(38,0,o),
(98,0,o),
(144,0,cs),
(190,0,o),
(250,0,o),
(326,-2,c),
(330,8,o),
(334,25,o),
(334,35,c),
(237,35,l),
(243,104,o),
(253,156,o),
(264,210,cs),
(324,490,ls),
(338,557,o),
(350,599,o),
(370,660,c),
(448,660,ls),
(551,660,o),
(580,600,o),
(566,510,c),
(578,508,o),
(586,508,o),
(598,510,c),
(638,700,l),
(293,700,ls),
(247,700,o),
(187,700,o),
(142,702,c),
(138,692,o),
(134,675,o),
(134,665,c),
(201,665,l),
(196,610,o),
(188,557,o),
(174,490,cs),
(114,210,ls),
(101,150,o),
(86,93,o),
(67,35,c),
(0,35,l),
(-4,25,o),
(-8,9,o),
(-8,-2,c)
);
},
{
closed = 1;
nodes = (
(470,238,o),
(478,238,o),
(490,240,c),
(537,460,l),
(525,462,o),
(517,462,o),
(505,460,c),
(490,398,o),
(459,370,o),
(403,370,cs),
(223,370,l),
(215,330,l),
(395,330,ls),
(450,330,o),
(470,302,o),
(458,240,c)
);
}
);
userData = {
com.hugojourdan.ColorFlow = {
"0" = 0;
"1" = 0;
"10" = 0;
"11" = 0;
"2" = 0;
"3" = 0;
"4" = 0;
"5" = 0;
"6" = 0;
"7" = 0;
"8" = 0;
"9" = 0;
};
};
width = 577;
}
);
unicode = 70;
},
{
color = 6;
glyphname = G;
kernLeft = O;
kernRight = G;
lastChange = "2023-03-10 14:52:57 +0000";
layers = (
{
anchors = (
{
name = bottom;
pos = (388,0);
},
{
name = top;
pos = (531,700);
}
);
layerId = "45069982-2EFC-4B7D-8C53-1932E6EAC4CA";
shapes = (
{
closed = 1;
nodes = (
(481,-15,o),
(568,9,o),
(633,40,c),
(654,137,o),
(672,203,o),
(691,265,c),
(743,265,l),
(747,275,o),
(751,291,o),
(751,302,c),
(705,300,o),
(680,300,o),
(634,300,cs),
(598,300,o),
(543,300,o),
(497,302,c),
(493,292,o),
(489,275,o),
(489,265,c),
(571,265,l),
(565,204,o),
(553,143,o),
(533,67,c),
(499,43,o),
(438,27,o),
(387,27,cs),
(251,27,o),
(200,126,o),
(200,278,cs),
(200,525,o),
(335,673,o),
(515,673,cs),
(619,673,o),
(685,622,o),
(683,495,c),
(695,493,o),
(703,493,o),
(715,495,c),
(752,670,l),
(708,692,o),
(629,715,o),
(530,715,cs),
(261,715,o),
(75,543,o),
(75,278,cs),
(75,82,o),
(186,-15,o),
(378,-15,cs)
);
}
);
userData = {
com.hugojourdan.ColorFlow = {
"0" = 0;
"1" = 0;
"10" = 0;
"11" = 0;
"2" = 0;
"3" = 0;
"4" = 0;
"5" = 0;
"6" = 0;
"7" = 0;
"8" = 0;
"9" = 0;
};
};
width = 763;
},
{
anchors = (
{
name = bottom;
pos = (370,0);
},
{
name = top;
pos = (529,700);
}
);
layerId = "503E420B-61F7-4277-A1BE-A8852071B452";
shapes = (
{
closed = 1;
nodes = (
(463,-15,o),
(550,3,o),
(649,50,c),
(671,150,o),
(685,204,o),
(705,265,c),
(757,265,l),
(761,275,o),
(765,291,o),
(765,302,c),
(719,300,o),
(674,300,o),
(628,300,cs),
(572,300,o),
(522,300,o),
(476,302,c),
(472,292,o),
(468,275,o),
(468,265,c),
(547,265,l),
(542,209,o),
(534,155,o),
(514,66,c),
(479,40,o),
(440,27,o),
(398,27,cs),
(279,27,o),
(237,127,o),
(237,279,cs),
(237,539,o),
(358,673,o),
(519,673,cs),
(623,673,o),
(682,616,o),
(679,485,c),
(690,483,o),
(700,483,o),
(711,485,c),
(750,670,l),
(686,702,o),
(609,715,o),
(533,715,cs),
(255,715,o),
(67,534,o),
(67,284,cs),
(67,100,o),
(172,-15,o),
(382,-15,cs)
);
}
);
userData = {
com.hugojourdan.ColorFlow = {
"0" = 0;
"1" = 0;
"10" = 0;
"11" = 0;
"2" = 0;
"3" = 0;
"4" = 0;
"5" = 0;
"6" = 0;
"7" = 0;
"8" = 0;
"9" = 0;
};
};
width = 771;
}
);
unicode = 71;
},
{
color = 6;
glyphname = H;
kernLeft = H;
kernRight = H;
lastChange = "2023-03-10 14:52:57 +0000";
layers = (
{
anchors = (
{
name = bottom;
pos = (358,0);
},
{
name = center;
pos = (433,350);
},
{
name = ogonek;
pos = (650,0);
},
{
name = top;
pos = (507,700);
},
{
name = topleft;
pos = (127,700);
}
);
layerId = "45069982-2EFC-4B7D-8C53-1932E6EAC4CA";
shapes = (
{
closed = 1;
nodes = (
(492,0,o),
(537,0,o),
(583,0,cs),
(628,0,o),
(675,0,o),
(720,-2,c),
(724,8,o),
(728,24,o),
(728,35,c),
(656,35,l),
(662,99,o),
(671,155,o),
(683,210,cs),
(743,490,ls),
(757,556,o),
(770,604,o),
(790,665,c),
(862,665,l),
(866,675,o),
(870,693,o),
(870,702,c),
(823,700,o),
(778,700,o),
(732,700,cs),
(686,700,o),
(641,700,o),
(596,702,c),
(592,693,o),
(588,676,o),
(588,665,c),
(660,665,l),
(653,595,o),
(644,541,o),
(633,490,cs),
(573,210,ls),
(560,150,o),
(546,98,o),
(526,35,c),
(454,35,l),
(450,25,o),
(446,9,o),
(446,-2,c)
);
},
{
closed = 1;
nodes = (
(42,0,o),
(87,0,o),
(133,0,cs),
(180,0,o),
(224,0,o),
(270,-2,c),
(274,8,o),
(278,25,o),
(278,35,c),
(206,35,l),
(212,103,o),
(223,161,o),
(233,210,cs),
(293,490,ls),
(307,556,o),
(320,604,o),
(340,665,c),
(412,665,l),
(416,675,o),
(420,693,o),
(420,702,c),
(373,700,o),
(328,700,o),
(282,700,cs),
(236,700,o),
(191,700,o),
(146,702,c),
(142,692,o),
(138,675,o),
(138,665,c),
(210,665,l),
(203,595,o),
(194,541,o),
(183,490,cs),
(123,210,ls),
(112,159,o),
(96,95,o),
(76,35,c),
(4,35,l),
(0,25,o),
(-4,9,o),
(-4,-2,c)
);
},
{
closed = 1;
nodes = (
(635,350,l),
(643,390,l),
(199,390,l),
(191,350,l)
);
}
);
userData = {
com.hugojourdan.ColorFlow = {
"0" = 0;
"1" = 0;
"10" = 0;
"11" = 0;
"2" = 0;
"3" = 0;
"4" = 0;
"5" = 0;
"6" = 0;
"7" = 0;
"8" = 0;
"9" = 0;
};
};
width = 812;
},
{
anchors = (
{
name = bottom;
pos = (369,0);
},
{
name = center;
pos = (444,350);
},
{
name = ogonek;
pos = (656,0);
},
{
name = top;
pos = (518,700);
},
{
name = topleft;
pos = (120,700);
}
);
layerId = "503E420B-61F7-4277-A1BE-A8852071B452";
shapes = (
{
closed = 1;
nodes = (
(488,0,o),
(548,0,o),
(594,0,cs),
(639,0,o),
(701,0,o),
(746,-2,c),
(750,8,o),
(754,24,o),
(754,35,c),
(687,35,l),
(693,104,o),
(703,156,o),
(714,210,cs),
(774,490,ls),
(787,550,o),
(802,607,o),
(821,665,c),
(888,665,l),
(892,675,o),
(896,693,o),
(896,702,c),
(849,700,o),
(789,700,o),
(743,700,cs),
(697,700,o),
(637,700,o),
(592,702,c),
(588,693,o),
(584,676,o),
(584,665,c),
(651,665,l),
(646,610,o),
(638,557,o),
(624,490,cs),
(564,210,ls),
(551,150,o),
(536,93,o),
(517,35,c),
(450,35,l),
(446,25,o),
(442,9,o),
(442,-2,c)
);
},
{
closed = 1;
nodes = (
(38,0,o),
(98,0,o),
(144,0,cs),
(190,0,o),
(250,0,o),
(296,-2,c),
(300,8,o),
(304,25,o),
(304,35,c),
(237,35,l),
(243,104,o),
(253,156,o),
(264,210,cs),
(324,490,ls),
(337,550,o),
(352,607,o),
(371,665,c),
(438,665,l),
(442,675,o),
(446,693,o),
(446,702,c),
(399,700,o),
(339,700,o),
(293,700,cs),
(247,700,o),
(187,700,o),
(142,702,c),
(138,692,o),
(134,675,o),
(134,665,c),
(201,665,l),
(196,610,o),
(188,557,o),
(174,490,cs),
(114,210,ls),
(101,150,o),
(86,93,o),
(67,35,c),
(0,35,l),
(-4,25,o),
(-8,9,o),
(-8,-2,c)
);
},
{
closed = 1;
nodes = (
(653,350,l),
(661,390,l),
(217,390,l),
(209,350,l)
);
}
);
userData = {
com.hugojourdan.ColorFlow = {
"0" = 0;
"1" = 0;
"10" = 0;
"11" = 0;
"2" = 0;
"3" = 0;
"4" = 0;
"5" = 0;
"6" = 0;
"7" = 0;
"8" = 0;
"9" = 0;
};
};
width = 837;
}
);
unicode = 72;
},
{
color = 3;
glyphname = Hbar;
kernLeft = H;
kernRight = H;
lastChange = "2023-03-10 14:52:57 +0000";
layers = (
{
layerId = "45069982-2EFC-4B7D-8C53-1932E6EAC4CA";
shapes = (
{
closed = 1;
nodes = (
(856,507,o),
(860,523,o),
(860,540,c),
(99,540,l),
(93,523,o),
(89,507,o),
(89,490,c),
(850,490,l)
);
},
{
pos = (6,0);
ref = H;
}
);
userData = {
com.hugojourdan.ColorFlow = {
"0" = 0;
"1" = 0;
"10" = 0;
"11" = 0;
"2" = 0;
"3" = 0;
"4" = 0;
"5" = 0;
"6" = 0;
"7" = 0;
"8" = 0;
"9" = 0;
};
};
width = 820;
},
{
layerId = "503E420B-61F7-4277-A1BE-A8852071B452";
shapes = (
{
closed = 1;
nodes = (
(862,507,o),
(866,523,o),
(866,540,c),
(106,540,l),
(100,523,o),
(96,507,o),
(96,490,c),
(856,490,l)
);
},
{
pos = (1,0);
ref = H;
}
);
userData = {
com.hugojourdan.ColorFlow = {
"0" = 0;
"1" = 0;
"10" = 0;
"11" = 0;
"2" = 0;
"3" = 0;
"4" = 0;
"5" = 0;
"6" = 0;
"7" = 0;
"8" = 0;
"9" = 0;
};
};
width = 840;
}
);
unicode = 294;
},
{
color = 6;
glyphname = I;
kernLeft = H;
kernRight = H;
lastChange = "2023-03-10 14:52:57 +0000";
layers = (
{
anchors = (
{
name = bottom;
pos = (133,0);
},
{
name = ogonek;
pos = (200,0);
},
{
name = top;
pos = (282,700);
},
{
name = topleft;
pos = (122,700);
}
);
layerId = "45069982-2EFC-4B7D-8C53-1932E6EAC4CA";
shapes = (
{
closed = 1;
nodes = (
(42,0,o),
(87,0,o),
(133,0,cs),
(180,0,o),
(224,0,o),
(270,-2,c),
(274,8,o),
(278,25,o),
(278,35,c),
(206,35,l),
(212,103,o),
(223,161,o),
(233,210,cs),
(293,490,ls),
(307,556,o),
(320,604,o),
(340,665,c),
(412,665,l),
(416,675,o),
(420,693,o),
(420,702,c),
(373,700,o),
(328,700,o),
(282,700,cs),
(236,700,o),
(191,700,o),
(146,702,c),
(142,692,o),
(138,675,o),
(138,665,c),
(210,665,l),
(203,595,o),
(194,541,o),
(183,490,cs),
(123,210,ls),
(112,159,o),
(96,95,o),
(76,35,c),
(4,35,l),
(0,25,o),
(-4,9,o),
(-4,-2,c)
);
}
);
userData = {
com.hugojourdan.ColorFlow = {
"0" = 0;
"1" = 0;
"10" = 0;
"11" = 0;
"2" = 0;
"3" = 0;
"4" = 0;
"5" = 0;
"6" = 0;
"7" = 0;
"8" = 0;
"9" = 0;
};
};
width = 362;
},
{
anchors = (
{
name = bottom;
pos = (144,0);
},
{
name = ogonek;
pos = (206,0);
},
{
name = top;
pos = (293,700);
},
{
name = topleft;
pos = (115,700);
}
);
layerId = "503E420B-61F7-4277-A1BE-A8852071B452";
shapes = (
{
closed = 1;
nodes = (
(38,0,o),
(98,0,o),
(144,0,cs),
(190,0,o),
(250,0,o),
(296,-2,c),
(300,8,o),
(304,25,o),
(304,35,c),
(237,35,l),
(243,104,o),
(253,156,o),
(264,210,cs),
(324,490,ls),
(337,550,o),
(352,607,o),
(371,665,c),
(438,665,l),
(442,675,o),
(446,693,o),
(446,702,c),
(399,700,o),
(339,700,o),
(293,700,cs),
(247,700,o),
(187,700,o),
(142,702,c),
(138,692,o),
(134,675,o),
(134,665,c),
(201,665,l),
(196,610,o),
(188,557,o),
(174,490,cs),
(114,210,ls),
(101,150,o),
(86,93,o),
(67,35,c),
(0,35,l),
(-4,25,o),
(-8,9,o),
(-8,-2,c)
);
}
);
userData = {
com.hugojourdan.ColorFlow = {
"0" = 0;
"1" = 0;
"10" = 0;
"11" = 0;
"2" = 0;
"3" = 0;
"4" = 0;
"5" = 0;
"6" = 0;
"7" = 0;
"8" = 0;
"9" = 0;
};
};
width = 387;
}
);
unicode = 73;
},
{
color = 6;
glyphname = J;
kernLeft = J;
kernRight = J;
lastChange = "2023-03-10 14:52:57 +0000";
layers = (
{
anchors = (
{
name = bottom;
pos = (158,0);
},
{
name = top;
pos = (383,700);
}
);
layerId = "45069982-2EFC-4B7D-8C53-1932E6EAC4CA";
shapes = (
{
closed = 1;
nodes = (
(225,-15,o),
(302,35,o),
(325,145,cs),
(398,490,ls),
(411,550,o),
(424,598,o),
(446,665,c),
(518,665,l),
(522,676,o),
(525,693,o),
(525,702,c),
(479,700,o),
(434,700,o),
(388,700,cs),
(342,700,o),
(297,700,o),
(231,702,c),
(227,691,o),
(224,674,o),
(224,665,c),
(316,665,l),
(310,605,o),
(300,545,o),
(288,490,cs),
(215,145,ls),
(198,64,o),
(174,20,o),
(132,20,cs),
(93,20,o),
(85,53,o),
(105,145,c),
(0,145,l),
(-25,28,o),
(27,-15,o),
(125,-15,cs)
);
}
);
userData = {
com.hugojourdan.ColorFlow = {
"0" = 0;
"1" = 0;
"10" = 0;
"11" = 0;
"2" = 0;
"3" = 0;
"4" = 0;
"5" = 0;
"6" = 0;
"7" = 0;
"8" = 0;
"9" = 0;
};
};
width = 456;
},
{
anchors = (
{
name = bottom;
pos = (208,0);
},
{
name = top;
pos = (426,700);
}
);
layerId = "503E420B-61F7-4277-A1BE-A8852071B452";
shapes = (
{
closed = 1;
nodes = (
(253,-15,o),
(364,15,o),
(396,165,cs),
(465,490,ls),
(478,550,o),
(491,606,o),
(512,665,c),
(579,665,l),
(583,675,o),
(587,692,o),
(587,702,c),
(541,700,o),
(481,700,o),
(435,700,cs),
(389,700,o),
(329,700,o),
(253,702,c),
(249,692,o),
(245,674,o),
(245,665,c),
(342,665,l),
(338,612,o),
(329,557,o),
(315,490,cs),
(242,145,ls),
(222,50,o),
(201,20,o),
(162,20,cs),
(122,20,o),
(115,65,o),
(136,165,c),
(-4,165,l),
(-35,18,o),
(53,-15,o),
(157,-15,cs)
);
}
);
userData = {
com.hugojourdan.ColorFlow = {
"0" = 0;
"1" = 0;
"10" = 0;
"11" = 0;
"2" = 0;
"3" = 0;
"4" = 0;
"5" = 0;
"6" = 0;
"7" = 0;
"8" = 0;
"9" = 0;
};
};
width = 517;
},
{
associatedMasterId = "503E420B-61F7-4277-A1BE-A8852071B452";
layerId = "1715D93D-F64C-41DC-AC19-451A84F52DCF";
name = "Nov 3 20, 17:00";
shapes = (
{
closed = 1;
nodes = (
(445,668,l),
(445,700,l),
(139,700,l),
(139,668,l),
(205,668,l),
(213,622,o),
(217,575,o),
(217,528,cs),
(217,84,ls),
(217,53,o),
(216,18,o),
(189,18,cs),
(162,18,o),
(161,53,o),
(161,84,cs),
(161,150,l),
(11,150,l),
(11,97,l),
(55,6,o),
(88,-14,o),
(189,-14,cs),
(296,-14,o),
(367,46,o),
(367,150,cs),
(367,528,ls),
(367,575,o),
(371,622,o),
(379,668,c)
);
}
);
width = 455;
},
{
associatedMasterId = "45069982-2EFC-4B7D-8C53-1932E6EAC4CA";
layerId = "0E9E6A32-06E3-42E8-A682-B4E78E34383A";
name = "Nov 3 20, 17:00";
shapes = (
{
closed = 1;
nodes = (
(431,672,l),
(431,700,l),
(165,700,l),
(165,672,l),
(231,672,l),
(239,626,o),
(243,579,o),
(243,532,cs),
(243,70,ls),
(243,38,o),
(215,14,o),
(183,14,cs),
(151,14,o),
(123,38,o),
(123,70,cs),
(123,125,l),
(13,125,l),
(13,81,l),
(62,2,o),
(91,-14,o),
(183,-14,cs),
(282,-14,o),
(353,33,o),
(353,125,cs),
(353,532,ls),
(353,579,o),
(357,626,o),
(365,672,c)
);
}
);
width = 451;
}
);
unicode = 74;
},
{
color = 6;
glyphname = K;
kernLeft = H;
kernRight = K;
lastChange = "2023-03-10 14:52:57 +0000";
layers = (
{
anchors = (
{
name = bottom;
pos = (361,0);
},
{
name = top;
pos = (468,700);
}
);
layerId = "45069982-2EFC-4B7D-8C53-1932E6EAC4CA";
shapes = (
{
closed = 1;
nodes = (
(42,0,o),
(87,0,o),
(133,0,cs),
(180,0,o),
(224,0,o),
(270,-2,c),
(274,8,o),
(278,25,o),
(278,35,c),
(206,35,l),
(212,103,o),
(223,161,o),
(233,210,cs),
(293,490,ls),
(307,556,o),
(320,604,o),
(340,665,c),
(412,665,l),
(416,675,o),
(420,693,o),
(420,702,c),
(373,700,o),
(328,700,o),
(282,700,cs),
(236,700,o),
(191,700,o),
(146,702,c),
(142,692,o),
(138,675,o),
(138,665,c),
(210,665,l),
(203,595,o),
(194,541,o),
(183,490,cs),
(123,210,ls),
(112,159,o),
(96,95,o),
(76,35,c),
(4,35,l),
(0,25,o),
(-4,9,o),
(-4,-2,c)
);
},
{
closed = 1;
nodes = (
(582,-10,o),
(603,-9,o),
(634,0,c),
(639,12,o),
(641,24,o),
(642,35,c),
(583,39,o),
(568,52,o),
(566,107,cs),
(560,263,ls),
(557,334,o),
(531,375,o),
(438,381,c),
(469,388,o),
(499,402,o),
(527,438,cs),
(562,483,o),
(596,550,o),
(616,586,cs),
(639,627,o),
(656,650,o),
(674,665,c),
(750,665,l),
(754,675,o),
(758,693,o),
(758,702,c),
(701,700,o),
(660,700,o),
(634,700,cs),
(608,700,o),
(579,700,o),
(524,702,c),
(520,693,o),
(516,676,o),
(516,665,c),
(584,665,l),
(580,640,o),
(572,608,o),
(560,582,cs),
(538,534,o),
(509,489,o),
(483,455,cs),
(454,416,o),
(395,390,o),
(328,390,cs),
(266,390,l),
(258,350,l),
(337,350,ls),
(432,350,o),
(446,312,o),
(448,243,cs),
(452,107,ls),
(454,28,o),
(472,-10,o),
(551,-10,cs)
);
}
);
userData = {
com.hugojourdan.ColorFlow = {
"0" = 0;
"1" = 0;
"10" = 0;
"11" = 0;
"2" = 0;
"3" = 0;
"4" = 0;
"5" = 0;
"6" = 0;
"7" = 0;
"8" = 0;
"9" = 0;
};
};
width = 697;
},
{
anchors = (
{
name = bottom;
pos = (380,0);
},
{
name = top;
pos = (483,700);
}
);
layerId = "503E420B-61F7-4277-A1BE-A8852071B452";
shapes = (
{
closed = 1;
nodes = (
(38,0,o),
(98,0,o),
(144,0,cs),
(190,0,o),
(250,0,o),
(296,-2,c),
(300,8,o),
(304,25,o),
(304,35,c),
(237,35,l),
(243,104,o),
(252,156,o),
(264,210,cs),
(324,490,ls),
(337,550,o),
(352,607,o),
(371,665,c),
(438,665,l),
(442,675,o),
(446,693,o),
(446,702,c),
(399,700,o),
(339,700,o),
(293,700,cs),
(247,700,o),
(187,700,o),
(142,702,c),
(138,692,o),
(134,675,o),
(134,665,c),
(201,665,l),
(196,610,o),
(188,557,o),
(174,490,cs),
(114,210,ls),
(101,150,o),
(86,93,o),
(67,35,c),
(0,35,l),
(-4,25,o),
(-8,9,o),
(-8,-2,c)
);
},
{
closed = 1;
nodes = (
(578,-10,o),
(603,-7,o),
(646,0,c),
(651,12,o),
(653,24,o),
(654,35,c),
(603,39,o),
(589,52,o),
(590,107,cs),
(592,238,ls),
(593,332,o),
(555,381,o),
(462,381,c),
(484,386,o),
(513,398,o),
(547,442,cs),
(584,490,o),
(613,545,o),
(636,586,cs),
(659,627,o),
(678,650,o),
(693,665,c),
(761,665,l),
(765,675,o),
(769,693,o),
(769,702,c),
(712,700,o),
(672,700,o),
(646,700,cs),
(620,700,o),
(590,700,o),
(535,702,c),
(531,693,o),
(527,676,o),
(527,665,c),
(602,665,l),
(598,640,o),
(589,608,o),
(577,582,cs),
(555,534,o),
(529,495,o),
(502,459,cs),
(467,412,o),
(397,390,o),
(330,390,cs),
(268,390,l),
(260,350,l),
(339,350,ls),
(422,350,o),
(449,315,o),
(447,248,cs),
(443,107,ls),
(441,29,o),
(468,-10,o),
(551,-10,c)
);
}
);
userData = {
com.hugojourdan.ColorFlow = {
"0" = 0;
"1" = 0;
"10" = 0;
"11" = 0;
"2" = 0;
"3" = 0;
"4" = 0;
"5" = 0;
"6" = 0;
"7" = 0;
"8" = 0;
"9" = 0;
};
};
width = 708;
},
{
associatedMasterId = "45069982-2EFC-4B7D-8C53-1932E6EAC4CA";
backgroundImage = {
imagePath = "../../../../aniawielunska/Downloads/19281931_Potawski_Antykwa-poster.png";
locked = 1;
pos = (-9151,-1116);
scale = (6.719,6.719);
};
layerId = "63E9D5DE-420E-411E-9407-CD1D96B98881";
name = "Nov 3 20, 23:01";
shapes = (
{
closed = 1;
nodes = (
(624,-7,l),
(624,21,l),
(610,21,ls),
(566,21,o),
(551,73,o),
(547,122,cs),
(539,217,ls),
(531,314,o),
(436,362,o),
(329,375,c),
(364,393,o),
(395,422,o),
(416,457,cs),
(437,490,o),
(449,527,o),
(459,565,cs),
(474,617,o),
(498,672,o),
(549,672,cs),
(582,672,l),
(582,700,l),
(409,700,l),
(409,672,l),
(453,672,l),
(443,640,o),
(434,607,o),
(426,574,cs),
(417,539,o),
(410,504,o),
(393,472,cs),
(360,414,o),
(299,378,o),
(232,378,cs),
(214,378,l),
(214,532,ls),
(214,579,o),
(218,626,o),
(226,672,c),
(292,672,l),
(292,700,l),
(26,700,l),
(26,672,l),
(92,672,l),
(100,626,o),
(104,579,o),
(104,532,cs),
(104,168,ls),
(104,121,o),
(100,74,o),
(92,28,c),
(26,28,l),
(26,0,l),
(292,0,l),
(292,28,l),
(226,28,l),
(218,74,o),
(214,121,o),
(214,168,cs),
(214,350,l),
(269,350,ls),
(368,350,o),
(409,326,o),
(417,231,cs),
(427,112,ls),
(434,24,o),
(463,-7,o),
(551,-7,cs)
);
}
);
width = 630;
},
{
associatedMasterId = "503E420B-61F7-4277-A1BE-A8852071B452";
layerId = "0C429CB5-B70F-47A5-A555-33C77D04841A";
name = "Nov 4 20, 15:32";
shapes = (
{
closed = 1;
nodes = (
(660,-7,l),
(660,25,l),
(644,25,ls),
(602,25,o),
(595,78,o),
(591,126,cs),
(583,221,ls),
(575,320,o),
(516,378,o),
(378,379,c),
(409,398,o),
(435,424,o),
(455,456,cs),
(475,489,o),
(487,525,o),
(498,562,cs),
(514,614,o),
(538,668,o),
(589,668,cs),
(622,668,l),
(622,700,l),
(441,700,l),
(441,668,l),
(485,668,l),
(476,637,o),
(467,605,o),
(460,574,cs),
(452,539,o),
(445,504,o),
(427,473,cs),
(397,417,o),
(339,382,o),
(275,382,cs),
(250,382,l),
(250,528,ls),
(250,575,o),
(254,622,o),
(262,668,c),
(328,668,l),
(328,700,l),
(22,700,l),
(22,668,l),
(88,668,l),
(96,622,o),
(100,575,o),
(100,528,cs),
(100,172,ls),
(100,125,o),
(96,78,o),
(88,32,c),
(22,32,l),
(22,0,l),
(328,0,l),
(328,32,l),
(262,32,l),
(254,78,o),
(250,125,o),
(250,172,cs),
(250,350,l),
(325,350,ls),
(403,350,o),
(419,314,o),
(426,231,cs),
(436,112,ls),
(444,21,o),
(488,-7,o),
(560,-7,cs)
);
}
);
width = 670;
}
);
unicode = 75;
},
{
color = 6;
glyphname = L;
kernLeft = H;
kernRight = L;
lastChange = "2023-03-10 14:52:57 +0000";
layers = (
{
anchors = (
{
name = bottom;
pos = (303,0);
},
{
name = center;
pos = (298,350);
},
{
name = top;
pos = (282,700);
},
{
name = topright;
pos = (592,700);
}
);
layerId = "45069982-2EFC-4B7D-8C53-1932E6EAC4CA";
shapes = (
{
closed = 1;
nodes = (
(42,0,o),
(87,0,o),
(133,0,cs),
(503,0,l),
(547,205,l),
(536,207,o),
(526,207,o),
(515,205,c),
(486,90,o),
(442,35,o),
(339,35,cs),
(206,35,l),
(212,103,o),
(223,161,o),
(233,210,cs),
(293,490,ls),
(307,556,o),
(320,604,o),
(340,665,c),
(412,665,l),
(416,675,o),
(420,693,o),
(420,702,c),
(373,700,o),
(328,700,o),
(282,700,cs),
(236,700,o),
(191,700,o),
(146,702,c),
(142,692,o),
(138,675,o),
(138,665,c),
(210,665,l),
(203,595,o),
(194,541,o),
(183,490,cs),
(123,210,ls),
(112,159,o),
(96,95,o),
(76,35,c),
(4,35,l),
(0,25,o),
(-4,9,o),
(-4,-2,c)
);
}
);
userData = {
com.hugojourdan.ColorFlow = {
"0" = 0;
"1" = 0;
"10" = 0;
"11" = 0;
"2" = 0;
"3" = 0;
"4" = 0;
"5" = 0;
"6" = 0;
"7" = 0;
"8" = 0;
"9" = 0;
};
};
width = 577;
},
{
anchors = (
{
name = bottom;
pos = (278,0);
},
{
name = center;
pos = (303,350);
},
{
name = top;
pos = (307,700);
},
{
name = topright;
pos = (578,700);
}
);
layerId = "503E420B-61F7-4277-A1BE-A8852071B452";
shapes = (
{
closed = 1;
nodes = (
(38,0,o),
(98,0,o),
(144,0,cs),
(509,0,l),
(554,210,l),
(543,212,o),
(533,212,o),
(522,210,c),
(496,110,o),
(439,40,o),
(336,40,cs),
(238,40,l),
(244,105,o),
(253,158,o),
(264,210,cs),
(324,490,ls),
(337,550,o),
(352,607,o),
(371,665,c),
(438,665,l),
(442,675,o),
(446,693,o),
(446,702,c),
(399,700,o),
(339,700,o),
(293,700,cs),
(247,700,o),
(187,700,o),
(142,702,c),
(138,692,o),
(134,675,o),
(134,665,c),
(201,665,l),
(196,610,o),
(188,557,o),
(174,490,cs),
(114,210,ls),
(101,150,o),
(86,93,o),
(67,35,c),
(0,35,l),
(-4,25,o),
(-8,9,o),
(-8,-2,c)
);
}
);
userData = {
com.hugojourdan.ColorFlow = {
"0" = 0;
"1" = 0;
"10" = 0;
"11" = 0;
"2" = 0;
"3" = 0;
"4" = 0;
"5" = 0;
"6" = 0;
"7" = 0;
"8" = 0;
"9" = 0;
};
};
width = 581;
}
);
unicode = 76;
},
{
color = 3;
glyphname = Lslash;
kernRight = L;
lastChange = "2023-03-10 14:52:57 +0000";
layers = (
{
layerId = "45069982-2EFC-4B7D-8C53-1932E6EAC4CA";
shapes = (
{
closed = 1;
nodes = (
(78,279,o),
(29,228,o),
(14,173,c),
(42,168,o),
(56,168,o),
(84,173,c),
(93,220,o),
(115,255,o),
(183,275,c),
(186,305,l)
);
},
{
closed = 1;
nodes = (
(388,325,o),
(524,394,o),
(545,520,c),
(517,525,o),
(499,525,o),
(470,520,c),
(460,403,o),
(352,350,o),
(294,329,c),
(291,299,l)
);
},
{
pos = (41,0);
ref = L;
}
);
userData = {
com.hugojourdan.ColorFlow = {
"0" = 0;
"1" = 0;
"10" = 0;
"11" = 0;
"2" = 0;
"3" = 0;
"4" = 0;
"5" = 0;
"6" = 0;
"7" = 0;
"8" = 0;
"9" = 0;
};
};
width = 618;
},
{
layerId = "503E420B-61F7-4277-A1BE-A8852071B452";
shapes = (
{
closed = 1;
nodes = (
(75,280,o),
(19,229,o),
(4,173,c),
(32,168,o),
(66,168,o),
(94,173,c),
(103,220,o),
(109,249,o),
(178,269,c),
(181,305,l)
);
},
{
closed = 1;
nodes = (
(423,325,o),
(560,394,o),
(581,520,c),
(552,525,o),
(510,525,o),
(481,520,c),
(471,403,o),
(387,354,o),
(329,333,c),
(326,299,l)
);
},
{
pos = (45,0);
ref = L;
}
);
userData = {
com.hugojourdan.ColorFlow = {
"0" = 0;
"1" = 0;
"10" = 0;
"11" = 0;
"2" = 0;
"3" = 0;
"4" = 0;
"5" = 0;
"6" = 0;
"7" = 0;
"8" = 0;
"9" = 0;
};
};
width = 627;
}
);
unicode = 321;
},
{
color = 3;
glyphname = M;
kernLeft = N;
kernRight = H;
lastChange = "2023-03-10 14:52:57 +0000";
layers = (
{
anchors = (
{
name = bottom;
pos = (433,0);
},
{
name = top;
pos = (582,700);
}
);
guides = (
{
angle = 247.3287;
pos = (588,550);
},
{
angle = -67.2258;
pos = (276,560);
}
);
layerId = "45069982-2EFC-4B7D-8C53-1932E6EAC4CA";
shapes = (
{
closed = 1;
nodes = (
(383,-13,o),
(409,-13,o),
(426,-10,c),
(444,41,o),
(467,91,o),
(491,130,cs),
(791,614,l),
(790,595,o),
(782,539,o),
(772,490,cs),
(712,210,ls),
(699,150,o),
(685,98,o),
(665,35,c),
(593,35,l),
(589,25,o),
(585,9,o),
(585,-2,c),
(631,0,o),
(676,0,o),
(722,0,cs),
(767,0,o),
(814,0,o),
(859,-2,c),
(863,8,o),
(867,24,o),
(867,35,c),
(795,35,l),
(801,103,o),
(812,161,o),
(822,210,cs),
(882,490,ls),
(896,556,o),
(909,604,o),
(929,665,c),
(1001,665,l),
(1005,675,o),
(1009,693,o),
(1009,702,c),
(962,700,o),
(917,700,o),
(871,700,cs),
(772,700,l),
(745,636,o),
(728,603,o),
(691,542,cs),
(460,165,l),
(382,560,ls),
(374,600,o),
(369,649,o),
(369,700,c),
(251,700,ls),
(227,700,o),
(192,700,o),
(147,702,c),
(143,692,o),
(139,675,o),
(139,665,c),
(206,665,l),
(202,595,o),
(194,539,o),
(184,490,cs),
(124,210,ls),
(112,156,o),
(96,95,o),
(72,35,c),
(5,35,l),
(1,25,o),
(-3,9,o),
(-3,-2,c),
(43,0,o),
(78,0,o),
(102,0,cs),
(127,0,o),
(172,0,o),
(218,-2,c),
(222,8,o),
(226,25,o),
(226,35,c),
(149,35,l),
(151,109,o),
(161,161,o),
(171,210,cs),
(231,490,ls),
(241,537,o),
(256,594,o),
(261,614,c),
(352,156,ls),
(364,93,o),
(368,41,o),
(366,-10,c)
);
}
);
userData = {
com.hugojourdan.ColorFlow = {
"0" = 0;
"1" = 0;
"10" = 0;
"11" = 0;
"2" = 0;
"3" = 0;
"4" = 0;
"5" = 0;
"6" = 0;
"7" = 0;
"8" = 0;
"9" = 0;
};
};
width = 951;
},
{
anchors = (
{
name = bottom;
pos = (439,0);
},
{
name = top;
pos = (588,700);
}
);
layerId = "503E420B-61F7-4277-A1BE-A8852071B452";
shapes = (
{
closed = 1;
nodes = (
(383,-13,o),
(409,-13,o),
(426,-10,c),
(450,52,o),
(466,89,o),
(491,130,cs),
(784,614,l),
(783,595,o),
(775,539,o),
(765,490,cs),
(705,210,ls),
(692,150,o),
(677,93,o),
(658,35,c),
(591,35,l),
(587,25,o),
(583,9,o),
(583,-2,c),
(629,0,o),
(689,0,o),
(735,0,cs),
(780,0,o),
(842,0,o),
(887,-2,c),
(891,8,o),
(895,24,o),
(895,35,c),
(828,35,l),
(834,104,o),
(843,156,o),
(855,210,cs),
(915,490,ls),
(928,550,o),
(943,607,o),
(962,665,c),
(1029,665,l),
(1033,675,o),
(1037,693,o),
(1037,702,c),
(990,700,o),
(930,700,o),
(884,700,cs),
(766,700,l),
(744,646,o),
(722,603,o),
(685,542,cs),
(490,218,l),
(413,560,ls),
(403,606,o),
(393,656,o),
(392,700,c),
(244,700,ls),
(220,700,o),
(185,700,o),
(140,702,c),
(136,692,o),
(132,675,o),
(132,665,c),
(199,665,l),
(195,595,o),
(187,539,o),
(177,490,cs),
(117,210,ls),
(105,156,o),
(89,95,o),
(65,35,c),
(-2,35,l),
(-6,25,o),
(-10,9,o),
(-10,-2,c),
(36,0,o),
(71,0,o),
(95,0,cs),
(120,0,o),
(165,0,o),
(221,-2,c),
(225,8,o),
(229,25,o),
(229,35,c),
(142,35,l),
(144,109,o),
(154,161,o),
(164,210,cs),
(224,490,ls),
(235,541,o),
(244,573,o),
(250,594,c),
(354,130,ls),
(365,79,o),
(369,38,o),
(366,-10,c)
);
}
);
userData = {
com.hugojourdan.ColorFlow = {
"0" = 0;
"1" = 0;
"10" = 0;
"11" = 0;
"2" = 0;
"3" = 0;
"4" = 0;
"5" = 0;
"6" = 0;
"7" = 0;
"8" = 0;
"9" = 0;
};
};
width = 978;
},
{
associatedMasterId = "45069982-2EFC-4B7D-8C53-1932E6EAC4CA";
backgroundImage = {
imagePath = "../../../../aniawielunska/Downloads/19281931_Potawski_Antykwa-poster.png";
pos = (-2793,-20);
scale = (6.719,6.719);
};
layerId = "600275E2-B519-48EF-8B28-D3730BC0750D";
name = "Nov 3 20, 23:13";
shapes = (
{
closed = 1;
nodes = (
(605,350,l),
(660,350,l),
(660,700,l),
(580,700,l),
(570,652,o),
(561,607,o),
(537,542,cs),
(416,211,l),
(284,560,ls),
(267,606,o),
(253,652,o),
(243,700,c),
(110,700,l),
(136,614,l),
(313,140,ls),
(330,94,o),
(343,48,o),
(353,0,c),
(391,0,l),
(401,48,o),
(416,93,o),
(432,140,cs),
(598,610,l),
(601,584,o),
(602,558,o),
(602,532,c)
);
},
{
closed = 1;
nodes = (
(51,0,o),
(86,0,o),
(110,0,cs),
(133,0,o),
(178,0,o),
(224,-2,c),
(226,8,o),
(226,25,o),
(224,35,c),
(147,35,l),
(136,95,o),
(132,150,o),
(132,210,cs),
(132,490,ls),
(132,540,o),
(135,595,o),
(139,635,c),
(110,700,l),
(86,700,o),
(51,700,o),
(5,702,c),
(3,692,o),
(3,675,o),
(5,665,c),
(72,665,l),
(83,595,o),
(87,540,o),
(87,490,cs),
(87,210,ls),
(87,150,o),
(83,95,o),
(72,35,c),
(5,35,l),
(3,25,o),
(3,8,o),
(5,-2,c)
);
},
{
alignment = -1;
pos = (521,0);
ref = _COM_I_serif;
},
{
alignment = -1;
pos = (799,0);
ref = _COM_I_serif;
scale = (-1,1);
},
{
alignment = -1;
angle = 180;
pos = (799,700);
ref = _COM_I_serif;
}
);
width = 850;
}
);
unicode = 77;
},
{
color = 6;
glyphname = N;
kernLeft = N;
kernRight = N;
lastChange = "2023-03-10 14:52:57 +0000";
layers = (
{
anchors = (
{
name = bottom;
pos = (388,0);
},
{
name = top;
pos = (487,700);
}
);
layerId = "45069982-2EFC-4B7D-8C53-1932E6EAC4CA";
shapes = (
{
closed = 1;
nodes = (
(585,-3,o),
(599,-3,o),
(619,0,c),
(614,183,l),
(411,591,ls),
(387,639,o),
(376,668,o),
(368,702,c),
(332,700,o),
(295,700,o),
(251,700,c),
(268,635,l),
(515,142,ls),
(541,90,o),
(555,53,o),
(566,0,c)
);
},
{
closed = 1;
nodes = (
(43,0,o),
(78,0,o),
(102,0,cs),
(129,0,o),
(172,0,o),
(218,-2,c),
(222,8,o),
(226,25,o),
(226,35,c),
(149,35,l),
(151,109,o),
(161,161,o),
(171,210,cs),
(231,490,ls),
(242,541,o),
(256,594,o),
(268,635,c),
(251,700,l),
(227,700,o),
(192,700,o),
(147,702,c),
(143,693,o),
(139,676,o),
(139,665,c),
(206,665,l),
(202,595,o),
(194,539,o),
(184,490,cs),
(124,210,ls),
(111,150,o),
(96,97,o),
(72,35,c),
(5,35,l),
(1,25,o),
(-3,9,o),
(-3,-2,c)
);
},
{
closed = 1;
nodes = (
(724,490,ls),
(738,557,o),
(750,594,o),
(776,665,c),
(843,665,l),
(847,675,o),
(851,693,o),
(851,702,c),
(804,700,o),
(769,700,o),
(746,700,cs),
(720,700,o),
(675,700,o),
(630,702,c),
(626,693,o),
(622,676,o),
(622,665,c),
(699,665,l),
(695,595,o),
(689,548,o),
(677,490,cs),
(614,183,l),
(619,0,l)
);
}
);
userData = {
com.hugojourdan.ColorFlow = {
"0" = 0;
"1" = 0;
"10" = 0;
"11" = 0;
"2" = 0;
"3" = 0;
"4" = 0;
"5" = 0;
"6" = 0;
"7" = 0;
"8" = 0;
"9" = 0;
};
};
width = 784;
},
{
anchors = (
{
name = bottom;
pos = (377,0);
},
{
name = top;
pos = (516,700);
}
);
guides = (
{
angle = 258.0814;
pos = (690,490);
}
);
layerId = "503E420B-61F7-4277-A1BE-A8852071B452";
shapes = (
{
closed = 1;
nodes = (
(571,-3,o),
(608,-3,o),
(632,0,c),
(626,190,l),
(419,591,ls),
(396,636,o),
(385,665,o),
(375,702,c),
(343,700,o),
(288,700,o),
(244,700,c),
(250,593,l),
(500,115,ls),
(525,68,o),
(536,44,o),
(552,0,c)
);
},
{
closed = 1;
nodes = (
(36,0,o),
(71,0,o),
(95,0,cs),
(120,0,o),
(165,0,o),
(221,-2,c),
(225,8,o),
(229,25,o),
(229,35,c),
(142,35,l),
(144,109,o),
(154,161,o),
(164,210,cs),
(224,490,ls),
(233,530,o),
(241,560,o),
(250,593,c),
(244,700,l),
(220,700,o),
(185,700,o),
(140,702,c),
(136,692,o),
(132,675,o),
(132,665,c),
(199,665,l),
(195,595,o),
(190,549,o),
(177,490,cs),
(117,210,ls),
(105,156,o),
(89,95,o),
(65,35,c),
(-2,35,l),
(-6,25,o),
(-10,9,o),
(-10,-2,c)
);
},
{
closed = 1;
nodes = (
(737,490,ls),
(751,557,o),
(763,594,o),
(789,665,c),
(856,665,l),
(860,675,o),
(864,693,o),
(864,702,c),
(817,700,o),
(782,700,o),
(759,700,cs),
(733,700,o),
(688,700,o),
(633,702,c),
(629,693,o),
(625,676,o),
(625,665,c),
(712,665,l),
(708,595,o),
(703,549,o),
(690,490,cs),
(626,190,l),
(632,0,l)
);
}
);
userData = {
com.hugojourdan.ColorFlow = {
"0" = 0;
"1" = 0;
"10" = 0;
"11" = 0;
"2" = 0;
"3" = 0;
"4" = 0;
"5" = 0;
"6" = 0;
"7" = 0;
"8" = 0;
"9" = 0;
};
};
width = 794;
},
{
associatedMasterId = "45069982-2EFC-4B7D-8C53-1932E6EAC4CA";
layerId = "BF957949-0343-4FF4-8FF1-492510490FCA";
name = "Nov 3 20, 00:11";
shapes = (
{
closed = 1;
nodes = (
(708,672,l),
(708,700,l),
(524,700,l),
(524,672,l),
(590,672,l),
(598,626,o),
(602,579,o),
(602,532,cs),
(602,157,l),
(331,560,ls),
(301,605,o),
(273,652,o),
(249,700,c),
(26,700,l),
(26,672,l),
(92,672,l),
(100,626,o),
(104,579,o),
(104,532,cs),
(104,168,ls),
(104,121,o),
(100,74,o),
(92,28,c),
(26,28,l),
(26,0,l),
(210,0,l),
(210,28,l),
(144,28,l),
(136,74,o),
(132,121,o),
(132,168,cs),
(132,532,ls),
(132,570,o),
(135,609,o),
(140,646,c),
(575,0,l),
(630,0,l),
(630,532,ls),
(630,579,o),
(634,626,o),
(642,672,c)
);
}
);
width = 740;
},
{
associatedMasterId = "503E420B-61F7-4277-A1BE-A8852071B452";
layerId = "9695E5B7-726F-40F9-9BB5-3EF3996D3927";
name = "Nov 3 20, 00:21";
shapes = (
{
closed = 1;
nodes = (
(664,668,l),
(664,700,l),
(476,700,l),
(476,668,l),
(542,668,l),
(550,622,o),
(554,575,o),
(554,528,cs),
(554,223,l),
(356,560,ls),
(330,605,o),
(306,652,o),
(286,700,c),
(22,700,l),
(22,668,l),
(88,668,l),
(96,622,o),
(100,575,o),
(100,528,cs),
(100,172,ls),
(100,125,o),
(96,78,o),
(88,32,c),
(22,32,l),
(22,0,l),
(210,0,l),
(210,32,l),
(144,32,l),
(136,78,o),
(132,125,o),
(132,172,cs),
(132,528,ls),
(132,563,o),
(134,599,o),
(139,634,c),
(511,0,l),
(586,0,l),
(586,528,ls),
(586,575,o),
(590,622,o),
(598,668,c)
);
}
);
width = 683;
}
);
unicode = 78;
},
{
color = 6;
glyphname = Eng;
kernLeft = N;
kernRight = N;
lastChange = "2023-03-10 14:52:57 +0000";
layers = (
{
anchors = (
{
name = bottom;
pos = (388,0);
},
{
name = top;
pos = (487,700);
}
);
layerId = "45069982-2EFC-4B7D-8C53-1932E6EAC4CA";
shapes = (
{
closed = 1;
nodes = (
(720,700,o),
(675,700,o),
(630,702,c),
(626,693,o),
(622,676,o),
(622,665,c),
(699,665,l),
(695,595,o),
(689,548,o),
(677,490,cs),
(614,183,l),
(411,591,ls),
(387,639,o),
(376,668,o),
(368,702,c),
(332,700,o),
(295,700,o),
(251,700,cs),
(227,700,o),
(192,700,o),
(147,702,c),
(143,693,o),
(139,676,o),
(139,665,c),
(206,665,l),
(202,595,o),
(194,539,o),
(184,490,cs),
(124,210,ls),
(111,150,o),
(96,97,o),
(72,35,c),
(5,35,l),
(1,25,o),
(-3,9,o),
(-3,-2,c),
(43,0,o),
(78,0,o),
(102,0,cs),
(129,0,o),
(172,0,o),
(218,-2,c),
(222,8,o),
(226,25,o),
(226,35,c),
(149,35,l),
(151,109,o),
(161,161,o),
(171,210,cs),
(231,490,ls),
(242,541,o),
(256,594,o),
(268,635,c),
(515,142,ls),
(521,129,o),
(527,118,o),
(532,107,c),
(491,-85,ls),
(475,-161,o),
(453,-183,o),
(417,-183,cs),
(375,-183,o),
(366,-157,o),
(385,-65,c),
(280,-65,l),
(255,-182,o),
(306,-225,o),
(405,-225,cs),
(506,-225,o),
(582,-175,o),
(603,-75,cs),
(724,490,ls),
(738,557,o),
(750,594,o),
(776,665,c),
(843,665,l),
(847,675,o),
(851,693,o),
(851,702,c),
(804,700,o),
(769,700,o),
(746,700,cs)
);
}
);
userData = {
com.hugojourdan.ColorFlow = {
"0" = 0;
"1" = 0;
"10" = 0;
"11" = 0;
"2" = 0;
"3" = 0;
"4" = 0;
"5" = 0;
"6" = 0;
"7" = 0;
"8" = 0;
"9" = 0;
};
};
width = 784;
},
{
anchors = (
{
name = bottom;
pos = (377,0);
},
{
name = top;
pos = (516,700);
}
);
layerId = "503E420B-61F7-4277-A1BE-A8852071B452";
shapes = (
{
closed = 1;
nodes = (
(733,700,o),
(688,700,o),
(633,702,c),
(629,693,o),
(625,676,o),
(625,665,c),
(712,665,l),
(708,595,o),
(703,549,o),
(690,490,cs),
(626,190,l),
(419,591,ls),
(396,636,o),
(385,665,o),
(375,702,c),
(343,700,o),
(288,700,o),
(244,700,cs),
(220,700,o),
(185,700,o),
(140,702,c),
(136,692,o),
(132,675,o),
(132,665,c),
(199,665,l),
(195,595,o),
(190,549,o),
(177,490,cs),
(117,210,ls),
(105,156,o),
(89,95,o),
(65,35,c),
(-2,35,l),
(-6,25,o),
(-10,9,o),
(-10,-2,c),
(36,0,o),
(71,0,o),
(95,0,cs),
(120,0,o),
(165,0,o),
(221,-2,c),
(225,8,o),
(229,25,o),
(229,35,c),
(142,35,l),
(144,109,o),
(154,161,o),
(164,210,cs),
(224,490,ls),
(233,530,o),
(241,560,o),
(250,593,c),
(500,115,ls),
(504,107,o),
(508,100,o),
(512,93,c),
(483,-40,ls),
(463,-136,o),
(441,-158,o),
(405,-158,cs),
(365,-158,o),
(362,-115,o),
(374,-60,c),
(239,-60,l),
(226,-167,o),
(294,-200,o),
(398,-200,cs),
(494,-200,o),
(596,-170,o),
(627,-20,c),
(737,490,l),
(751,557,o),
(763,594,o),
(789,665,c),
(856,665,l),
(860,675,o),
(864,693,o),
(864,702,c),
(817,700,o),
(782,700,o),
(759,700,cs)
);
}
);
userData = {
com.hugojourdan.ColorFlow = {
"0" = 0;
"1" = 0;
"10" = 0;
"11" = 0;
"2" = 0;
"3" = 0;
"4" = 0;
"5" = 0;
"6" = 0;
"7" = 0;
"8" = 0;
"9" = 0;
};
};
width = 794;
}
);
unicode = 330;
},
{
color = 6;
glyphname = O;
kernLeft = O;
kernRight = O;
lastChange = "2023-03-10 14:52:57 +0000";
layers = (
{
anchors = (
{
name = bottom;
pos = (366,0);
},
{
name = center;
pos = (428,350);
},
{
name = ogonek;
pos = (486,0);
},
{
name = top;
pos = (490,700);
},
{
name = topleft;
pos = (115,700);
},
{
name = topright;
pos = (716,620);
}
);
layerId = "45069982-2EFC-4B7D-8C53-1932E6EAC4CA";
shapes = (
{
closed = 1;
nodes = (
(226,715,o),
(75,505,o),
(75,282,cs),
(75,80,o),
(198,-15,o),
(372,-15,cs),
(630,-15,o),
(781,195,o),
(781,418,cs),
(781,620,o),
(658,715,o),
(484,715,cs)
);
},
{
closed = 1;
nodes = (
(244,27,o),
(200,132,o),
(200,273,cs),
(200,506,o),
(320,673,o),
(483,673,cs),
(611,673,o),
(656,569,o),
(656,427,cs),
(656,194,o),
(536,27,o),
(373,27,cs)
);
}
);
userData = {
com.hugojourdan.ColorFlow = {
"0" = 0;
"1" = 0;
"10" = 0;
"11" = 0;
"2" = 0;
"3" = 0;
"4" = 0;
"5" = 0;
"6" = 0;
"7" = 0;
"8" = 0;
"9" = 0;
};
};
width = 802;
},
{
anchors = (
{
name = bottom;
pos = (375,0);
},
{
name = center;
pos = (437,350);
},
{
name = ogonek;
pos = (498,0);
},
{
name = top;
pos = (498,700);
},
{
name = topleft;
pos = (123,700);
},
{
name = topright;
pos = (733,620);
}
);
layerId = "503E420B-61F7-4277-A1BE-A8852071B452";
shapes = (
{
closed = 1;
nodes = (
(235,715,o),
(69,519,o),
(69,289,cs),
(69,104,o),
(177,-15,o),
(379,-15,cs),
(637,-15,o),
(804,180,o),
(804,411,cs),
(804,596,o),
(696,715,o),
(494,715,cs)
);
},
{
closed = 1;
nodes = (
(267,27,o),
(239,131,o),
(239,260,cs),
(239,502,o),
(337,673,o),
(488,673,cs),
(606,673,o),
(634,569,o),
(634,439,cs),
(634,197,o),
(536,27,o),
(385,27,cs)
);
}
);
userData = {
com.hugojourdan.ColorFlow = {
"0" = 0;
"1" = 0;
"10" = 0;
"11" = 0;
"2" = 0;
"3" = 0;
"4" = 0;
"5" = 0;
"6" = 0;
"7" = 0;
"8" = 0;
"9" = 0;
};
};
width = 822;
}
);
unicode = 79;
},
{
color = 3;
glyphname = Oslash;
kernLeft = O;
kernRight = O;
lastChange = "2023-03-10 14:52:57 +0000";
layers = (
{
layerId = "45069982-2EFC-4B7D-8C53-1932E6EAC4CA";
shapes = (
{
closed = 1;
nodes = (
(686,435,o),
(113,277,o),
(18,-30,c),
(38,-33,o),
(59,-33,o),
(79,-30,c),
(162,266,o),
(735,423,o),
(830,730,c),
(810,733,o),
(789,733,o),
(769,730,c)
);
},
{
pos = (7,0);
ref = O;
}
);
userData = {
com.hugojourdan.ColorFlow = {
"0" = 0;
"1" = 0;
"10" = 0;
"11" = 0;
"2" = 0;
"3" = 0;
"4" = 0;
"5" = 0;
"6" = 0;
"7" = 0;
"8" = 0;
"9" = 0;
};
};
width = 810;
},
{
layerId = "503E420B-61F7-4277-A1BE-A8852071B452";
shapes = (
{
closed = 1;
nodes = (
(683,435,o),
(110,277,o),
(15,-30,c),
(35,-33,o),
(56,-33,o),
(76,-30,c),
(159,266,o),
(732,423,o),
(827,730,c),
(807,733,o),
(786,733,o),
(766,730,c)
);
},
{
pos = (3,0);
ref = O;
}
);
userData = {
com.hugojourdan.ColorFlow = {
"0" = 0;
"1" = 0;
"10" = 0;
"11" = 0;
"2" = 0;
"3" = 0;
"4" = 0;
"5" = 0;
"6" = 0;
"7" = 0;
"8" = 0;
"9" = 0;
};
};
width = 825;
}
);
unicode = 216;
},
{
color = 6;
glyphname = OE;
kernLeft = O;
kernRight = E;
lastChange = "2023-03-10 14:52:57 +0000";
layers = (
{
anchors = (
{
name = bottom;
pos = (466,0);
},
{
name = top;
pos = (615,700);
}
);
layerId = "45069982-2EFC-4B7D-8C53-1932E6EAC4CA";
shapes = (
{
closed = 1;
nodes = (
(542,0,l),
(927,0,l),
(967,185,l),
(956,187,o),
(946,187,o),
(935,185,c),
(911,95,o),
(868,40,o),
(764,40,cs),
(616,40,l),
(622,105,o),
(631,158,o),
(642,210,cs),
(702,490,ls),
(716,557,o),
(728,599,o),
(748,660,c),
(861,660,ls),
(950,660,o),
(989,630,o),
(970,515,c),
(981,513,o),
(991,513,o),
(1002,515,c),
(1041,700,l),
(691,700,l),
(579,700,l),
(619,665,l),
(612,595,o),
(603,541,o),
(592,490,cs),
(532,210,ls),
(521,159,o),
(505,95,o),
(485,35,c),
(461,0,l)
);
},
{
closed = 1;
nodes = (
(863,258,o),
(871,258,o),
(883,260,c),
(925,460,l),
(913,462,o),
(905,462,o),
(893,460,c),
(878,398,o),
(859,380,o),
(813,380,cs),
(623,380,l),
(615,340,l),
(805,340,ls),
(851,340,o),
(862,322,o),
(851,260,c)
);
},
{
closed = 1;
nodes = (
(608,701,o),
(550,715,o),
(484,715,cs),
(226,715,o),
(75,505,o),
(75,282,cs),
(75,80,o),
(198,-15,o),
(372,-15,cs),
(444,-15,o),
(508,1,o),
(562,30,c),
(579,144,l),
(528,71,o),
(456,27,o),
(373,27,cs),
(244,27,o),
(200,132,o),
(200,273,cs),
(200,506,o),
(320,673,o),
(483,673,cs),
(567,673,o),
(615,628,o),
(639,557,c),
(655,674,l)
);
}
);
userData = {
com.hugojourdan.ColorFlow = {
"0" = 0;
"1" = 0;
"10" = 0;
"11" = 0;
"2" = 0;
"3" = 0;
"4" = 0;
"5" = 0;
"6" = 0;
"7" = 0;
"8" = 0;
"9" = 0;
};
};
width = 1020;
},
{
anchors = (
{
name = bottom;
pos = (447,0);
},
{
name = top;
pos = (596,700);
}
);
layerId = "503E420B-61F7-4277-A1BE-A8852071B452";
shapes = (
{
closed = 1;
nodes = (
(513,0,l),
(898,0,l),
(939,190,l),
(928,192,o),
(918,192,o),
(907,190,c),
(885,110,o),
(828,40,o),
(725,40,cs),
(607,40,l),
(613,105,o),
(622,158,o),
(633,210,cs),
(693,490,ls),
(707,557,o),
(719,599,o),
(739,660,c),
(822,660,ls),
(925,660,o),
(954,600,o),
(940,510,c),
(952,508,o),
(960,508,o),
(972,510,c),
(1012,700,l),
(662,700,l),
(589,702,l),
(570,665,l),
(565,610,o),
(557,557,o),
(543,490,cs),
(483,210,ls),
(470,150,o),
(455,93,o),
(436,35,c),
(436,-2,l)
);
},
{
closed = 1;
nodes = (
(820,248,o),
(830,248,o),
(842,250,c),
(888,470,l),
(876,472,o),
(868,472,o),
(856,470,c),
(841,408,o),
(810,380,o),
(754,380,cs),
(594,380,l),
(586,340,l),
(746,340,ls),
(801,340,o),
(821,312,o),
(810,250,c)
);
},
{
closed = 1;
nodes = (
(638,697,o),
(573,715,o),
(494,715,cs),
(235,715,o),
(69,519,o),
(69,289,cs),
(69,104,o),
(177,-15,o),
(379,-15,cs),
(430,-15,o),
(477,-7,o),
(520,6,c),
(548,115,l),
(506,59,o),
(450,27,o),
(385,27,cs),
(267,27,o),
(239,131,o),
(239,260,cs),
(239,502,o),
(337,673,o),
(488,673,cs),
(602,673,o),
(632,576,o),
(634,452,c),
(688,663,l)
);
}
);
userData = {
com.hugojourdan.ColorFlow = {
"0" = 0;
"1" = 0;
"10" = 0;
"11" = 0;
"2" = 0;
"3" = 0;
"4" = 0;
"5" = 0;
"6" = 0;
"7" = 0;
"8" = 0;
"9" = 0;
};
};
width = 992;
}
);
unicode = 338;
},
{
color = 6;
glyphname = P;
kernLeft = H;
lastChange = "2023-03-10 14:52:57 +0000";
layers = (
{
anchors = (
{
name = bottom;
pos = (248,0);
},
{
name = top;
pos = (397,700);
}
);
guides = (
{
angle = 90;
pos = (495,501);
}
);
layerId = "45069982-2EFC-4B7D-8C53-1932E6EAC4CA";
shapes = (
{
closed = 1;
nodes = (
(42,0,o),
(87,0,o),
(133,0,cs),
(181,0,o),
(224,0,o),
(290,-2,c),
(294,8,o),
(298,25,o),
(298,35,c),
(206,35,l),
(212,103,o),
(223,161,o),
(233,210,cs),
(293,490,ls),
(307,557,o),
(319,599,o),
(339,660,c),
(404,660,ls),
(489,660,o),
(527,622,o),
(527,540,cs),
(527,416,o),
(451,340,o),
(356,340,cs),
(206,340,l),
(197,300,l),
(347,300,ls),
(515,300,o),
(652,399,o),
(652,538,cs),
(652,657,o),
(554,700,o),
(422,700,cs),
(282,700,ls),
(236,700,o),
(191,700,o),
(146,702,c),
(142,692,o),
(138,675,o),
(138,665,c),
(210,665,l),
(203,595,o),
(194,541,o),
(183,490,cs),
(123,210,ls),
(112,159,o),
(96,95,o),
(76,35,c),
(4,35,l),
(0,25,o),
(-4,9,o),
(-4,-2,c)
);
}
);
userData = {
com.hugojourdan.ColorFlow = {
"0" = 0;
"1" = 0;
"10" = 0;
"11" = 0;
"2" = 0;
"3" = 0;
"4" = 0;
"5" = 0;
"6" = 0;
"7" = 0;
"8" = 0;
"9" = 0;
};
};
width = 621;
},
{
anchors = (
{
name = bottom;
pos = (259,0);
},
{
name = top;
pos = (408,700);
}
);
layerId = "503E420B-61F7-4277-A1BE-A8852071B452";
shapes = (
{
closed = 1;
nodes = (
(38,0,o),
(98,0,o),
(144,0,cs),
(190,0,o),
(250,0,o),
(326,-2,c),
(330,8,o),
(334,25,o),
(334,35,c),
(237,35,l),
(244,117,o),
(255,166,o),
(264,210,cs),
(324,490,ls),
(338,554,o),
(347,589,o),
(370,660,c),
(412,660,ls),
(441,660,o),
(513,660,o),
(513,537,cs),
(513,413,o),
(441,330,o),
(352,330,cs),
(222,330,l),
(213,290,l),
(363,290,ls),
(542,290,o),
(678,390,o),
(678,532,cs),
(678,653,o),
(579,700,o),
(450,700,cs),
(293,700,ls),
(247,700,o),
(187,700,o),
(142,702,c),
(138,692,o),
(134,675,o),
(134,665,c),
(201,665,l),
(196,606,o),
(186,545,o),
(174,490,cs),
(114,210,ls),
(101,150,o),
(86,97,o),
(67,35,c),
(0,35,l),
(-4,25,o),
(-8,9,o),
(-8,-2,c)
);
}
);
userData = {
com.hugojourdan.ColorFlow = {
"0" = 0;
"1" = 0;
"10" = 0;
"11" = 0;
"2" = 0;
"3" = 0;
"4" = 0;
"5" = 0;
"6" = 0;
"7" = 0;
"8" = 0;
"9" = 0;
};
};
width = 645;
}
);
unicode = 80;
},
{
color = 3;
glyphname = Thorn;
kernLeft = H;
lastChange = "2023-03-10 14:52:57 +0000";
layers = (
{
layerId = "45069982-2EFC-4B7D-8C53-1932E6EAC4CA";
shapes = (
{
closed = 1;
nodes = (
(294,560,l),
(286,520,l),
(406,520,l),
(490,520,o),
(529,473,o),
(529,395,cs),
(529,286,o),
(453,200,o),
(358,200,cs),
(193,200,l),
(184,160,l),
(339,160,ls),
(511,160,o),
(644,260,o),
(644,394,cs),
(644,507,o),
(552,560,o),
(424,560,c)
);
},
{
ref = I;
}
);
userData = {
com.hugojourdan.ColorFlow = {
"0" = 0;
"1" = 0;
"10" = 0;
"11" = 0;
"2" = 0;
"3" = 0;
"4" = 0;
"5" = 0;
"6" = 0;
"7" = 0;
"8" = 0;
"9" = 0;
};
};
width = 654;
},
{
layerId = "503E420B-61F7-4277-A1BE-A8852071B452";
shapes = (
{
closed = 1;
nodes = (
(326,570,l),
(318,530,l),
(388,530,l),
(481,530,o),
(518,490,o),
(518,396,cs),
(518,271,o),
(444,180,o),
(354,180,cs),
(239,180,l),
(230,140,l),
(365,140,ls),
(544,140,o),
(678,247,o),
(678,394,cs),
(678,516,o),
(583,570,o),
(436,570,c)
);
},
{
ref = I;
}
);
userData = {
com.hugojourdan.ColorFlow = {
"0" = 0;
"1" = 0;
"10" = 0;
"11" = 0;
"2" = 0;
"3" = 0;
"4" = 0;
"5" = 0;
"6" = 0;
"7" = 0;
"8" = 0;
"9" = 0;
};
};
width = 687;
}
);
unicode = 222;
},
{
color = 3;
glyphname = Q;
kernLeft = O;
kernRight = O;
lastChange = "2023-03-10 14:52:57 +0000";
layers = (
{
anchors = (
{
name = bottom;
pos = (397,0);
},
{
name = top;
pos = (397,700);
}
);
layerId = "45069982-2EFC-4B7D-8C53-1932E6EAC4CA";
shapes = (
{
closed = 1;
nodes = (
(644,-114,o),
(628,-119,o),
(608,-119,cs),
(578,-119,o),
(558,-97,o),
(523,-54,cs),
(498,-23,o),
(473,-5,o),
(439,-5,c),
(312,-10,l),
(361,-15,o),
(383,-25,o),
(429,-93,cs),
(460,-138,o),
(497,-169,o),
(568,-169,cs),
(632,-169,o),
(668,-141,o),
(692,-116,c),
(684,-107,o),
(674,-101,o),
(662,-96,c)
);
},
{
ref = O;
}
);
userData = {
com.hugojourdan.ColorFlow = {
"0" = 0;
"1" = 0;
"10" = 0;
"11" = 0;
"2" = 0;
"3" = 0;
"4" = 0;
"5" = 0;
"6" = 0;
"7" = 0;
"8" = 0;
"9" = 0;
};
};
width = 802;
},
{
anchors = (
{
name = bottom;
pos = (395,0);
},
{
name = top;
pos = (395,700);
}
);
layerId = "503E420B-61F7-4277-A1BE-A8852071B452";
shapes = (
{
closed = 1;
nodes = (
(648,-123,o),
(635,-129,o),
(618,-129,c),
(584,-129,o),
(568,-97,o),
(543,-54,cs),
(523,-20,o),
(485,0,o),
(469,0,c),
(312,-10,l),
(353,-15,o),
(361,-23,o),
(409,-100,c),
(445,-159,o),
(500,-179,o),
(568,-179,c),
(631,-179,o),
(663,-167,o),
(692,-132,c),
(683,-121,o),
(674,-113,o),
(663,-106,c)
);
},
{
ref = O;
}
);
userData = {
com.hugojourdan.ColorFlow = {
"0" = 0;
"1" = 0;
"10" = 0;
"11" = 0;
"2" = 0;
"3" = 0;
"4" = 0;
"5" = 0;
"6" = 0;
"7" = 0;
"8" = 0;
"9" = 0;
};
};
width = 822;
},
{
associatedMasterId = "503E420B-61F7-4277-A1BE-A8852071B452";
layerId = "F81ACBFB-DEDA-431D-9BCF-7F77814E8A96";
name = "Nov 4 20, 15:48";
shapes = (
{
closed = 1;
nodes = (
(734,572,o),
(598,714,o),
(378,714,cs),
(158,714,o),
(22,572,o),
(22,350,cs),
(22,134,o),
(151,-6,o),
(360,-14,c),
(378,-27,o),
(392,-48,o),
(404,-68,cs),
(429,-109,o),
(459,-152,o),
(506,-152,cs),
(604,-152,ls),
(639,-152,o),
(674,-141,o),
(702,-120,c),
(683,-94,l),
(670,-111,o),
(650,-120,o),
(629,-120,cs),
(583,-120,o),
(557,-75,o),
(524,-45,cs),
(505,-27,o),
(482,-15,o),
(458,-7,c),
(631,24,o),
(734,157,o),
(734,350,cs)
);
},
{
closed = 1;
nodes = (
(576,187,o),
(520,18,o),
(378,18,cs),
(236,18,o),
(180,187,o),
(180,350,cs),
(180,513,o),
(236,682,o),
(378,682,cs),
(520,682,o),
(576,513,o),
(576,350,cs)
);
}
);
width = 770;
},
{
associatedMasterId = "45069982-2EFC-4B7D-8C53-1932E6EAC4CA";
layerId = "25D2AB3A-8A66-40AC-A1B7-5FD9B2BFBA3D";
name = "Nov 4 20, 15:48";
shapes = (
{
closed = 1;
nodes = (
(702,568,o),
(577,714,o),
(364,714,cs),
(151,714,o),
(26,568,o),
(26,350,cs),
(26,137,o),
(145,-6,o),
(348,-14,c),
(365,-27,o),
(378,-47,o),
(389,-67,cs),
(412,-107,o),
(441,-148,o),
(486,-148,cs),
(580,-148,ls),
(613,-148,o),
(646,-138,o),
(674,-120,c),
(659,-97,l),
(644,-112,o),
(624,-120,o),
(603,-120,cs),
(560,-120,o),
(534,-78,o),
(502,-48,cs),
(482,-30,o),
(459,-16,o),
(434,-8,c),
(604,20,o),
(702,157,o),
(702,350,cs)
);
},
{
closed = 1;
nodes = (
(584,182,o),
(512,14,o),
(364,14,cs),
(216,14,o),
(144,182,o),
(144,350,cs),
(144,518,o),
(216,686,o),
(364,686,cs),
(512,686,o),
(584,518,o),
(584,350,cs)
);
}
);
width = 790;
}
);
unicode = 81;
},
{
color = 6;
glyphname = R;
kernLeft = H;
kernRight = R;
lastChange = "2023-03-10 14:52:57 +0000";
layers = (
{
anchors = (
{
name = bottom;
pos = (357,0);
},
{
name = top;
pos = (437,700);
}
);
layerId = "45069982-2EFC-4B7D-8C53-1932E6EAC4CA";
shapes = (
{
closed = 1;
nodes = (
(584,39,o),
(568,50,o),
(568,107,cs),
(567,243,ls),
(567,298,o),
(529,341,o),
(451,346,c),
(583,369,o),
(668,450,o),
(668,548,cs),
(668,658,o),
(569,700,o),
(437,700,cs),
(282,700,ls),
(236,700,o),
(191,700,o),
(146,702,c),
(142,692,o),
(138,675,o),
(138,665,c),
(210,665,l),
(203,595,o),
(194,541,o),
(183,490,cs),
(123,210,ls),
(112,159,o),
(96,95,o),
(76,35,c),
(4,35,l),
(0,25,o),
(-4,9,o),
(-4,-2,c),
(42,0,o),
(87,0,o),
(133,0,cs),
(180,0,o),
(224,0,o),
(270,-2,c),
(274,8,o),
(278,25,o),
(278,35,c),
(206,35,l),
(212,103,o),
(223,161,o),
(233,210,cs),
(293,490,ls),
(307,557,o),
(319,599,o),
(339,660,c),
(419,660,ls),
(505,660,o),
(543,621,o),
(543,547,cs),
(543,448,o),
(468,360,o),
(375,360,cs),
(210,360,l),
(201,320,l),
(353,320,ls),
(421,320,o),
(457,292,o),
(457,233,cs),
(457,107,ls),
(457,33,o),
(476,-10,o),
(544,-10,cs),
(568,-10,o),
(606,-7,o),
(634,0,c),
(639,12,o),
(641,24,o),
(642,35,c)
);
}
);
userData = {
com.hugojourdan.ColorFlow = {
"0" = 0;
"1" = 0;
"10" = 0;
"11" = 0;
"2" = 0;
"3" = 0;
"4" = 0;
"5" = 0;
"6" = 0;
"7" = 0;
"8" = 0;
"9" = 0;
};
};
width = 694;
},
{
anchors = (
{
name = bottom;
pos = (373,0);
},
{
name = top;
pos = (452,700);
}
);
layerId = "503E420B-61F7-4277-A1BE-A8852071B452";
shapes = (
{
closed = 1;
nodes = (
(605,40,o),
(597,56,o),
(595,107,cs),
(590,238,ls),
(587,308,o),
(562,343,o),
(475,349,c),
(591,375,o),
(687,432,o),
(687,550,cs),
(687,662,o),
(584,700,o),
(455,700,cs),
(293,700,ls),
(247,700,o),
(187,700,o),
(142,702,c),
(138,692,o),
(134,675,o),
(134,665,c),
(201,665,l),
(196,610,o),
(188,557,o),
(174,490,cs),
(114,210,ls),
(101,150,o),
(86,93,o),
(67,35,c),
(0,35,l),
(-4,25,o),
(-8,9,o),
(-8,-2,c),
(38,0,o),
(98,0,o),
(144,0,cs),
(190,0,o),
(250,0,o),
(296,-2,c),
(300,8,o),
(304,25,o),
(304,35,c),
(237,35,l),
(243,104,o),
(252,156,o),
(264,210,cs),
(324,490,ls),
(338,557,o),
(350,599,o),
(370,660,c),
(417,660,ls),
(482,660,o),
(522,628,o),
(522,551,cs),
(522,450,o),
(450,360,o),
(363,360,cs),
(228,360,l),
(219,320,l),
(352,320,ls),
(424,320,o),
(441,286,o),
(442,238,cs),
(446,107,ls),
(448,29,o),
(473,-10,o),
(555,-10,cs),
(592,-10,o),
(617,-7,o),
(649,0,c),
(654,12,o),
(656,24,o),
(657,35,c)
);
}
);
userData = {
com.hugojourdan.ColorFlow = {
"0" = 0;
"1" = 0;
"10" = 0;
"11" = 0;
"2" = 0;
"3" = 0;
"4" = 0;
"5" = 0;
"6" = 0;
"7" = 0;
"8" = 0;
"9" = 0;
};
};
width = 717;
}
);
unicode = 82;
},
{
color = 6;
glyphname = S;
kernLeft = S;
kernRight = S;
lastChange = "2023-03-10 14:52:57 +0000";
layers = (
{
anchors = (
{
name = bottom;
pos = (267,0);
},
{
name = top;
pos = (385,700);
}
);
layerId = "45069982-2EFC-4B7D-8C53-1932E6EAC4CA";
shapes = (
{
closed = 1;
nodes = (
(433,-14,o),
(533,77,o),
(533,201,cs),
(533,427,o),
(226,391,o),
(226,550,cs),
(226,619,o),
(280,674,o),
(374,674,cs),
(467,674,o),
(520,605,o),
(510,510,c),
(521,508,o),
(531,508,o),
(542,510,c),
(575,667,l),
(531,695,o),
(472,714,o),
(380,714,cs),
(234,714,o),
(130,632,o),
(130,510,cs),
(130,296,o),
(426,344,o),
(426,168,cs),
(426,95,o),
(385,26,o),
(256,26,cs),
(157,26,o),
(89,107,o),
(102,215,c),
(90,217,o),
(82,217,o),
(70,215,c),
(32,35,l),
(86,4,o),
(165,-14,o),
(247,-14,cs)
);
}
);
userData = {
com.hugojourdan.ColorFlow = {
"0" = 0;
"1" = 0;
"10" = 0;
"11" = 0;
"2" = 0;
"3" = 0;
"4" = 0;
"5" = 0;
"6" = 0;
"7" = 0;
"8" = 0;
"9" = 0;
};
};
width = 578;
},
{
anchors = (
{
name = bottom;
pos = (264,0);
},
{
name = top;
pos = (398,700);
}
);
layerId = "503E420B-61F7-4277-A1BE-A8852071B452";
shapes = (
{
closed = 1;
nodes = (
(442,-14,o),
(561,79,o),
(561,224,cs),
(561,456,o),
(254,404,o),
(254,554,cs),
(254,622,o),
(317,674,o),
(404,674,cs),
(505,674,o),
(542,605,o),
(533,490,c),
(544,488,o),
(554,488,o),
(565,490,c),
(604,672,l),
(559,698,o),
(492,714,o),
(414,714,cs),
(227,714,o),
(124,623,o),
(124,498,cs),
(124,270,o),
(420,322,o),
(420,156,cs),
(420,79,o),
(356,26,o),
(254,26,cs),
(152,26,o),
(87,105,o),
(98,225,c),
(87,227,o),
(77,227,o),
(66,225,c),
(24,29,l),
(78,1,o),
(152,-14,o),
(245,-14,cs)
);
}
);
userData = {
com.hugojourdan.ColorFlow = {
"0" = 0;
"1" = 0;
"10" = 0;
"11" = 0;
"2" = 0;
"3" = 0;
"4" = 0;
"5" = 0;
"6" = 0;
"7" = 0;
"8" = 0;
"9" = 0;
};
};
width = 608;
},
{
associatedMasterId = "45069982-2EFC-4B7D-8C53-1932E6EAC4CA";
backgroundImage = {
imagePath = "../../../../aniawielunska/Downloads/19281931_Potawski_Antykwa-poster.png";
pos = (-6504,-14);
scale = (6.853,6.853);
};
layerId = "617EB975-BAF0-42FC-8D61-99EFBB3B238D";
name = "Nov 3 20, 23:48";
shapes = (
{
closed = 1;
nodes = (
(528,462,o),
(160,380,o),
(160,567,cs),
(160,643,o),
(223,674,o),
(286,674,cs),
(375,674,o),
(440,612,o),
(440,515,c),
(451,513,o),
(461,513,o),
(472,515,c),
(472,672,l),
(418,702,o),
(357,714,o),
(301,714,cs),
(165,714,o),
(76,642,o),
(76,521,cs),
(76,274,o),
(431,341,o),
(431,149,cs),
(431,70,o),
(369,26,o),
(289,26,cs),
(182,26,o),
(90,109,o),
(90,215,c),
(79,217,o),
(69,217,o),
(58,215,c),
(58,35,l),
(120,3,o),
(199,-14,o),
(268,-14,cs),
(425,-14,o),
(528,72,o),
(528,202,cs)
);
}
);
width = 600;
}
);
unicode = 83;
},
{
color = 6;
glyphname = Germandbls;
kernLeft = H;
lastChange = "2023-03-10 14:52:57 +0000";
layers = (
{
layerId = "45069982-2EFC-4B7D-8C53-1932E6EAC4CA";
shapes = (
{
closed = 1;
nodes = (
(42,0,o),
(87,0,o),
(133,0,c),
(198,0,l),
(214,111,o),
(221,155,o),
(233,210,cs),
(293,490,ls),
(307,557,o),
(319,599,o),
(339,660,c),
(719,660,l),
(721,673,o),
(724,687,o),
(727,700,c),
(282,700,ls),
(236,700,o),
(191,700,o),
(146,702,c),
(142,692,o),
(138,675,o),
(138,665,c),
(210,665,l),
(203,595,o),
(194,541,o),
(183,490,cs),
(123,210,ls),
(112,159,o),
(96,95,o),
(76,35,c),
(4,35,l),
(0,25,o),
(-4,9,o),
(-4,-2,c)
);
},
{
closed = 1;
nodes = (
(592,-14,o),
(702,74,o),
(702,182,cs),
(702,319,o),
(557,380,o),
(557,477,cs),
(557,552,o),
(601,615,o),
(719,660,c),
(723,681,l),
(565,647,o),
(457,570,o),
(457,451,cs),
(457,330,o),
(594,281,o),
(594,169,cs),
(594,84,o),
(533,26,o),
(443,26,c),
(358,26,o),
(320,101,o),
(329,169,c),
(317,171,o),
(309,171,o),
(297,169,c),
(268,29,l),
(322,-2,o),
(373,-14,o),
(453,-14,c)
);
}
);
userData = {
com.hugojourdan.ColorFlow = {
"0" = 0;
"1" = 0;
"10" = 0;
"11" = 0;
"2" = 0;
"3" = 0;
"4" = 0;
"5" = 0;
"6" = 0;
"7" = 0;
"8" = 0;
"9" = 0;
};
};
width = 742;
},
{
layerId = "503E420B-61F7-4277-A1BE-A8852071B452";
shapes = (
{
closed = 1;
nodes = (
(38,0,o),
(98,0,o),
(144,0,cs),
(229,0,l),
(247,128,o),
(254,161,o),
(264,210,cs),
(324,490,ls),
(338,557,o),
(350,599,o),
(370,660,c),
(752,660,l),
(757,675,o),
(759,686,o),
(760,700,c),
(293,700,ls),
(247,700,o),
(187,700,o),
(142,702,c),
(138,692,o),
(134,675,o),
(134,665,c),
(201,665,l),
(196,610,o),
(188,557,o),
(174,490,cs),
(114,210,ls),
(101,150,o),
(86,93,o),
(67,35,c),
(0,35,l),
(-4,25,o),
(-8,9,o),
(-8,-2,c)
);
},
{
closed = 1;
nodes = (
(616,-14,o),
(739,58,o),
(739,188,cs),
(739,317,o),
(595,389,o),
(595,492,cs),
(595,581,o),
(663,628,o),
(752,660,c),
(757,683,l),
(567,646,o),
(446,564,o),
(446,440,cs),
(446,317,o),
(585,261,o),
(585,158,cs),
(585,82,o),
(543,26,o),
(471,26,c),
(391,26,o),
(351,84,o),
(359,175,c),
(348,177,o),
(338,177,o),
(327,175,c),
(293,19,l),
(348,-4,o),
(396,-14,o),
(481,-14,c)
);
}
);
userData = {
com.hugojourdan.ColorFlow = {
"0" = 0;
"1" = 0;
"10" = 0;
"11" = 0;
"2" = 0;
"3" = 0;
"4" = 0;
"5" = 0;
"6" = 0;
"7" = 0;
"8" = 0;
"9" = 0;
};
};
width = 776;
}
);
unicode = 7838;
},
{
color = 6;
glyphname = T;
kernLeft = T;
kernRight = T;
lastChange = "2023-03-10 14:52:57 +0000";
layers = (
{
anchors = (
{
name = bottom;
pos = (280,0);
},
{
name = center;
pos = (353,350);
},
{
name = top;
pos = (427,700);
}
);
layerId = "45069982-2EFC-4B7D-8C53-1932E6EAC4CA";
shapes = (
{
closed = 1;
nodes = (
(187,0,o),
(232,0,o),
(278,0,cs),
(324,0,o),
(369,0,o),
(415,-2,c),
(419,8,o),
(422,27,o),
(423,35,c),
(351,35,l),
(356,95,o),
(367,159,o),
(378,210,cs),
(437,490,ls),
(450,550,o),
(460,591,o),
(483,660,c),
(541,660,ls),
(631,660,o),
(663,624,o),
(647,498,c),
(657,496,o),
(667,496,o),
(679,498,c),
(722,700,l),
(132,700,l),
(89,498,l),
(100,496,o),
(110,496,o),
(121,498,c),
(161,633,o),
(213,660,o),
(295,660,cs),
(353,660,l),
(348,600,o),
(338,543,o),
(327,490,cs),
(268,210,ls),
(255,150,o),
(243,104,o),
(221,35,c),
(149,35,l),
(144,25,o),
(141,8,o),
(141,-2,c)
);
}
);
userData = {
com.hugojourdan.ColorFlow = {
"0" = 0;
"1" = 0;
"10" = 0;
"11" = 0;
"2" = 0;
"3" = 0;
"4" = 0;
"5" = 0;
"6" = 0;
"7" = 0;
"8" = 0;
"9" = 0;
};
};
width = 650;
},
{
anchors = (
{
name = bottom;
pos = (289,0);
},
{
name = center;
pos = (353,350);
},
{
name = top;
pos = (428,700);
}
);
layerId = "503E420B-61F7-4277-A1BE-A8852071B452";
shapes = (
{
closed = 1;
nodes = (
(173,0,o),
(233,0,o),
(279,0,cs),
(325,0,o),
(385,0,o),
(431,-2,c),
(435,9,o),
(438,26,o),
(438,35,c),
(371,35,l),
(376,90,o),
(387,152,o),
(399,210,cs),
(458,490,ls),
(471,550,o),
(481,592,o),
(504,660,c),
(537,660,ls),
(633,660,o),
(669,598,o),
(649,480,c),
(660,478,o),
(670,478,o),
(681,480,c),
(728,700,l),
(128,700,l),
(81,480,l),
(92,478,o),
(102,478,o),
(113,480,c),
(144,602,o),
(209,660,o),
(301,660,cs),
(334,660,l),
(327,585,o),
(318,539,o),
(308,490,cs),
(249,210,ls),
(237,153,o),
(222,96,o),
(201,35,c),
(134,35,l),
(130,24,o),
(127,7,o),
(127,-2,c)
);
}
);
userData = {
com.hugojourdan.ColorFlow = {
"0" = 0;
"1" = 0;
"10" = 0;
"11" = 0;
"2" = 0;
"3" = 0;
"4" = 0;
"5" = 0;
"6" = 0;
"7" = 0;
"8" = 0;
"9" = 0;
};
};
width = 656;
}
);
unicode = 84;
},
{
color = 3;
glyphname = Tbar;
kernLeft = T;
kernRight = T;
lastChange = "2023-03-10 14:52:57 +0000";
layers = (
{
layerId = "45069982-2EFC-4B7D-8C53-1932E6EAC4CA";
shapes = (
{
closed = 1;
nodes = (
(556,367,o),
(560,383,o),
(560,400,c),
(180,400,l),
(174,383,o),
(170,367,o),
(170,350,c),
(550,350,l)
);
},
{
ref = T;
}
);
userData = {
com.hugojourdan.ColorFlow = {
"0" = 0;
"1" = 0;
"10" = 0;
"11" = 0;
"2" = 0;
"3" = 0;
"4" = 0;
"5" = 0;
"6" = 0;
"7" = 0;
"8" = 0;
"9" = 0;
};
};
width = 652;
},
{
layerId = "503E420B-61F7-4277-A1BE-A8852071B452";
shapes = (
{
closed = 1;
nodes = (
(570,367,o),
(574,383,o),
(574,400,c),
(154,400,l),
(148,383,o),
(144,367,o),
(144,350,c),
(564,350,l)
);
},
{
ref = T;
}
);
userData = {
com.hugojourdan.ColorFlow = {
"0" = 0;
"1" = 0;
"10" = 0;
"11" = 0;
"2" = 0;
"3" = 0;
"4" = 0;
"5" = 0;
"6" = 0;
"7" = 0;
"8" = 0;
"9" = 0;
};
};
width = 659;
}
);
unicode = 358;
},
{
color = 6;
glyphname = U;
kernLeft = U;
kernRight = U;
lastChange = "2023-03-10 14:52:57 +0000";
layers = (
{
anchors = (
{
name = bottom;
pos = (318,0);
},
{
name = ogonek;
pos = (436,0);
},
{
name = top;
pos = (497,700);
},
{
name = topright;
pos = (782,700);
}
);
layerId = "45069982-2EFC-4B7D-8C53-1932E6EAC4CA";
shapes = (
{
closed = 1;
nodes = (
(489,-15,o),
(593,68,o),
(622,205,cs),
(683,490,ls),
(697,557,o),
(709,594,o),
(735,665,c),
(802,665,l),
(806,675,o),
(810,693,o),
(810,702,c),
(763,700,o),
(728,700,o),
(705,700,cs),
(679,700,o),
(634,700,o),
(589,702,c),
(585,693,o),
(581,676,o),
(581,665,c),
(658,665,l),
(654,595,o),
(648,549,o),
(636,490,cs),
(578,219,ls),
(553,104,o),
(478,32,o),
(360,32,cs),
(249,32,o),
(196,84,o),
(227,230,cs),
(283,490,ls),
(297,556,o),
(310,604,o),
(330,665,c),
(402,665,l),
(406,675,o),
(410,693,o),
(410,702,c),
(363,700,o),
(318,700,o),
(272,700,cs),
(227,700,o),
(181,700,o),
(136,702,c),
(132,693,o),
(128,676,o),
(128,665,c),
(200,665,l),
(192,584,o),
(183,539,o),
(173,490,cs),
(112,205,ls),
(80,56,o),
(149,-15,o),
(341,-15,cs)
);
}
);
userData = {
com.hugojourdan.ColorFlow = {
"0" = 0;
"1" = 0;
"10" = 0;
"11" = 0;
"2" = 0;
"3" = 0;
"4" = 0;
"5" = 0;
"6" = 0;
"7" = 0;
"8" = 0;
"9" = 0;
};
};
width = 738;
},
{
anchors = (
{
name = bottom;
pos = (321,0);
},
{
name = ogonek;
pos = (447,0);
},
{
name = top;
pos = (509,700);
},
{
name = topright;
pos = (819,700);
}
);
layerId = "503E420B-61F7-4277-A1BE-A8852071B452";
shapes = (
{
closed = 1;
nodes = (
(498,-15,o),
(602,68,o),
(631,205,cs),
(692,490,ls),
(703,541,o),
(714,585,o),
(744,665,c),
(811,665,l),
(815,675,o),
(819,692,o),
(819,702,c),
(772,700,o),
(737,700,o),
(714,700,cs),
(688,700,o),
(643,700,o),
(588,702,c),
(584,692,o),
(580,675,o),
(580,665,c),
(667,665,l),
(662,576,o),
(655,539,o),
(645,490,cs),
(588,221,ls),
(563,102,o),
(483,32,o),
(375,32,cs),
(258,32,o),
(227,96,o),
(258,241,cs),
(312,490,ls),
(325,550,o),
(340,608,o),
(359,665,c),
(426,665,l),
(430,675,o),
(434,692,o),
(434,702,c),
(387,700,o),
(328,700,o),
(281,700,cs),
(235,700,o),
(175,700,o),
(130,702,c),
(126,692,o),
(122,675,o),
(122,665,c),
(189,665,l),
(184,610,o),
(176,557,o),
(162,490,cs),
(99,195,ls),
(69,55,o),
(160,-15,o),
(350,-15,cs)
);
}
);
userData = {
com.hugojourdan.ColorFlow = {
"0" = 0;
"1" = 0;
"10" = 0;
"11" = 0;
"2" = 0;
"3" = 0;
"4" = 0;
"5" = 0;
"6" = 0;
"7" = 0;
"8" = 0;
"9" = 0;
};
};
width = 742;
},
{
associatedMasterId = "45069982-2EFC-4B7D-8C53-1932E6EAC4CA";
layerId = "CE54C865-E245-4CEE-945E-12AEB145065C";
name = "Nov 3 20, 00:22";
shapes = (
{
closed = 1;
nodes = (
(647,672,l),
(647,700,l),
(463,700,l),
(463,672,l),
(529,672,l),
(537,626,o),
(541,579,o),
(541,532,cs),
(541,168,ls),
(541,55,o),
(478,16,o),
(358,16,cs),
(272,16,o),
(201,83,o),
(201,168,cs),
(201,532,ls),
(201,579,o),
(205,626,o),
(213,672,c),
(279,672,l),
(279,700,l),
(13,700,l),
(13,672,l),
(79,672,l),
(87,626,o),
(91,579,o),
(91,532,cs),
(91,168,ls),
(91,44,o),
(194,-12,o),
(330,-12,cs),
(483,-12,o),
(569,28,o),
(569,168,cs),
(569,532,ls),
(569,579,o),
(573,626,o),
(581,672,c)
);
}
);
width = 720;
},
{
associatedMasterId = "503E420B-61F7-4277-A1BE-A8852071B452";
layerId = "5BBE3528-29B5-417F-AFB0-AB69CC0B49AB";
name = "Nov 3 20, 00:22";
shapes = (
{
closed = 1;
nodes = (
(655,668,l),
(655,700,l),
(467,700,l),
(467,668,l),
(533,668,l),
(541,622,o),
(545,575,o),
(545,528,cs),
(545,172,ls),
(545,62,o),
(486,20,o),
(371,20,cs),
(294,20,o),
(239,92,o),
(239,172,cs),
(239,528,ls),
(239,575,o),
(243,622,o),
(251,668,c),
(317,668,l),
(317,700,l),
(11,700,l),
(11,668,l),
(77,668,l),
(85,622,o),
(89,575,o),
(89,528,cs),
(89,172,ls),
(89,45,o),
(194,-12,o),
(333,-12,cs),
(489,-12,o),
(577,29,o),
(577,172,cs),
(577,528,ls),
(577,575,o),
(581,622,o),
(589,668,c)
);
}
);
width = 600;
}
);
unicode = 85;
},
{
color = 3;
glyphname = Uhorn;
kernLeft = U;
kernRight = U;
lastChange = "2023-03-10 14:52:57 +0000";
layers = (
{
anchors = (
{
name = bottom;
pos = (318,0);
},
{
name = ogonek;
pos = (436,0);
},
{
name = top;
pos = (497,700);
},
{
name = topright;
pos = (782,700);
}
);
guides = (
{
pos = (742,657);
}
);
layerId = "45069982-2EFC-4B7D-8C53-1932E6EAC4CA";
shapes = (
{
closed = 1;
nodes = (
(767,700,l),
(740,700,o),
(720,700,o),
(705,700,cs),
(679,700,o),
(634,700,o),
(589,702,c),
(585,693,o),
(581,676,o),
(581,665,c),
(658,665,l),
(654,595,o),
(649,549,o),
(636,490,cs),
(578,219,ls),
(553,104,o),
(478,32,o),
(360,32,cs),
(249,32,o),
(196,84,o),
(227,230,cs),
(283,490,ls),
(297,556,o),
(310,604,o),
(330,665,c),
(402,665,l),
(406,675,o),
(410,693,o),
(410,702,c),
(363,700,o),
(318,700,o),
(272,700,cs),
(227,700,o),
(181,700,o),
(136,702,c),
(132,693,o),
(128,676,o),
(128,665,c),
(200,665,l),
(192,584,o),
(183,539,o),
(173,490,cs),
(112,205,ls),
(80,56,o),
(149,-15,o),
(341,-15,cs),
(489,-15,o),
(593,68,o),
(622,205,cs),
(683,490,ls),
(697,554,o),
(708,591,o),
(732,657,c),
(764,657,l)
);
},
{
pos = (665,0);
ref = horncomb.case;
}
);
userData = {
com.hugojourdan.ColorFlow = {
"0" = 0;
"1" = 0;
"10" = 0;
"11" = 0;
"2" = 0;
"3" = 0;
"4" = 0;
"5" = 0;
"6" = 0;
"7" = 0;
"8" = 0;
"9" = 0;
};
};
width = 738;
},
{
anchors = (
{
name = bottom;
pos = (321,0);
},
{
name = ogonek;
pos = (447,0);
},
{
name = top;
pos = (509,700);
},
{
name = topright;
pos = (819,700);
}
);
guides = (
{
pos = (759,657);
}
);
layerId = "503E420B-61F7-4277-A1BE-A8852071B452";
shapes = (
{
closed = 1;
nodes = (
(804,700,l),
(763,700,o),
(734,700,o),
(714,700,cs),
(688,700,o),
(643,700,o),
(588,702,c),
(584,692,o),
(580,675,o),
(580,665,c),
(667,665,l),
(662,576,o),
(655,539,o),
(645,490,cs),
(588,221,ls),
(563,102,o),
(483,32,o),
(375,32,cs),
(258,32,o),
(227,96,o),
(258,241,cs),
(312,490,ls),
(325,550,o),
(340,608,o),
(359,665,c),
(426,665,l),
(430,675,o),
(434,692,o),
(434,702,c),
(387,700,o),
(328,700,o),
(281,700,cs),
(235,700,o),
(175,700,o),
(130,702,c),
(126,692,o),
(122,675,o),
(122,665,c),
(189,665,l),
(184,610,o),
(176,557,o),
(162,490,cs),
(99,195,ls),
(69,55,o),
(160,-15,o),
(350,-15,cs),
(498,-15,o),
(602,68,o),
(631,205,cs),
(692,490,ls),
(703,539,o),
(713,582,o),
(741,657,c),
(801,657,l)
);
},
{
pos = (704,0);
ref = horncomb.case;
}
);
userData = {
com.hugojourdan.ColorFlow = {
"0" = 0;
"1" = 0;
"10" = 0;
"11" = 0;
"2" = 0;
"3" = 0;
"4" = 0;
"5" = 0;
"6" = 0;
"7" = 0;
"8" = 0;
"9" = 0;
};
};
width = 742;
}
);
unicode = 431;
},
{
color = 6;
glyphname = V;
lastChange = "2023-03-10 14:52:57 +0000";
layers = (
{
anchors = (
{
name = bottom;
pos = (269,0);
},
{
name = top;
pos = (417,700);
}
);
guides = (
{
angle = 110.9448;
pos = (189,490);
},
{
angle = 110.9448;
pos = (126,345);
}
);
layerId = "45069982-2EFC-4B7D-8C53-1932E6EAC4CA";
shapes = (
{
closed = 1;
nodes = (
(705,700,o),
(680,700,o),
(651,700,cs),
(628,700,o),
(583,700,o),
(529,702,c),
(525,692,o),
(521,676,o),
(521,665,c),
(602,665,l),
(583,597,o),
(559,550,o),
(527,490,cs),
(346,155,l),
(254,-20,l),
(272,-23,o),
(294,-23,o),
(314,-20,c),
(343,58,o),
(387,137,o),
(411,181,cs),
(579,490,ls),
(610,547,o),
(645,605,o),
(688,665,c),
(745,665,l),
(749,675,o),
(753,692,o),
(753,702,c)
);
},
{
closed = 1;
nodes = (
(159,598,o),
(169,548,o),
(179,490,cs),
(228,200,ls),
(238,141,o),
(259,48,o),
(254,-20,c),
(346,155,l),
(291,490,ls),
(281,551,o),
(276,605,o),
(276,665,c),
(345,665,l),
(349,675,o),
(353,692,o),
(353,702,c),
(307,700,o),
(257,700,o),
(211,700,cs),
(170,700,o),
(140,700,o),
(94,702,c),
(90,692,o),
(86,676,o),
(86,665,c),
(140,665,l)
);
}
);
userData = {
com.hugojourdan.ColorFlow = {
"0" = 0;
"1" = 0;
"10" = 0;
"11" = 0;
"2" = 0;
"3" = 0;
"4" = 0;
"5" = 0;
"6" = 0;
"7" = 0;
"8" = 0;
"9" = 0;
};
};
width = 653;
},
{
anchors = (
{
name = bottom;
pos = (275,0);
},
{
name = top;
pos = (423,700);
}
);
layerId = "503E420B-61F7-4277-A1BE-A8852071B452";
shapes = (
{
closed = 1;
nodes = (
(717,700,o),
(692,700,o),
(663,700,cs),
(640,700,o),
(585,700,o),
(531,702,c),
(527,694,o),
(523,672,o),
(523,665,c),
(614,665,l),
(595,593,o),
(569,540,o),
(542,490,cs),
(373,181,l),
(239,-20,l),
(257,-23,o),
(309,-23,o),
(329,-20,c),
(354,51,o),
(397,129,o),
(425,181,cs),
(594,490,ls),
(624,544,o),
(658,605,o),
(700,665,c),
(757,665,l),
(761,675,o),
(765,692,o),
(765,702,c)
);
},
{
closed = 1;
nodes = (
(147,609,o),
(154,563,o),
(166,490,cs),
(214,200,ls),
(227,121,o),
(241,49,o),
(239,-20,c),
(373,181,l),
(324,490,ls),
(314,552,o),
(306,606,o),
(308,665,c),
(374,665,l),
(378,675,o),
(382,692,o),
(382,702,c),
(336,700,o),
(290,700,o),
(224,700,cs),
(158,700,o),
(138,700,o),
(92,702,c),
(88,692,o),
(84,677,o),
(84,665,c),
(126,665,l)
);
}
);
userData = {
com.hugojourdan.ColorFlow = {
"0" = 0;
"1" = 0;
"10" = 0;
"11" = 0;
"2" = 0;
"3" = 0;
"4" = 0;
"5" = 0;
"6" = 0;
"7" = 0;
"8" = 0;
"9" = 0;
};
};
width = 658;
}
);
unicode = 86;
},
{
color = 6;
glyphname = W;
kernLeft = W;
kernRight = W;
lastChange = "2023-03-10 14:52:57 +0000";
layers = (
{
anchors = (
{
name = bottom;
pos = (462,0);
},
{
name = top;
pos = (622,700);
}
);
layerId = "45069982-2EFC-4B7D-8C53-1932E6EAC4CA";
shapes = (
{
closed = 1;
nodes = (
(167,587,o),
(174,537,o),
(181,490,cs),
(223,200,ls),
(232,138,o),
(243,40,o),
(242,-20,c),
(341,169,l),
(296,490,ls),
(288,550,o),
(282,596,o),
(285,665,c),
(355,665,l),
(359,675,o),
(363,692,o),
(363,702,c),
(315,700,o),
(267,700,o),
(221,700,cs),
(178,700,o),
(149,700,o),
(101,702,c),
(97,692,o),
(93,676,o),
(93,665,c),
(146,665,l)
);
},
{
closed = 1;
nodes = (
(1082,700,o),
(1056,700,o),
(1031,700,cs),
(1001,700,o),
(956,700,o),
(899,702,c),
(895,692,o),
(891,677,o),
(891,665,c),
(975,665,l),
(953,588,o),
(928,539,o),
(902,490,cs),
(730,169,l),
(631,-20,l),
(652,-23,o),
(668,-23,o),
(689,-20,c),
(718,56,o),
(759,130,o),
(787,181,cs),
(956,490,ls),
(998,567,o),
(1021,605,o),
(1065,665,c),
(1124,665,l),
(1130,678,o),
(1132,695,o),
(1132,702,c)
);
},
{
closed = 1;
nodes = (
(558,601,o),
(561,551,o),
(570,490,cs),
(611,200,ls),
(624,107,o),
(631,49,o),
(631,-20,c),
(730,169,l),
(685,490,ls),
(677,546,o),
(672,608,o),
(673,665,c),
(745,665,l),
(750,679,o),
(751,694,o),
(753,702,c),
(704,700,o),
(656,700,o),
(611,700,cs),
(572,700,o),
(539,700,o),
(491,702,c),
(486,692,o),
(483,675,o),
(483,665,c),
(541,665,l)
);
},
{
closed = 1;
nodes = (
(564,563,l),
(341,169,l),
(242,-20,l),
(260,-23,o),
(279,-23,o),
(300,-20,c),
(326,48,o),
(368,126,o),
(399,181,cs),
(618,563,l)
);
}
);
userData = {
com.hugojourdan.ColorFlow = {
"0" = 0;
"1" = 0;
"10" = 0;
"11" = 0;
"2" = 0;
"3" = 0;
"4" = 0;
"5" = 0;
"6" = 0;
"7" = 0;
"8" = 0;
"9" = 0;
};
};
width = 1027;
},
{
anchors = (
{
name = bottom;
pos = (482,0);
},
{
name = top;
pos = (630,700);
}
);
layerId = "503E420B-61F7-4277-A1BE-A8852071B452";
shapes = (
{
closed = 1;
nodes = (
(140,622,o),
(155,560,o),
(166,490,cs),
(213,200,ls),
(224,132,o),
(237,56,o),
(233,-20,c),
(374,200,l),
(324,490,ls),
(314,546,o),
(307,603,o),
(309,665,c),
(376,665,l),
(380,675,o),
(384,691,o),
(384,702,c),
(338,700,o),
(292,700,o),
(231,700,cs),
(160,700,o),
(140,700,o),
(94,702,c),
(90,692,o),
(86,676,o),
(86,665,c),
(123,665,l)
);
},
{
closed = 1;
nodes = (
(1104,700,o),
(1079,700,o),
(1055,700,cs),
(1032,700,o),
(977,700,o),
(923,702,c),
(919,694,o),
(915,672,o),
(915,665,c),
(1001,665,l),
(984,593,o),
(952,536,o),
(927,490,cs),
(769,200,l),
(629,-20,l),
(649,-23,o),
(699,-23,o),
(719,-20,c),
(743,48,o),
(783,125,o),
(813,181,cs),
(979,490,ls),
(1000,529,o),
(1041,600,o),
(1087,665,c),
(1144,665,l),
(1148,675,o),
(1152,692,o),
(1152,702,c)
);
},
{
closed = 1;
nodes = (
(543,613,o),
(551,574,o),
(564,490,cs),
(609,200,ls),
(621,121,o),
(633,53,o),
(629,-20,c),
(769,200,l),
(722,490,ls),
(712,552,o),
(705,603,o),
(706,665,c),
(772,665,l),
(776,675,o),
(780,692,o),
(780,702,c),
(734,700,o),
(688,700,o),
(627,700,cs),
(556,700,o),
(536,700,o),
(490,702,c),
(486,692,o),
(482,676,o),
(482,665,c),
(528,665,l)
);
},
{
closed = 1;
nodes = (
(576,559,l),
(374,200,l),
(233,-20,l),
(253,-23,o),
(303,-23,o),
(323,-20,c),
(349,55,o),
(399,148,o),
(417,181,cs),
(628,559,l)
);
}
);
userData = {
com.hugojourdan.ColorFlow = {
"0" = 0;
"1" = 0;
"10" = 0;
"11" = 0;
"2" = 0;
"3" = 0;
"4" = 0;
"5" = 0;
"6" = 0;
"7" = 0;
"8" = 0;
"9" = 0;
};
};
width = 1043;
},
{
associatedMasterId = "503E420B-61F7-4277-A1BE-A8852071B452";
layerId = "D6BE94A4-0B32-4F72-BCB0-D63B2DF79324";
name = "Nov 3 20, 18:13";
shapes = (
{
closed = 1;
nodes = (
(1032,668,l),
(1032,700,l),
(897,700,l),
(897,668,l),
(935,668,l),
(927,620,o),
(915,574,o),
(899,528,cs),
(784,193,l),
(669,528,ls),
(654,574,o),
(642,620,o),
(633,668,c),
(672,668,l),
(672,700,l),
(412,700,l),
(412,668,l),
(451,668,l),
(470,631,o),
(487,592,o),
(502,553,c),
(494,528,l),
(379,193,l),
(264,528,ls),
(248,574,o),
(236,620,o),
(228,668,c),
(266,668,l),
(266,700,l),
(7,700,l),
(7,668,l),
(45,668,l),
(69,623,o),
(89,576,o),
(105,528,cs),
(228,172,ls),
(249,111,o),
(266,49,o),
(280,-14,c),
(354,-14,l),
(367,49,o),
(385,111,o),
(405,172,cs),
(519,503,l),
(633,172,ls),
(654,111,o),
(671,49,o),
(685,-14,c),
(759,-14,l),
(773,49,o),
(790,111,o),
(811,172,cs),
(933,528,ls),
(950,576,o),
(970,623,o),
(993,668,c)
);
}
);
width = 1034;
},
{
associatedMasterId = "45069982-2EFC-4B7D-8C53-1932E6EAC4CA";
layerId = "D29F2EC6-169B-4A0E-B7D7-EAB4EC064959";
name = "Nov 3 20, 18:13";
shapes = (
{
closed = 1;
nodes = (
(1001,672,l),
(1001,700,l),
(871,700,l),
(871,672,l),
(909,672,l),
(901,624,o),
(889,578,o),
(874,532,cs),
(744,147,l),
(614,532,ls),
(598,578,o),
(587,624,o),
(579,672,c),
(617,672,l),
(617,700,l),
(400,700,l),
(400,672,l),
(438,672,l),
(458,634,o),
(475,594,o),
(490,554,c),
(483,532,l),
(353,147,l),
(223,532,ls),
(207,578,o),
(196,624,o),
(188,672,c),
(226,672,l),
(226,700,l),
(9,700,l),
(9,672,l),
(47,672,l),
(71,627,o),
(90,580,o),
(107,532,cs),
(230,168,ls),
(250,108,o),
(266,48,o),
(279,-14,c),
(340,-14,l),
(353,48,o),
(369,108,o),
(389,168,cs),
(505,510,l),
(621,168,ls),
(641,108,o),
(657,48,o),
(670,-14,c),
(731,-14,l),
(744,48,o),
(760,108,o),
(780,168,cs),
(903,532,ls),
(920,580,o),
(940,627,o),
(963,672,c)
);
}
);
width = 1030;
}
);
unicode = 87;
},
{
color = 6;
glyphname = X;
lastChange = "2023-03-10 14:52:57 +0000";
layers = (
{
anchors = (
{
name = bottom;
pos = (307,0);
},
{
name = top;
pos = (456,700);
}
);
layerId = "45069982-2EFC-4B7D-8C53-1932E6EAC4CA";
shapes = (
{
closed = 1;
nodes = (
(587,35,l),
(556,93,o),
(527,153,o),
(501,212,cs),
(377,490,ls),
(351,549,o),
(326,604,o),
(313,665,c),
(382,665,l),
(386,675,o),
(390,693,o),
(390,702,c),
(345,700,o),
(298,700,o),
(248,700,cs),
(202,700,o),
(172,700,o),
(125,702,c),
(121,693,o),
(117,676,o),
(117,665,c),
(171,665,l),
(204,609,o),
(232,549,o),
(258,490,cs),
(383,212,ls),
(409,153,o),
(427,98,o),
(442,35,c),
(373,35,l),
(369,25,o),
(365,9,o),
(365,-2,c),
(409,0,o),
(464,0,o),
(509,0,cs),
(554,0,o),
(586,0,o),
(633,-2,c),
(637,8,o),
(641,24,o),
(641,35,c)
);
},
{
closed = 1;
nodes = (
(414,345,l),
(541,490,ls),
(606,564,o),
(646,604,o),
(707,665,c),
(762,665,l),
(766,675,o),
(770,693,o),
(770,702,c),
(721,700,o),
(697,700,o),
(673,700,cs),
(650,700,o),
(604,700,o),
(551,702,c),
(547,693,o),
(543,676,o),
(543,665,c),
(615,665,l),
(575,596,o),
(524,537,o),
(483,490,cs),
(355,345,l)
);
},
{
closed = 1;
nodes = (
(335,365,l),
(201,210,ls),
(149,150,o),
(111,110,o),
(36,35,c),
(-19,35,l),
(-23,25,o),
(-27,9,o),
(-27,-2,c),
(21,0,o),
(45,0,o),
(69,0,cs),
(92,0,o),
(146,0,o),
(200,-2,c),
(204,8,o),
(208,25,o),
(208,35,c),
(130,35,l),
(166,98,o),
(210,151,o),
(261,210,cs),
(396,365,l)
);
}
);
userData = {
com.hugojourdan.ColorFlow = {
"0" = 0;
"1" = 0;
"10" = 0;
"11" = 0;
"2" = 0;
"3" = 0;
"4" = 0;
"5" = 0;
"6" = 0;
"7" = 0;
"8" = 0;
"9" = 0;
};
};
width = 696;
},
{
anchors = (
{
name = bottom;
pos = (303,0);
},
{
name = top;
pos = (452,700);
}
);
layerId = "503E420B-61F7-4277-A1BE-A8852071B452";
shapes = (
{
closed = 1;
nodes = (
(595,35,l),
(564,82,o),
(544,132,o),
(512,210,cs),
(397,490,ls),
(372,550,o),
(350,602,o),
(338,665,c),
(407,665,l),
(411,675,o),
(415,693,o),
(415,702,c),
(369,700,o),
(315,700,o),
(253,700,cs),
(182,700,o),
(163,700,o),
(117,702,c),
(113,693,o),
(109,676,o),
(109,665,c),
(151,665,l),
(179,623,o),
(207,560,o),
(235,490,cs),
(349,210,ls),
(373,150,o),
(392,99,o),
(406,35,c),
(339,35,l),
(335,25,o),
(331,9,o),
(331,-2,c),
(376,0,o),
(420,0,o),
(491,0,cs),
(563,0,o),
(582,0,o),
(629,-2,c),
(633,8,o),
(637,24,o),
(637,35,c)
);
},
{
closed = 1;
nodes = (
(410,334,l),
(553,490,ls),
(590,530,o),
(663,605,o),
(725,665,c),
(782,665,l),
(786,677,o),
(789,688,o),
(790,702,c),
(741,700,o),
(716,700,o),
(692,700,cs),
(669,700,o),
(607,700,o),
(554,702,c),
(549,690,o),
(546,676,o),
(546,665,c),
(630,665,l),
(594,603,o),
(542,544,o),
(493,490,cs),
(351,334,l)
);
},
{
closed = 1;
nodes = (
(332,366,l),
(197,210,ls),
(153,159,o),
(101,103,o),
(36,35,c),
(-26,35,l),
(-31,21,o),
(-33,11,o),
(-34,-2,c),
(14,0,o),
(39,0,o),
(63,0,cs),
(86,0,o),
(148,0,o),
(202,-2,c),
(207,12,o),
(209,23,o),
(210,35,c),
(128,35,l),
(168,107,o),
(214,160,o),
(257,210,cs),
(391,366,l)
);
}
);
userData = {
com.hugojourdan.ColorFlow = {
"0" = 0;
"1" = 0;
"10" = 0;
"11" = 0;
"2" = 0;
"3" = 0;
"4" = 0;
"5" = 0;
"6" = 0;
"7" = 0;
"8" = 0;
"9" = 0;
};
};
width = 700;
},
{
associatedMasterId = "45069982-2EFC-4B7D-8C53-1932E6EAC4CA";
layerId = "083BF821-9E36-44C3-8C02-B9CEF5444806";
name = "Nov 3 20, 21:24";
shapes = (
{
closed = 1;
nodes = (
(647,0,l),
(647,28,l),
(581,28,l),
(549,73,o),
(519,120,o),
(492,168,cs),
(364,403,l),
(446,532,ls),
(478,581,o),
(511,627,o),
(548,672,c),
(614,672,l),
(614,700,l),
(425,700,l),
(425,672,l),
(491,672,l),
(468,624,o),
(442,577,o),
(413,532,cs),
(349,431,l),
(293,532,ls),
(268,577,o),
(247,624,o),
(228,672,c),
(294,672,l),
(294,700,l),
(13,700,l),
(13,672,l),
(79,672,l),
(111,627,o),
(141,580,o),
(168,532,cs),
(281,325,l),
(181,168,ls),
(149,119,o),
(116,73,o),
(79,28,c),
(13,28,l),
(13,0,l),
(202,0,l),
(202,28,l),
(136,28,l),
(159,76,o),
(185,123,o),
(214,168,cs),
(296,297,l),
(367,168,ls),
(392,123,o),
(413,76,o),
(432,28,c),
(366,28,l),
(366,0,l)
);
}
);
width = 640;
},
{
associatedMasterId = "503E420B-61F7-4277-A1BE-A8852071B452";
layerId = "308EC262-DACE-4639-9379-A7B993C50382";
name = "Nov 3 20, 21:24";
shapes = (
{
closed = 1;
nodes = (
(655,0,l),
(655,32,l),
(589,32,l),
(558,77,o),
(531,124,o),
(507,172,cs),
(382,420,l),
(452,528,ls),
(484,577,o),
(519,623,o),
(556,668,c),
(622,668,l),
(622,700,l),
(428,700,l),
(428,668,l),
(494,668,l),
(470,620,o),
(443,573,o),
(414,528,cs),
(365,453,l),
(327,528,ls),
(305,573,o),
(285,620,o),
(269,668,c),
(335,668,l),
(335,700,l),
(11,700,l),
(11,668,l),
(77,668,l),
(108,623,o),
(135,576,o),
(159,528,cs),
(270,308,l),
(181,172,ls),
(149,123,o),
(114,77,o),
(77,32,c),
(11,32,l),
(11,0,l),
(205,0,l),
(205,32,l),
(139,32,l),
(163,80,o),
(190,127,o),
(219,172,cs),
(287,275,l),
(339,172,ls),
(361,127,o),
(381,80,o),
(397,32,c),
(331,32,l),
(331,0,l)
);
}
);
width = 600;
}
);
unicode = 88;
},
{
color = 6;
glyphname = Y;
kernLeft = Y;
kernRight = Y;
lastChange = "2023-03-10 14:52:57 +0000";
layers = (
{
anchors = (
{
name = bottom;
pos = (272,0);
},
{
name = top;
pos = (433,700);
},
{
name = topleft;
pos = (120,700);
}
);
backgroundImage = {
imagePath = "../../../../aniawielunska/Downloads/19281931_Potawski_Antykwa-poster.png";
locked = 1;
pos = (-9584,-14);
scale = (6.853,6.853);
};
layerId = "45069982-2EFC-4B7D-8C53-1932E6EAC4CA";
shapes = (
{
closed = 1;
nodes = (
(183,0,o),
(228,0,o),
(274,0,cs),
(318,0,o),
(365,0,o),
(410,-2,c),
(414,8,o),
(418,25,o),
(418,35,c),
(346,35,l),
(352,95,o),
(359,147,o),
(369,190,cs),
(372,203,ls),
(398,316,o),
(497,521,o),
(663,665,c),
(581,665,l),
(575,653,o),
(563,633,o),
(537,603,cs),
(477,534,o),
(413,436,o),
(375,350,c),
(374,528,o),
(304,618,o),
(301,665,c),
(155,665,l),
(226,589,o),
(304,383,o),
(262,203,cs),
(259,190,ls),
(250,150,o),
(234,91,o),
(216,35,c),
(144,35,l),
(140,25,o),
(136,8,o),
(136,-2,c)
);
},
{
closed = 1;
nodes = (
(355,665,l),
(359,675,o),
(363,692,o),
(363,702,c),
(306,700,o),
(241,700,o),
(215,700,cs),
(189,700,o),
(144,700,o),
(99,702,c),
(95,692,o),
(91,676,o),
(91,665,c)
);
},
{
closed = 1;
nodes = (
(720,665,l),
(724,675,o),
(728,692,o),
(728,702,c),
(681,700,o),
(655,700,o),
(629,700,cs),
(603,700,o),
(563,700,o),
(508,702,c),
(504,692,o),
(500,676,o),
(500,665,c)
);
}
);
userData = {
com.hugojourdan.ColorFlow = {
"0" = 0;
"1" = 0;
"10" = 0;
"11" = 0;
"2" = 0;
"3" = 0;
"4" = 0;
"5" = 0;
"6" = 0;
"7" = 0;
"8" = 0;
"9" = 0;
};
};
width = 639;
},
{
anchors = (
{
name = bottom;
pos = (281,0);
},
{
name = top;
pos = (455,700);
},
{
name = topleft;
pos = (117,700);
}
);
layerId = "503E420B-61F7-4277-A1BE-A8852071B452";
shapes = (
{
closed = 1;
nodes = (
(176,0,o),
(236,0,o),
(282,0,cs),
(328,0,o),
(388,0,o),
(433,-2,c),
(437,8,o),
(441,25,o),
(441,35,c),
(374,35,l),
(379,90,o),
(386,143,o),
(401,210,cs),
(404,223,ls),
(430,337,o),
(531,522,o),
(700,665,c),
(603,665,l),
(595,650,o),
(585,628,o),
(549,582,cs),
(512,535,o),
(446,448,o),
(400,355,c),
(392,543,o),
(331,620,o),
(328,665,c),
(143,665,l),
(221,578,o),
(290,375,o),
(248,193,cs),
(245,180,ls),
(238,150,o),
(223,92,o),
(204,35,c),
(137,35,l),
(133,25,o),
(129,8,o),
(129,-2,c)
);
},
{
closed = 1;
nodes = (
(382,665,l),
(386,675,o),
(390,691,o),
(390,702,c),
(333,700,o),
(269,700,o),
(243,700,cs),
(179,700,o),
(144,700,o),
(99,702,c),
(95,692,o),
(91,676,o),
(91,665,c)
);
},
{
closed = 1;
nodes = (
(753,665,l),
(757,675,o),
(761,692,o),
(761,702,c),
(714,700,o),
(688,700,o),
(662,700,cs),
(636,700,o),
(586,700,o),
(531,702,c),
(527,692,o),
(523,676,o),
(523,665,c)
);
}
);
userData = {
com.hugojourdan.ColorFlow = {
"0" = 0;
"1" = 0;
"10" = 0;
"11" = 0;
"2" = 0;
"3" = 0;
"4" = 0;
"5" = 0;
"6" = 0;
"7" = 0;
"8" = 0;
"9" = 0;
};
};
width = 660;
},
{
associatedMasterId = "45069982-2EFC-4B7D-8C53-1932E6EAC4CA";
backgroundImage = {
imagePath = "../../../../aniawielunska/Downloads/19281931_Potawski_Antykwa-poster.png";
locked = 1;
pos = (-9538,-14);
scale = (6.853,6.853);
};
guides = (
{
pos = (534,625);
}
);
layerId = "ED2B5FC9-B7D3-440C-B501-88F4FB380913";
name = "Nov 4 20, 00:15";
shapes = (
{
closed = 1;
nodes = (
(501,665,l),
(500,652,o),
(491,640,o),
(469,606,cs),
(428,543,o),
(383,451,o),
(363,373,c),
(339,464,o),
(281,580,o),
(210,665,c),
(13,665,l),
(63,665,o),
(79,654,o),
(114,611,cs),
(168,543,o),
(272,383,o),
(272,223,c),
(382,223,l),
(382,351,o),
(442,524,o),
(534,625,cs),
(565,659,o),
(579,665,o),
(616,665,c)
);
},
{
closed = 1;
nodes = (
(327,223,l),
(272,223,l),
(272,210,ls),
(272,150,o),
(269,95,o),
(262,35,c),
(190,35,l),
(188,25,o),
(188,8,o),
(190,-2,c),
(236,0,o),
(281,0,o),
(327,0,c)
);
},
{
closed = 1;
nodes = (
(373,0,o),
(418,0,o),
(464,-2,c),
(466,8,o),
(466,25,o),
(464,35,c),
(392,35,l),
(385,95,o),
(382,150,o),
(382,210,cs),
(382,223,l),
(327,223,l),
(327,0,l)
);
},
{
closed = 1;
nodes = (
(297,665,l),
(299,675,o),
(299,692,o),
(297,702,c),
(241,700,o),
(176,700,o),
(150,700,cs),
(124,700,o),
(59,700,o),
(3,702,c),
(1,692,o),
(1,675,o),
(3,665,c)
);
},
{
closed = 1;
nodes = (
(651,665,l),
(653,675,o),
(653,692,o),
(651,702,c),
(605,700,o),
(570,700,o),
(544,700,cs),
(518,700,o),
(483,700,o),
(427,702,c),
(425,692,o),
(425,675,o),
(427,665,c)
);
}
);
width = 660;
},
{
associatedMasterId = "503E420B-61F7-4277-A1BE-A8852071B452";
layerId = "8BA5FA6B-431C-4205-AD1B-5C9ADE995262";
name = "Nov 4 20, 15:08";
shapes = (
{
closed = 1;
nodes = (
(651,668,l),
(651,700,l),
(452,700,l),
(452,668,l),
(525,668,l),
(525,636,o),
(503,602,o),
(483,573,cs),
(461,538,o),
(441,502,o),
(424,464,cs),
(410,431,o),
(398,397,o),
(390,362,c),
(378,410,ls),
(362,464,o),
(340,516,o),
(313,566,cs),
(296,597,o),
(286,632,o),
(285,668,c),
(351,668,l),
(351,700,l),
(7,700,l),
(7,668,l),
(51,668,l),
(102,617,o),
(146,558,o),
(181,494,cs),
(225,414,o),
(254,325,o),
(254,233,cs),
(254,172,ls),
(254,125,o),
(250,78,o),
(242,32,c),
(176,32,l),
(176,0,l),
(482,0,l),
(482,32,l),
(416,32,l),
(408,78,o),
(404,125,o),
(404,172,cs),
(404,233,ls),
(404,308,o),
(423,382,o),
(453,451,cs),
(489,532,o),
(539,605,o),
(602,668,c)
);
}
);
width = 600;
}
);
unicode = 89;
},
{
color = 6;
glyphname = Z;
kernLeft = Z;
kernRight = Z;
lastChange = "2023-03-10 14:52:57 +0000";
layers = (
{
anchors = (
{
name = bottom;
pos = (262,0);
},
{
name = center;
pos = (336,350);
},
{
name = top;
pos = (401,700);
}
);
guides = (
{
pos = (162,210);
}
);
layerId = "45069982-2EFC-4B7D-8C53-1932E6EAC4CA";
shapes = (
{
closed = 1;
nodes = (
(127,510,l),
(138,508,o),
(148,508,o),
(159,510,c),
(188,621,o),
(248,660,o),
(331,660,cs),
(544,660,l),
(675,650,l),
(680,669,o),
(682,682,o),
(683,700,c),
(168,700,l)
);
},
{
closed = 1;
nodes = (
(589,190,l),
(578,192,o),
(569,192,o),
(557,190,c),
(529,79,o),
(479,40,o),
(386,40,cs),
(138,40,l),
(0,50,l),
(-4,33,o),
(-5,16,o),
(-7,0,c),
(549,0,l)
);
},
{
closed = 1;
nodes = (
(511,643,o),
(480,602,o),
(414,520,cs),
(143,180,ls),
(108,136,o),
(42,67,o),
(0,50,c),
(138,40,l),
(176,57,o),
(215,105,o),
(275,180,cs),
(546,520,ls),
(579,561,o),
(624,623,o),
(675,650,c),
(544,660,l)
);
}
);
userData = {
com.hugojourdan.ColorFlow = {
"0" = 0;
"1" = 0;
"10" = 0;
"11" = 0;
"2" = 0;
"3" = 0;
"4" = 0;
"5" = 0;
"6" = 0;
"7" = 0;
"8" = 0;
"9" = 0;
};
};
width = 644;
},
{
anchors = (
{
name = bottom;
pos = (260,0);
},
{
name = center;
pos = (334,350);
},
{
name = top;
pos = (399,700);
}
);
layerId = "503E420B-61F7-4277-A1BE-A8852071B452";
shapes = (
{
closed = 1;
nodes = (
(121,500,l),
(132,498,o),
(142,498,o),
(153,500,c),
(188,638,o),
(262,660,o),
(337,660,cs),
(487,660,l),
(676,650,l),
(681,667,o),
(684,684,o),
(682,700,c),
(164,700,l)
);
},
{
closed = 1;
nodes = (
(580,190,l),
(569,192,o),
(560,192,o),
(548,190,c),
(526,110,o),
(471,40,o),
(367,40,cs),
(182,40,l),
(-9,50,l),
(-14,33,o),
(-16,16,o),
(-15,0,c),
(540,0,l)
);
},
{
closed = 1;
nodes = (
(464,643,o),
(437,616,o),
(414,584,cs),
(124,180,ls),
(92,136,o),
(33,67,o),
(-9,50,c),
(182,40,l),
(214,59,o),
(234,84,o),
(251,108,cs),
(547,520,ls),
(579,564,o),
(627,623,o),
(676,650,c),
(487,660,l)
);
}
);
userData = {
com.hugojourdan.ColorFlow = {
"0" = 0;
"1" = 0;
"10" = 0;
"11" = 0;
"2" = 0;
"3" = 0;
"4" = 0;
"5" = 0;
"6" = 0;
"7" = 0;
"8" = 0;
"9" = 0;
};
};
width = 635;
},
{
associatedMasterId = "45069982-2EFC-4B7D-8C53-1932E6EAC4CA";
layerId = "E027E6B9-DBC9-4CF2-87C8-D3090DECD659";
name = "Nov 3 20, 21:08";
shapes = (
{
closed = 1;
nodes = (
(26,28,l),
(26,0,l),
(584,0,l),
(584,175,l),
(556,175,l),
(556,99,o),
(513,28,o),
(444,28,cs)
);
},
{
closed = 1;
nodes = (
(464,683,l),
(430,651,o),
(399,619,o),
(376,578,cs),
(154,175,ls),
(121,114,o),
(72,64,o),
(12,28,c),
(159,18,l),
(195,47,o),
(227,80,o),
(251,122,cs),
(472,525,ls),
(503,579,o),
(538,630,o),
(581,675,c)
);
},
{
closed = 1;
nodes = (
(570,700,l),
(54,700,l),
(54,525,l),
(82,525,l),
(82,601,o),
(125,672,o),
(194,672,cs),
(570,672,l)
);
}
);
width = 620;
},
{
associatedMasterId = "503E420B-61F7-4277-A1BE-A8852071B452";
layerId = "D4D88E59-8924-493D-B3CA-E11EFC59C935";
name = "Nov 3 20, 21:08";
shapes = (
{
closed = 1;
nodes = (
(22,32,l),
(22,0,l),
(582,0,l),
(582,175,l),
(550,175,l),
(550,102,o),
(509,32,o),
(442,32,cs)
);
},
{
closed = 1;
nodes = (
(403,679,l),
(373,652,o),
(349,622,o),
(333,586,cs),
(151,175,ls),
(123,112,o),
(71,62,o),
(7,37,c),
(220,21,l),
(247,47,o),
(272,78,o),
(288,114,cs),
(470,525,ls),
(494,580,o),
(532,629,o),
(578,668,c)
);
},
{
closed = 1;
nodes = (
(566,700,l),
(50,700,l),
(50,525,l),
(82,525,l),
(82,598,o),
(123,668,o),
(190,668,cs),
(566,668,l)
);
}
);
width = 600;
}
);
unicode = 90;
},
{
color = 3;
glyphname = K.ss01;
kernLeft = H;
kernRight = K.ss01;
lastChange = "2023-03-10 14:52:57 +0000";
layers = (
{
anchors = (
{
name = bottom;
pos = (358,0);
},
{
name = top;
pos = (507,700);
}
);
layerId = "45069982-2EFC-4B7D-8C53-1932E6EAC4CA";
shapes = (
{
closed = 1;
nodes = (
(458,0,o),
(505,0,o),
(548,0,cs),
(584,0,o),
(618,0,o),
(666,-2,c),
(671,12,o),
(673,23,o),
(674,35,c),
(624,35,l),
(585,95,o),
(550,159,o),
(519,224,cs),
(415,440,l),
(337,355,l),
(401,222,ls),
(430,161,o),
(461,100,o),
(482,35,c),
(423,35,l),
(418,21,o),
(416,11,o),
(415,-2,c)
);
},
{
closed = 1;
nodes = (
(237,252,l),
(509,494,ls),
(617,590,o),
(635,604,o),
(707,665,c),
(772,665,l),
(776,676,o),
(779,690,o),
(780,702,c),
(731,700,o),
(697,700,o),
(673,700,cs),
(650,700,o),
(598,700,o),
(545,702,c),
(540,690,o),
(537,676,o),
(537,665,c),
(609,665,l),
(560,601,o),
(501,544,o),
(444,494,cs),
(170,252,l)
);
},
{
ref = I;
}
);
userData = {
com.hugojourdan.ColorFlow = {
"0" = 0;
"1" = 0;
"10" = 0;
"11" = 0;
"2" = 0;
"3" = 0;
"4" = 0;
"5" = 0;
"6" = 0;
"7" = 0;
"8" = 0;
"9" = 0;
};
};
width = 720;
},
{
anchors = (
{
name = bottom;
pos = (373,0);
},
{
name = top;
pos = (522,700);
}
);
layerId = "503E420B-61F7-4277-A1BE-A8852071B452";
shapes = (
{
closed = 1;
nodes = (
(468,0,o),
(510,0,o),
(576,0,cs),
(633,0,o),
(654,0,o),
(701,-2,c),
(705,10,o),
(708,23,o),
(708,35,c),
(666,35,l),
(637,83,o),
(617,149,o),
(594,210,cs),
(497,470,l),
(381,352,l),
(433,210,ls),
(454,153,o),
(473,95,o),
(482,35,c),
(430,35,l),
(426,23,o),
(423,10,o),
(423,-2,c)
);
},
{
closed = 1;
nodes = (
(212,193,l),
(542,490,ls),
(604,546,o),
(681,615,o),
(757,665,c),
(814,665,l),
(819,677,o),
(822,691,o),
(822,702,c),
(774,700,o),
(739,700,o),
(715,700,cs),
(692,700,o),
(625,700,o),
(571,702,c),
(567,691,o),
(564,677,o),
(563,665,c),
(642,665,l),
(602,605,o),
(536,544,o),
(475,490,cs),
(144,193,l)
);
},
{
ref = I;
}
);
userData = {
com.hugojourdan.ColorFlow = {
"0" = 0;
"1" = 0;
"10" = 0;
"11" = 0;
"2" = 0;
"3" = 0;
"4" = 0;
"5" = 0;
"6" = 0;
"7" = 0;
"8" = 0;
"9" = 0;
};
};
width = 753;
}
);
},
{
color = 6;
glyphname = R.ss01;
kernLeft = H;
kernRight = R.ss01;
lastChange = "2023-03-10 14:52:57 +0000";
layers = (
{
anchors = (
{
name = bottom;
pos = (317,0);
},
{
name = top;
pos = (437,700);
}
);
layerId = "45069982-2EFC-4B7D-8C53-1932E6EAC4CA";
shapes = (
{
closed = 1;
nodes = (
(236,700,o),
(191,700,o),
(146,702,c),
(142,692,o),
(138,675,o),
(138,665,c),
(210,665,l),
(203,595,o),
(194,541,o),
(183,490,cs),
(123,210,ls),
(112,159,o),
(96,95,o),
(76,35,c),
(4,35,l),
(0,25,o),
(-4,9,o),
(-4,-2,c),
(42,0,o),
(87,0,o),
(133,0,cs),
(180,0,o),
(224,0,o),
(270,-2,c),
(274,8,o),
(278,25,o),
(278,35,c),
(206,35,l),
(212,103,o),
(223,161,o),
(233,210,cs),
(293,490,ls),
(307,557,o),
(319,599,o),
(339,660,c),
(419,660,ls),
(505,660,o),
(543,621,o),
(543,547,cs),
(543,448,o),
(468,360,o),
(375,360,cs),
(210,360,l),
(201,320,l),
(373,320,l),
(426,324,l),
(567,348,o),
(668,445,o),
(668,548,cs),
(668,658,o),
(570,700,o),
(437,700,cs),
(282,700,ls)
);
},
{
closed = 1;
nodes = (
(428,0,o),
(453,0,o),
(499,0,cs),
(549,0,o),
(581,0,o),
(628,-2,c),
(633,12,o),
(635,23,o),
(636,35,c),
(582,35,l),
(553,94,o),
(530,156,o),
(508,212,cs),
(455,347,l),
(345,338,l),
(394,212,ls),
(417,152,o),
(435,97,o),
(444,35,c),
(392,35,l),
(387,21,o),
(385,11,o),
(384,-2,c)
);
}
);
userData = {
com.hugojourdan.ColorFlow = {
"0" = 0;
"1" = 0;
"10" = 0;
"11" = 0;
"2" = 0;
"3" = 0;
"4" = 0;
"5" = 0;
"6" = 0;
"7" = 0;
"8" = 0;
"9" = 0;
};
};
width = 682;
},
{
anchors = (
{
name = bottom;
pos = (333,0);
},
{
name = top;
pos = (452,700);
}
);
layerId = "503E420B-61F7-4277-A1BE-A8852071B452";
shapes = (
{
closed = 1;
nodes = (
(247,700,o),
(187,700,o),
(142,702,c),
(138,692,o),
(134,675,o),
(134,665,c),
(201,665,l),
(196,610,o),
(188,557,o),
(174,490,cs),
(114,210,ls),
(101,150,o),
(86,93,o),
(67,35,c),
(0,35,l),
(-4,25,o),
(-8,9,o),
(-8,-2,c),
(38,0,o),
(98,0,o),
(144,0,cs),
(190,0,o),
(250,0,o),
(296,-2,c),
(300,8,o),
(304,25,o),
(304,35,c),
(237,35,l),
(243,104,o),
(252,156,o),
(264,210,cs),
(324,490,ls),
(338,557,o),
(350,599,o),
(370,660,c),
(417,660,ls),
(482,660,o),
(521,628,o),
(521,551,cs),
(521,450,o),
(450,360,o),
(363,360,cs),
(228,360,l),
(219,320,l),
(391,320,l),
(462,336,ls),
(601,367,o),
(687,453,o),
(687,550,cs),
(687,662,o),
(584,700,o),
(455,700,cs),
(293,700,ls)
);
},
{
closed = 1;
nodes = (
(420,0,o),
(457,0,o),
(520,0,cs),
(587,0,o),
(608,0,o),
(654,-2,c),
(659,12,o),
(661,23,o),
(662,35,c),
(620,35,l),
(598,81,o),
(577,132,o),
(553,210,cs),
(499,385,l),
(358,340,l),
(397,210,ls),
(415,151,o),
(433,92,o),
(440,35,c),
(383,35,l),
(381,31,o),
(375,12,o),
(375,-2,c)
);
}
);
userData = {
com.hugojourdan.ColorFlow = {
"0" = 0;
"1" = 0;
"10" = 0;
"11" = 0;
"2" = 0;
"3" = 0;
"4" = 0;
"5" = 0;
"6" = 0;
"7" = 0;
"8" = 0;
"9" = 0;
};
};
width = 703;
}
);
},
{
color = 6;
glyphname = a;
kernLeft = a;
kernRight = a;
lastChange = "2023-03-10 14:52:57 +0000";
layers = (
{
anchors = (
{
name = bottom;
pos = (235,0);
},
{
name = ogonek;
pos = (447,0);
},
{
name = top;
pos = (309,440);
}
);
layerId = "45069982-2EFC-4B7D-8C53-1932E6EAC4CA";
shapes = (
{
closed = 1;
nodes = (
(444,-15,o),
(498,26,o),
(530,86,c),
(520,95,o),
(512,101,o),
(500,106,c),
(469,58,o),
(446,40,o),
(428,40,cs),
(408,40,o),
(408,62,o),
(414,92,cs),
(450,260,ls),
(461,311,o),
(480,386,o),
(499,440,c),
(488,442,o),
(478,442,o),
(467,440,c),
(385,375,l),
(375,241,l),
(340,172,l),
(323,92,ls),
(310,29,o),
(330,-15,o),
(388,-15,cs)
);
},
{
closed = 1;
nodes = (
(294,-15,o),
(406,163,o),
(406,313,c),
(459,345,l),
(449,412,o),
(391,455,o),
(306,455,cs),
(139,455,o),
(35,288,o),
(35,139,cs),
(35,40,o),
(79,-15,o),
(156,-15,cs)
);
},
{
closed = 1;
nodes = (
(157,45,o),
(131,77,o),
(131,142,cs),
(131,252,o),
(215,415,o),
(306,415,cs),
(351,415,o),
(369,376,o),
(369,316,cs),
(369,204,o),
(295,45,o),
(200,45,cs)
);
}
);
userData = {
com.hugojourdan.ColorFlow = {
"0" = 0;
"1" = 0;
"10" = 0;
"11" = 0;
"2" = 0;
"3" = 0;
"4" = 0;
"5" = 0;
"6" = 0;
"7" = 0;
"8" = 0;
"9" = 0;
};
};
width = 550;
},
{
anchors = (
{
name = bottom;
pos = (251,0);
},
{
name = ogonek;
pos = (474,0);
},
{
name = top;
pos = (339,460);
}
);
layerId = "503E420B-61F7-4277-A1BE-A8852071B452";
shapes = (
{
closed = 1;
nodes = (
(471,-15,o),
(529,26,o),
(566,85,c),
(557,94,o),
(547,100,o),
(536,105,c),
(508,67,o),
(490,50,o),
(471,50,cs),
(450,50,o),
(450,73,o),
(458,110,cs),
(492,270,ls),
(505,330,o),
(524,406,o),
(543,460,c),
(532,462,o),
(522,462,o),
(511,460,c),
(393,392,l),
(390,258,l),
(343,154,l),
(331,100,ls),
(317,38,o),
(339,-15,o),
(409,-15,cs)
);
},
{
closed = 1;
nodes = (
(314,-15,o),
(414,164,o),
(414,329,c),
(492,387,l),
(466,442,o),
(405,475,o),
(319,475,cs),
(133,475,o),
(33,320,o),
(33,161,cs),
(33,48,o),
(84,-15,o),
(170,-15,cs)
);
},
{
closed = 1;
nodes = (
(193,58,o),
(173,92,o),
(173,155,cs),
(173,264,o),
(237,435,o),
(322,435,cs),
(364,435,o),
(376,394,o),
(376,331,cs),
(376,208,o),
(315,58,o),
(232,58,cs)
);
}
);
userData = {
com.hugojourdan.ColorFlow = {
"0" = 0;
"1" = 0;
"10" = 0;
"11" = 0;
"2" = 0;
"3" = 0;
"4" = 0;
"5" = 0;
"6" = 0;
"7" = 0;
"8" = 0;
"9" = 0;
};
};
width = 585;
},
{
associatedMasterId = "45069982-2EFC-4B7D-8C53-1932E6EAC4CA";
layerId = "32DEE42D-1858-4AEB-A29B-4103D10B3F7F";
name = "Nov 3 20, 18:57";
shapes = (
{
closed = 1;
nodes = (
(452,0,l),
(452,28,l),
(414,28,o),
(392,36,o),
(392,70,cs),
(392,308,ls),
(392,402,o),
(323,452,o),
(224,452,cs),
(139,452,o),
(56,412,o),
(56,336,c),
(128,336,l),
(128,392,o),
(167,424,o),
(224,424,cs),
(274,424,o),
(302,388,o),
(302,336,cs),
(302,232,l),
(270,257,o),
(232,270,o),
(192,270,cs),
(95,270,o),
(26,221,o),
(26,129,cs),
(26,37,o),
(95,-12,o),
(192,-12,cs),
(233,-12,o),
(280,9,o),
(310,40,c),
(323,16,o),
(350,0,o),
(380,0,cs)
);
},
{
closed = 1;
nodes = (
(302,73,l),
(282,41,o),
(238,16,o),
(200,16,cs),
(147,16,o),
(116,71,o),
(116,129,cs),
(116,187,o),
(147,242,o),
(200,242,cs),
(237,242,o),
(274,229,o),
(302,204,c)
);
}
);
width = 472;
},
{
associatedMasterId = "503E420B-61F7-4277-A1BE-A8852071B452";
layerId = "7453FD27-2B63-47B3-8720-54D9E0BD8A48";
name = "Nov 3 20, 18:57";
shapes = (
{
closed = 1;
nodes = (
(482,0,l),
(482,32,l),
(445,32,o),
(422,37,o),
(422,70,cs),
(422,308,ls),
(422,406,o),
(343,452,o),
(237,452,cs),
(146,452,o),
(52,420,o),
(52,340,c),
(148,340,l),
(148,391,o),
(184,420,o),
(237,420,cs),
(280,420,o),
(302,386,o),
(302,340,cs),
(302,232,l),
(271,259,o),
(231,274,o),
(190,274,cs),
(92,274,o),
(22,224,o),
(22,131,cs),
(22,38,o),
(92,-12,o),
(190,-12,cs),
(232,-12,o),
(280,9,o),
(313,39,c),
(331,13,o),
(370,0,o),
(410,0,cs)
);
},
{
closed = 1;
nodes = (
(302,73,l),
(286,44,o),
(248,20,o),
(214,20,cs),
(165,20,o),
(142,76,o),
(142,131,cs),
(142,186,o),
(165,242,o),
(214,242,cs),
(248,242,o),
(281,227,o),
(302,200,c)
);
}
);
width = 600;
},
{
associatedMasterId = "45069982-2EFC-4B7D-8C53-1932E6EAC4CA";
layerId = "FAB570E5-D279-49FE-9D2A-7D1AB6A7D119";
name = "Nov 4 20, 16:18";
shapes = (
{
closed = 1;
nodes = (
(401,407,o),
(346,455,o),
(232,455,cs),
(118,455,o),
(43,391,o),
(43,325,c),
(143,325,l),
(138,386,o),
(172,418,o),
(227,418,cs),
(285,418,o),
(306,375,o),
(306,294,c),
(306,80,l),
(312,45,l),
(324,-1,o),
(352,-22,o),
(461,-2,c),
(463,10,o),
(463,23,o),
(461,35,c),
(419,35,o),
(401,46,o),
(401,85,c),
(401,304,ls)
);
},
{
closed = 1;
nodes = (
(234,-15,o),
(273,-1,o),
(312,45,c),
(306,80,l),
(276.896,48.828,o),
(243,25,o),
(202,25,c),
(148,25,o),
(118,68,o),
(118,121,c),
(118,181,o),
(147,210,o),
(233,210,c),
(306,210,l),
(306,245,l),
(228,245,l),
(101,245,o),
(18,216,o),
(18,120,c),
(18,30,o),
(91,-15,o),
(177,-15,c)
);
}
);
width = 487;
},
{
associatedMasterId = "45069982-2EFC-4B7D-8C53-1932E6EAC4CA";
layerId = "7E6794BB-B6FD-4058-A03A-7EA869E5BF9B";
name = "Nov 18 20, 00:16";
shapes = (
{
closed = 1;
nodes = (
(498,58,o),
(480,40,o),
(458,40,cs),
(437,40,o),
(434,61,o),
(441,92,cs),
(477,260,ls),
(488,311,o),
(507,387,o),
(526,440,c),
(515,442,o),
(505,442,o),
(494,440,c),
(412,375,l),
(351,92,ls),
(338,30,o),
(358,-15,o),
(426,-15,cs),
(492,-15,o),
(525,26,o),
(557,86,c),
(547,95,o),
(539,101,o),
(527,106,c)
);
},
{
closed = 1;
nodes = (
(304,-15,o),
(392,124,o),
(425,269,cs),
(447,367,o),
(407,455,o),
(306,455,cs),
(143,455,o),
(34,303,o),
(34,147,cs),
(34,42,o),
(90,-15,o),
(177,-15,cs)
);
},
{
closed = 1;
nodes = (
(166,45,o),
(131,70,o),
(131,156,cs),
(131,253,o),
(205,410,o),
(309,410,cs),
(381,410,o),
(405,348,o),
(388,269,cs),
(358,131,o),
(277,45,o),
(209,45,cs)
);
}
);
width = 589;
}
);
unicode = 97;
},
{
color = 3;
glyphname = aogonek;
kernLeft = a;
kernRight = a;
lastChange = "2023-03-10 14:52:57 +0000";
layers = (
{
anchors = (
{
name = _ogonek;
pos = (447,0);
}
);
layerId = "45069982-2EFC-4B7D-8C53-1932E6EAC4CA";
shapes = (
{
closed = 1;
nodes = (
(350,-225,o),
(396,-203,o),
(430,-178,c),
(429,-166,o),
(424,-156,o),
(418,-149,c),
(391,-164,o),
(370,-169,o),
(354,-169,cs),
(325,-169,o),
(310,-153,o),
(310,-130,cs),
(310,-76,o),
(362,-27,o),
(447,0,c),
(433,17,l),
(326,-12,o),
(222,-58,o),
(222,-151,cs),
(222,-193,o),
(260,-225,o),
(307,-225,cs)
);
},
{
ref = a;
}
);
userData = {
com.hugojourdan.ColorFlow = {
"0" = 0;
"1" = 0;
"10" = 0;
"11" = 0;
"2" = 0;
"3" = 0;
"4" = 0;
"5" = 0;
"6" = 0;
"7" = 0;
"8" = 0;
"9" = 0;
};
};
width = 550;
},
{
anchors = (
{
name = _ogonek;
pos = (474,0);
}
);
layerId = "503E420B-61F7-4277-A1BE-A8852071B452";
shapes = (
{
closed = 1;
nodes = (
(383,-225,o),
(429,-203,o),
(457,-178,c),
(456,-172,o),
(453,-158,o),
(445,-149,c),
(419,-164,o),
(401,-169,o),
(386,-169,cs),
(361,-169,o),
(348,-154,o),
(348,-133,cs),
(348,-79,o),
(394,-28,o),
(474,0,c),
(459,16,l),
(344,-14,o),
(239,-59,o),
(239,-150,cs),
(239,-195,o),
(283,-225,o),
(339,-225,cs)
);
},
{
ref = a;
}
);
userData = {
com.hugojourdan.ColorFlow = {
"0" = 0;
"1" = 0;
"10" = 0;
"11" = 0;
"2" = 0;
"3" = 0;
"4" = 0;
"5" = 0;
"6" = 0;
"7" = 0;
"8" = 0;
"9" = 0;
};
};
width = 585;
}
);
unicode = 261;
},
{
color = 6;
glyphname = ae;
kernLeft = a;
kernRight = e;
lastChange = "2023-03-10 14:52:57 +0000";
layers = (
{
anchors = (
{
name = bottom;
pos = (300,0);
},
{
name = top;
pos = (394,440);
}
);
background = {
anchors = (
{
name = bottom;
pos = (655,0);
},
{
name = ogonek;
pos = (676,0);
},
{
name = top;
pos = (665,440);
}
);
shapes = (
{
closed = 1;
nodes = (
(324,119,cs),
(335,166,l),
(377,174,l),
(402,284,ls),
(430,406,o),
(383,455,o),
(285,455,cs),
(175,455,o),
(92,391,o),
(78,325,c),
(178,325,l),
(186,386,o),
(221,418,o),
(273,418,cs),
(325,418,o),
(342,377,o),
(324,294,cs),
(299,178,ls),
(277,77,o),
(207,30,o),
(168,30,cs),
(126,30,o),
(106,54,o),
(106,92,cs),
(106,208,o),
(232,209,o),
(318,195,c),
(326,236,l),
(208,259,o),
(5,235,o),
(5,86,cs),
(5,21,o),
(62,-15,o),
(139,-15,cs),
(216,-15,o),
(304,34,o)
);
},
{
closed = 1;
nodes = (
(422,40,o),
(391,69,o),
(391,145,cs),
(391,249,o),
(448,415,o),
(562,415,cs),
(601,415,o),
(614,388,o),
(614,360,cs),
(614,283,o),
(497,181,o),
(371,224,c),
(364,189,l),
(509,146,o),
(707,253,o),
(707,370,cs),
(707,412,o),
(677,455,o),
(580,455,cs),
(422,455,o),
(311,315,o),
(311,155,cs),
(311,49,o),
(364,-15,o),
(460,-15,cs),
(531,-15,o),
(608,22,o),
(669,110,c),
(659,119,o),
(651,125,o),
(639,130,c),
(580,61,o),
(518,40,o),
(480,40,cs)
);
}
);
};
guides = (
{
angle = 260.4258;
pos = (329,274);
}
);
layerId = "45069982-2EFC-4B7D-8C53-1932E6EAC4CA";
shapes = (
{
closed = 1;
nodes = (
(538,-15,o),
(614,22,o),
(675,110,c),
(665,119,o),
(657,125,o),
(645,130,c),
(586,61,o),
(526,40,o),
(481,40,cs),
(429,40,o),
(397,69,o),
(397,146,cs),
(397,250,o),
(456,415,o),
(565,415,cs),
(607,415,o),
(620,388,o),
(620,360,cs),
(620,281,o),
(533,211,o),
(358,229,c),
(354,193,l),
(542,171,o),
(713,251,o),
(713,367,cs),
(713,412,o),
(682,455,o),
(591,455,cs),
(427,455,o),
(316,315,o),
(316,159,cs),
(316,49,o),
(369,-15,o),
(462,-15,cs)
);
},
{
closed = 1;
nodes = (
(248,-15,o),
(294,33,o),
(334,125,c),
(315,191,l),
(297,88,o),
(235,35,o),
(176,35,cs),
(134,35,o),
(110,61,o),
(110,96,cs),
(110,167,o),
(174,217,o),
(351,195,c),
(355,232,l),
(99,263,o),
(13,178,o),
(13,91,cs),
(13,23,o),
(65,-15,o),
(143,-15,cs)
);
},
{
closed = 1;
nodes = (
(415,304,l),
(430,381,o),
(409,455,o),
(282,455,cs),
(176,455,o),
(100,391,o),
(86,325,c),
(181,325,l),
(188,386,o),
(228,418,o),
(274,418,cs),
(354,418,o),
(337,319,o),
(329,274,cs),
(315,191,l),
(334,125,l)
);
}
);
userData = {
com.hugojourdan.ColorFlow = {
"0" = 0;
"1" = 0;
"10" = 0;
"11" = 0;
"2" = 0;
"3" = 0;
"4" = 0;
"5" = 0;
"6" = 0;
"7" = 0;
"8" = 0;
"9" = 0;
};
};
width = 729;
},
{
anchors = (
{
name = bottom;
pos = (323,0);
},
{
name = top;
pos = (421,460);
}
);
background = {
anchors = (
{
name = bottom;
pos = (567,0);
},
{
name = ogonek;
pos = (581,0);
},
{
name = top;
pos = (577,460);
}
);
shapes = (
{
closed = 1;
nodes = (
(405,-10,o),
(431,-8,o),
(464,-2,c),
(468,10,o),
(471,21,o),
(472,35,c),
(413,35,o),
(405,52,o),
(414,95,cs),
(456,289,ls),
(480,401,o),
(457,475,o),
(311,475,cs),
(164,475,o),
(88,409,o),
(69,320,c),
(199,320,l),
(205,389,o),
(243,438,o),
(295,438,cs),
(348,438,o),
(356,382,o),
(339,304,cs),
(293,85,l),
(293,40,ls),
(293,7,o),
(324,-10,o),
(381,-10,cs)
);
},
{
closed = 1;
nodes = (
(203,-15,o),
(252,8,o),
(293,40,c),
(293,85,l),
(262,56,o),
(227,40,o),
(197,40,cs),
(158,40,o),
(135,62,o),
(135,101,cs),
(135,196,o),
(223,246,o),
(319,205,c),
(327,247,l),
(183,299,o),
(3,242,o),
(3,87,cs),
(3,18,o),
(60,-15,o),
(136,-15,cs)
);
},
{
closed = 1;
nodes = (
(483,48,o),
(452,79,o),
(452,152,cs),
(452,264,o),
(514,436,o),
(595,436,cs),
(615,436,o),
(634,421,o),
(634,379,cs),
(634,311,o),
(560,235,o),
(431,228,c),
(430,189,l),
(641,218,o),
(764,285,o),
(764,384,cs),
(764,433,o),
(722,475,o),
(613,475,cs),
(437,475,o),
(330,340,o),
(330,160,cs),
(330,52,o),
(393,-16,o),
(490,-16,cs),
(570,-16,o),
(657,24,o),
(729,125,c),
(719,133,o),
(711,139,o),
(699,145,c),
(633,64,o),
(577,48,o),
(539,48,cs)
);
}
);
};
layerId = "503E420B-61F7-4277-A1BE-A8852071B452";
shapes = (
{
closed = 1;
nodes = (
(576,-15,o),
(648,24,o),
(720,125,c),
(710,133,o),
(702,139,o),
(690,145,c),
(624,64,o),
(568,48,o),
(530,48,cs),
(474,48,o),
(444,79,o),
(444,155,cs),
(444,263,o),
(507,436,o),
(585,436,cs),
(606,436,o),
(626,421,o),
(626,379,cs),
(626,311,o),
(575,215,o),
(377,249,c),
(376,210,l),
(630,167,o),
(756,285,o),
(756,379,cs),
(756,434,o),
(712,475,o),
(613,475,cs),
(434,475,o),
(317,340,o),
(317,173,cs),
(317,46,o),
(370,-15,o),
(485,-15,cs)
);
},
{
closed = 1;
nodes = (
(227,-15,o),
(318,22,o),
(350,156,c),
(316,205,l),
(294,84,o),
(242,40,o),
(189,40,cs),
(152,40,o),
(127,63,o),
(127,102,cs),
(127,163,o),
(189,234,o),
(373,207,c),
(374,246,l),
(105,282,o),
(7,197,o),
(7,92,cs),
(7,13,o),
(75,-15,o),
(148,-15,c)
);
},
{
closed = 1;
nodes = (
(448,309,l),
(461,399,o),
(437,475,o),
(300,475,cs),
(167,475,o),
(92,403,o),
(76,320,c),
(196,320,l),
(202,389,o),
(240,438,o),
(292,438,cs),
(348,438,o),
(352,378,o),
(336,304,c),
(316,205,l),
(350,156,l)
);
}
);
userData = {
com.hugojourdan.ColorFlow = {
"0" = 0;
"1" = 0;
"10" = 0;
"11" = 0;
"2" = 0;
"3" = 0;
"4" = 0;
"5" = 0;
"6" = 0;
"7" = 0;
"8" = 0;
"9" = 0;
};
};
width = 767;
}
);
unicode = 230;
},
{
color = 6;
glyphname = b;
kernRight = b;
lastChange = "2023-03-10 14:52:57 +0000";
layers = (
{
associatedMasterId = "45069982-2EFC-4B7D-8C53-1932E6EAC4CA";
layerId = "ED4DBE24-BDF4-4E18-90CB-0EA147BD6606";
name = "Nov 2 20, 15:05";
shapes = (
{
closed = 1;
nodes = (
(508,359,o),
(428,452,o),
(292,452,cs),
(250,452,o),
(209,437,o),
(176,410,c),
(176,532,ls),
(176,592,o),
(180,652,o),
(188,712,c),
(134,704,o),
(80,700,o),
(26,700,c),
(26,672,l),
(74,672,l),
(82,626,o),
(86,579,o),
(86,532,cs),
(86,168,ls),
(86,121,o),
(82,74,o),
(74,28,c),
(26,28,l),
(26,0,l),
(79,0,o),
(131,-4,o),
(183,-12,c),
(177,42,l),
(204,9,o),
(246,-12,o),
(292,-12,cs),
(428,-12,o),
(508,81,o),
(508,220,cs)
);
},
{
closed = 1;
nodes = (
(412,108,o),
(382,16,o),
(283,16,cs),
(224,16,o),
(176,65,o),
(176,124,cs),
(176,377,l),
(200,407,o),
(236,424,o),
(274,424,cs),
(375,424,o),
(412,334,o),
(412,220,cs)
);
}
);
width = 600;
},
{
associatedMasterId = "503E420B-61F7-4277-A1BE-A8852071B452";
layerId = "591D6FAD-CD7B-4128-BA7C-FA6BE4957CD5";
name = "Nov 2 20, 15:07";
shapes = (
{
closed = 1;
nodes = (
(540,360,o),
(456,452,o),
(318,452,cs),
(274,452,o),
(233,435,o),
(202,404,c),
(202,528,ls),
(202,590,o),
(206,651,o),
(214,712,c),
(150,704,o),
(86,700,o),
(22,700,c),
(22,668,l),
(70,668,l),
(78,622,o),
(82,575,o),
(82,528,cs),
(82,172,ls),
(82,125,o),
(78,78,o),
(70,32,c),
(22,32,l),
(22,0,l),
(84,0,o),
(146,-4,o),
(208,-12,c),
(202,39,l),
(230,8,o),
(272,-12,o),
(318,-12,cs),
(456,-12,o),
(540,80,o),
(540,220,cs)
);
},
{
closed = 1;
nodes = (
(414,112,o),
(399,20,o),
(306,20,cs),
(248,20,o),
(202,67,o),
(202,124,cs),
(202,370,l),
(222,401,o),
(257,420,o),
(294,420,cs),
(389,420,o),
(414,329,o),
(414,220,cs)
);
}
);
width = 600;
},
{
anchors = (
{
name = bottom;
pos = (425,0);
},
{
name = top;
pos = (425,800);
}
);
associatedMasterId = "45069982-2EFC-4B7D-8C53-1932E6EAC4CA";
guides = (
{
angle = 257.9052;
pos = (138,520);
},
{
angle = 257.9052;
pos = (229,520);
}
);
layerId = "A4418793-6506-4625-8D79-A81BA5A043B1";
name = "Nov 20 20, 14:00";
shapes = (
{
closed = 1;
nodes = (
(348,-15,o),
(458,81,o),
(490,231,cs),
(520,370,o),
(468,455,o),
(368,455,cs),
(286,455,o),
(221,398,o),
(175,325,c),
(184,307,l),
(228,520,ls),
(238,570,o),
(261,661,o),
(284,713,c),
(220,702,o),
(156,700,o),
(109,700,c),
(105,691,o),
(101,674,o),
(101,663,c),
(158,663,l),
(154,609,o),
(149,566,o),
(138,520,cs),
(63,195,ls),
(28,45,o),
(99,-15,o),
(209,-15,cs)
);
},
{
closed = 1;
nodes = (
(171,30,o),
(136,82,o),
(160,197,cs),
(186,320,o),
(257,395,o),
(328,395,cs),
(382,395,o),
(417,344,o),
(395,240,cs),
(371,125,o),
(297,30,o),
(225,30,cs)
);
}
);
width = 533;
},
{
anchors = (
{
name = bottom;
pos = (417,0);
},
{
name = top;
pos = (417,800);
}
);
guides = (
{
angle = 257.9052;
pos = (130,520);
},
{
angle = 257.9052;
pos = (221,520);
}
);
layerId = "45069982-2EFC-4B7D-8C53-1932E6EAC4CA";
shapes = (
{
closed = 1;
nodes = (
(372,-15,o),
(490,133,o),
(490,304,cs),
(490,399,o),
(441,455,o),
(360,455,cs),
(278,455,o),
(211,408,o),
(155,307,c),
(176,307,l),
(220,520,ls),
(230,570,o),
(253,661,o),
(276,713,c),
(212,702,o),
(148,700,o),
(101,700,c),
(97,691,o),
(93,674,o),
(93,663,c),
(150,663,l),
(146,609,o),
(140,566,o),
(130,520,cs),
(59,191,ls),
(33,72,o),
(67,-15,o),
(201,-15,cs)
);
},
{
closed = 1;
nodes = (
(177,30,o),
(146,62,o),
(146,127,cs),
(146,237,o),
(227,400,o),
(323,400,cs),
(368,400,o),
(394,363,o),
(394,297,cs),
(394,190,o),
(320,30,o),
(220,30,cs)
);
}
);
userData = {
com.hugojourdan.ColorFlow = {
"0" = 0;
"1" = 0;
"10" = 0;
"11" = 0;
"2" = 0;
"3" = 0;
"4" = 0;
"5" = 0;
"6" = 0;
"7" = 0;
"8" = 0;
"9" = 0;
};
};
width = 525;
},
{
anchors = (
{
name = bottom;
pos = (269,0);
},
{
name = top;
pos = (269,800);
}
);
associatedMasterId = "503E420B-61F7-4277-A1BE-A8852071B452";
guides = (
{
angle = 258.0644;
pos = (108,510);
},
{
angle = 258.0644;
pos = (234,510);
}
);
layerId = "44FD0FA3-001D-486D-A929-58C3B92CD45C";
name = "Nov 20 20, 14:00";
shapes = (
{
closed = 1;
nodes = (
(344,-15,o),
(472,68,o),
(506,228,cs),
(536,373,o),
(484,475,o),
(370,475,cs),
(287,475,o),
(228,422,o),
(191,357,c),
(198,338,l),
(233,510,ls),
(245,570,o),
(270,667,o),
(292,715,c),
(227,704,o),
(163,700,o),
(87,700,c),
(83,690,o),
(79,673,o),
(79,663,c),
(131,663,l),
(128,606,o),
(119,559,o),
(108,510,cs),
(45,239,ls),
(9,88,o),
(65,-15,o),
(219,-15,cs)
);
},
{
closed = 1;
nodes = (
(175,30,o),
(149,105,o),
(174,226,cs),
(195,330,o),
(244,402,o),
(309,402,cs),
(370,402,o),
(393,340,o),
(366,215,cs),
(344,115,o),
(302,30,o),
(237,30,cs)
);
}
);
width = 544;
},
{
anchors = (
{
name = bottom;
pos = (276,0);
},
{
name = top;
pos = (276,800);
}
);
guides = (
{
angle = 258.0198;
pos = (240,510);
},
{
angle = 258.0198;
pos = (115,510);
}
);
layerId = "503E420B-61F7-4277-A1BE-A8852071B452";
shapes = (
{
closed = 1;
nodes = (
(395,-15,o),
(521,126,o),
(521,305,cs),
(521,408,o),
(470,475,o),
(377,475,cs),
(294,475,o),
(225,426,o),
(186,338,c),
(204,338,l),
(240,510,ls),
(253,570,o),
(277,667,o),
(299,715,c),
(234,704,o),
(170,700,o),
(94,700,c),
(90,690,o),
(86,673,o),
(86,663,c),
(138,663,l),
(135,606,o),
(125,559,o),
(115,510,cs),
(57,237,ls),
(28,102,o),
(62,-15,o),
(226,-15,cs)
);
},
{
closed = 1;
nodes = (
(191,25,o),
(168,60,o),
(168,125,cs),
(168,229,o),
(228,402,o),
(317,402,cs),
(362,402,o),
(381,360,o),
(381,291,cs),
(381,181,o),
(320,25,o),
(235,25,cs)
);
}
);
userData = {
com.hugojourdan.ColorFlow = {
"0" = 0;
"1" = 0;
"10" = 0;
"11" = 0;
"2" = 0;
"3" = 0;
"4" = 0;
"5" = 0;
"6" = 0;
"7" = 0;
"8" = 0;
"9" = 0;
};
};
width = 553;
}
);
unicode = 98;
},
{
color = 6;
glyphname = c;
kernLeft = o;
kernRight = c;
lastChange = "2023-03-10 14:52:57 +0000";
layers = (
{
anchors = (
{
name = bottom;
pos = (194,0);
},
{
name = top;
pos = (307,440);
}
);
layerId = "45069982-2EFC-4B7D-8C53-1932E6EAC4CA";
shapes = (
{
closed = 1;
nodes = (
(272,-15,o),
(343,22,o),
(395,110,c),
(385,119,o),
(377,125,o),
(365,130,c),
(315,61,o),
(259,40,o),
(218,40,cs),
(167,40,o),
(134,72,o),
(134,144,cs),
(134,255,o),
(199,415,o),
(302,415,cs),
(354,415,o),
(378,368,o),
(377,280,c),
(388,278,o),
(398,278,o),
(409,280,c),
(438,415,l),
(405,440,o),
(360,455,o),
(310,455,cs),
(154,455,o),
(37,310,o),
(37,154,cs),
(37,52,o),
(98,-15,o),
(198,-15,cs)
);
}
);
userData = {
com.hugojourdan.ColorFlow = {
"0" = 0;
"1" = 0;
"10" = 0;
"11" = 0;
"2" = 0;
"3" = 0;
"4" = 0;
"5" = 0;
"6" = 0;
"7" = 0;
"8" = 0;
"9" = 0;
};
};
width = 454;
},
{
anchors = (
{
name = bottom;
pos = (217,0);
},
{
name = top;
pos = (325,460);
}
);
guides = (
{
angle = 78.0239;
pos = (461,363);
}
);
layerId = "503E420B-61F7-4277-A1BE-A8852071B452";
shapes = (
{
closed = 1;
nodes = (
(292,-16,o),
(364,24,o),
(426,125,c),
(416,133,o),
(408,139,o),
(396,145,c),
(340,64,o),
(294,48,o),
(257,48,cs),
(201,48,o),
(171,84,o),
(171,157,cs),
(171,275,o),
(225,436,o),
(328,436,cs),
(388,436,o),
(402,374,o),
(406,280,c),
(417,278,o),
(427,278,o),
(438,280,c),
(471,435,l),
(440,458,o),
(394,476,o),
(329,476,cs),
(156,476,o),
(34,345,o),
(34,175,cs),
(34,58,o),
(107,-16,o),
(213,-16,cs)
);
}
);
userData = {
com.hugojourdan.ColorFlow = {
"0" = 0;
"1" = 0;
"10" = 0;
"11" = 0;
"2" = 0;
"3" = 0;
"4" = 0;
"5" = 0;
"6" = 0;
"7" = 0;
"8" = 0;
"9" = 0;
};
};
width = 481;
},
{
associatedMasterId = "45069982-2EFC-4B7D-8C53-1932E6EAC4CA";
layerId = "0970ECF3-6F06-4BD2-8D6A-9E71005090B6";
name = "Nov 3 20, 14:15";
shapes = (
{
closed = 1;
nodes = (
(427,130,l),
(399,130,l),
(399,61,o),
(330,16,o),
(256,16,cs),
(158,16,o),
(131,108,o),
(131,220,cs),
(131,332,o),
(158,424,o),
(256,424,cs),
(312,424,o),
(358,381,o),
(358,327,c),
(403,327,l),
(403,420,l),
(357,441,o),
(307,452,o),
(256,452,cs),
(118,452,o),
(35,360,o),
(35,220,cs),
(35,80,o),
(118,-12,o),
(256,-12,cs),
(320,-12,o),
(382,14,o),
(427,60,c)
);
}
);
width = 600;
},
{
associatedMasterId = "503E420B-61F7-4277-A1BE-A8852071B452";
layerId = "70EFE622-2A63-44FF-A8AC-5952A87834FD";
name = "Nov 3 20, 14:18";
shapes = (
{
closed = 1;
nodes = (
(461,130,l),
(429,130,l),
(429,57,o),
(348,20,o),
(267,20,cs),
(173,20,o),
(155,112,o),
(155,220,cs),
(155,328,o),
(173,420,o),
(267,420,cs),
(325,420,o),
(377,382,o),
(377,327,c),
(437,327,l),
(437,420,l),
(383,441,o),
(325,452,o),
(267,452,cs),
(122,452,o),
(29,364,o),
(29,220,cs),
(29,76,o),
(122,-12,o),
(267,-12,cs),
(338,-12,o),
(407,14,o),
(461,60,c)
);
}
);
width = 600;
},
{
associatedMasterId = "503E420B-61F7-4277-A1BE-A8852071B452";
layerId = "C3196660-E794-4F3D-950F-267A42D8C41E";
name = "Nov 3 20, 14:18";
shapes = (
{
closed = 1;
nodes = (
(461,130,l),
(429,130,l),
(429,57,o),
(348,20,o),
(267,20,cs),
(173,20,o),
(155,112,o),
(155,220,cs),
(155,328,o),
(173,420,o),
(267,420,cs),
(325,420,o),
(377,382,o),
(377,327,c),
(437,327,l),
(437,420,l),
(383,441,o),
(325,452,o),
(267,452,cs),
(122,452,o),
(29,364,o),
(29,220,cs),
(29,76,o),
(122,-12,o),
(267,-12,cs),
(338,-12,o),
(407,14,o),
(461,60,c)
);
}
);
width = 600;
},
{
associatedMasterId = "45069982-2EFC-4B7D-8C53-1932E6EAC4CA";
layerId = "F1F18CDF-3E0F-4FCF-8B03-8D8CFE768EBF";
name = "Nov 3 20, 14:19";
shapes = (
{
closed = 1;
nodes = (
(249,455,l),
(116,455,o),
(23,371,o),
(23,224,cs),
(23,71,o),
(118,-15,o),
(256,-15,cs),
(338,-15,o),
(391,16,o),
(448,89,c),
(439,100,o),
(430,108,o),
(419,115,c),
(371,54,o),
(322,30,o),
(263,30,cs),
(182,30,o),
(128,97,o),
(128,224,cs),
(128,345,o),
(181,416,o),
(249,416,c)
);
},
{
closed = 1;
nodes = (
(249,416,l),
(307,416,o),
(346,379,o),
(341,285,c),
(352,283,o),
(432,283,o),
(443,285,c),
(443,285,l),
(443,430,o),
(316,455,o),
(249,455,c)
);
}
);
width = 440;
},
{
associatedMasterId = "503E420B-61F7-4277-A1BE-A8852071B452";
layerId = "5FB97027-74A9-41F8-8291-8AD3DD3E3388";
name = "Nov 4 20, 15:54";
shapes = (
{
closed = 1;
nodes = (
(461,120,c),
(429,130,l),
(399,77,o),
(348,20,o),
(267,20,cs),
(173,20,o),
(155,112,o),
(155,220,cs),
(155,328,o),
(173,420,o),
(257,420,cs),
(305,420,o),
(338,382,o),
(338,287,c),
(457,287,l),
(447,438,o),
(325,452,o),
(257,452,cs),
(122,452,o),
(29,364,o),
(29,220,cs),
(29,76,o),
(122,-12,o),
(267,-12,cs),
(388,-12,o),
(418,53,o)
);
}
);
width = 600;
},
{
associatedMasterId = "45069982-2EFC-4B7D-8C53-1932E6EAC4CA";
layerId = "8334BB5F-C13A-4DD0-B9DF-60BE3324CDA4";
name = "Nov 17 20, 00:00";
shapes = (
{
closed = 1;
nodes = (
(337,-15,o),
(391,17,o),
(448,85,c),
(439,96,o),
(431,103,o),
(420,110,c),
(372,54,o),
(334,35,o),
(288,35,cs),
(209,35,o),
(148,113,o),
(148,224,cs),
(148,345,o),
(193,415,o),
(272,415,cs),
(331,415,o),
(373,367,o),
(391,280,c),
(402,278,o),
(412,278,o),
(423,280,c),
(423,415,l),
(388,440,o),
(341,455,o),
(279,455,cs),
(136,455,o),
(43,368,o),
(43,220,cs),
(43,74,o),
(132,-15,o),
(262,-15,cs)
);
}
);
width = 478;
},
{
anchors = (
{
name = bottom;
pos = (211,0);
},
{
name = top;
pos = (304,440);
}
);
associatedMasterId = "45069982-2EFC-4B7D-8C53-1932E6EAC4CA";
layerId = "9BD7BE93-0D78-46BF-92F4-68F98286A201";
name = "Nov 18 20, 01:48";
shapes = (
{
closed = 1;
nodes = (
(277,-15,o),
(338,22,o),
(390,110,c),
(380,119,o),
(372,125,o),
(360,130,c),
(310,61,o),
(274,40,o),
(230,40,cs),
(167,40,o),
(133,92,o),
(133,178,cs),
(133,280,o),
(191,415,o),
(295,415,cs),
(349,415,o),
(375,378,o),
(374,280,c),
(385,278,o),
(395,278,o),
(406,280,c),
(435,415,l),
(402,440,o),
(353,455,o),
(300,455,cs),
(132,455,o),
(36,311,o),
(36,166,cs),
(36,54,o),
(98,-15,o),
(203,-15,cs)
);
}
);
width = 438;
}
);
unicode = 99;
},
{
color = 3;
glyphname = d;
kernLeft = a;
kernRight = d;
lastChange = "2023-03-10 14:52:57 +0000";
layers = (
{
anchors = (
{
name = bottom;
pos = (273,0);
},
{
name = center;
pos = (273,220);
},
{
name = top;
pos = (273,800);
},
{
name = topright;
pos = (538,440);
}
);
layerId = "45069982-2EFC-4B7D-8C53-1932E6EAC4CA";
shapes = (
{
closed = 1;
nodes = (
(455,-15,o),
(509,26,o),
(541,86,c),
(531,95,o),
(523,101,o),
(511,106,c),
(480,58,o),
(457,40,o),
(439,40,cs),
(420,40,o),
(418,61,o),
(425,92,cs),
(515,520,ls),
(525,568,o),
(548,659,o),
(571,713,c),
(508,702,o),
(442,700,o),
(396,700,c),
(392,690,o),
(388,672,o),
(388,663,c),
(445,663,l),
(442,613,o),
(435,565,o),
(425,520,cs),
(381,313,l),
(389,233,l),
(347,151,l),
(335,92,ls),
(322,29,o),
(341,-15,o),
(399,-15,cs)
);
},
{
alignment = -1;
pos = (-2,0);
ref = _COM_brzuch_bdpq;
}
);
userData = {
com.hugojourdan.ColorFlow = {
"0" = 0;
"1" = 0;
"10" = 0;
"11" = 0;
"2" = 0;
"3" = 0;
"4" = 0;
"5" = 0;
"6" = 0;
"7" = 0;
"8" = 0;
"9" = 0;
};
};
width = 560;
},
{
anchors = (
{
name = bottom;
pos = (288,0);
},
{
name = center;
pos = (288,230);
},
{
name = top;
pos = (288,800);
},
{
name = topright;
pos = (654,700);
}
);
layerId = "503E420B-61F7-4277-A1BE-A8852071B452";
shapes = (
{
closed = 1;
nodes = (
(481,-15,o),
(539,26,o),
(576,85,c),
(567,94,o),
(557,100,o),
(546,105,c),
(518,67,o),
(500,50,o),
(481,50,cs),
(459,50,o),
(460,73,o),
(468,110,cs),
(553,510,ls),
(566,571,o),
(590,670,o),
(611,715,c),
(546,704,o),
(483,700,o),
(406,700,c),
(402,690,o),
(398,672,o),
(398,663,c),
(450,663,l),
(448,618,o),
(440,566,o),
(428,510,cs),
(388,323,l),
(388,250,l),
(353,155,l),
(341,100,ls),
(327,38,o),
(348,-15,o),
(419,-15,cs)
);
},
{
alignment = -1;
pos = (6,0);
ref = _COM_brzuch_bdpq;
}
);
userData = {
com.hugojourdan.ColorFlow = {
"0" = 0;
"1" = 0;
"10" = 0;
"11" = 0;
"2" = 0;
"3" = 0;
"4" = 0;
"5" = 0;
"6" = 0;
"7" = 0;
"8" = 0;
"9" = 0;
};
};
width = 594;
},
{
associatedMasterId = "503E420B-61F7-4277-A1BE-A8852071B452";
layerId = "8292ED57-35F1-4911-ADD8-6ADB9E5B6E49";
name = "Nov 1 20, 23:41";
shapes = (
{
closed = 1;
nodes = (
(547,32,l),
(499,32,l),
(491,78,o),
(487,125,o),
(487,172,cs),
(487,528,ls),
(487,590,o),
(491,651,o),
(499,712,c),
(435,704,o),
(371,700,o),
(307,700,c),
(307,668,l),
(355,668,l),
(363,622,o),
(367,575,o),
(367,528,cs),
(367,404,l),
(336,435,o),
(295,452,o),
(251,452,cs),
(113,452,o),
(29,360,o),
(29,220,cs),
(29,80,o),
(113,-12,o),
(251,-12,cs),
(297,-12,o),
(339,8,o),
(367,39,c),
(361,-12,l),
(423,-4,o),
(485,0,o),
(547,0,c)
);
},
{
closed = 1;
nodes = (
(367,124,ls),
(367,69,o),
(328,20,o),
(275,20,cs),
(180,20,o),
(155,111,o),
(155,220,cs),
(155,328,o),
(170,420,o),
(263,420,cs),
(303,420,o),
(342,402,o),
(367,370,c)
);
}
);
width = 600;
},
{
anchors = (
{
name = bottom;
pos = (278,0);
},
{
name = center;
pos = (278,220);
},
{
name = top;
pos = (278,800);
},
{
name = topright;
pos = (543,440);
}
);
associatedMasterId = "45069982-2EFC-4B7D-8C53-1932E6EAC4CA";
layerId = "6A9DA483-A283-4EE4-9C3B-2A814C596584";
name = "Nov 18 20, 19:19";
shapes = (
{
alignment = -1;
pos = (-3,0);
ref = _COM_brzuch_bdpq;
},
{
pos = (285,0);
ref = l;
}
);
width = 578;
}
);
unicode = 100;
},
{
color = 6;
glyphname = eth;
lastChange = "2023-03-10 14:52:57 +0000";
layers = (
{
anchors = (
{
name = bottom;
pos = (213,0);
},
{
name = center;
pos = (260,220);
},
{
name = ogonek;
pos = (432,10);
},
{
name = top;
pos = (307,440);
},
{
name = topright;
pos = (558,440);
}
);
layerId = "45069982-2EFC-4B7D-8C53-1932E6EAC4CA";
shapes = (
{
closed = 1;
nodes = (
(300,435,l),
(152,435,o),
(37,314,o),
(37,155,cs),
(37,48,o),
(97,-15,o),
(210,-15,c),
(223,25,l),
(163,25,o),
(134,70,o),
(134,146,cs),
(134,278,o),
(211,395,o),
(292,395,c)
);
},
{
closed = 1;
nodes = (
(210,-15,l),
(380,-15,o),
(491,143,o),
(491,375,cs),
(491,489,o),
(438,654,o),
(230,710,c),
(222,698,o),
(218,687,o),
(216,673,c),
(439,613,o),
(422,390,o),
(373,206,c),
(349,95,o),
(289,25,o),
(223,25,c)
);
},
{
closed = 1;
nodes = (
(438,206,l),
(448,369,o),
(402,435,o),
(300,435,c),
(292,395,l),
(361,395,o),
(398,323,o),
(373,206,c)
);
},
{
closed = 1;
nodes = (
(472,718,o),
(462,729,o),
(455,736,c),
(214,538,l),
(219,529,o),
(227,518,o),
(237,510,c),
(477,708,l)
);
}
);
userData = {
com.hugojourdan.ColorFlow = {
"0" = 0;
"1" = 0;
"10" = 0;
"11" = 0;
"2" = 0;
"3" = 0;
"4" = 0;
"5" = 0;
"6" = 0;
"7" = 0;
"8" = 0;
"9" = 0;
};
};
width = 527;
},
{
anchors = (
{
name = bottom;
pos = (220,0);
},
{
name = center;
pos = (269,230);
},
{
name = ogonek;
pos = (454,10);
},
{
name = top;
pos = (318,460);
},
{
name = topright;
pos = (588,460);
}
);
layerId = "503E420B-61F7-4277-A1BE-A8852071B452";
shapes = (
{
closed = 1;
nodes = (
(293,435,l),
(143,435,o),
(31,310,o),
(31,158,cs),
(31,50,o),
(102,-15,o),
(217,-15,c),
(226,25,l),
(182,25,o),
(166,68,o),
(166,126,cs),
(166,265,o),
(221,395,o),
(299,395,c)
);
},
{
closed = 1;
nodes = (
(217,-15,l),
(392,-15,o),
(517,158,o),
(517,376,cs),
(517,526,o),
(470,674,o),
(245,730,c),
(239,719,o),
(236,705,o),
(232,690,c),
(425,640,o),
(403,386,o),
(360,210,c),
(340,119,o),
(295,25,o),
(226,25,c)
);
},
{
closed = 1;
nodes = (
(435,210,l),
(464,349,o),
(413,435,o),
(293,435,c),
(299,395,l),
(367,395,o),
(380,305,o),
(360,210,c)
);
},
{
closed = 1;
nodes = (
(510,718,o),
(500,729,o),
(493,736,c),
(252,538,l),
(259,525,o),
(265,519,o),
(275,510,c),
(515,708,l)
);
}
);
userData = {
com.hugojourdan.ColorFlow = {
"0" = 0;
"1" = 0;
"10" = 0;
"11" = 0;
"2" = 0;
"3" = 0;
"4" = 0;
"5" = 0;
"6" = 0;
"7" = 0;
"8" = 0;
"9" = 0;
};
};
width = 544;
}
);
unicode = 240;
},
{
color = 3;
glyphname = dcroat;
kernLeft = a;
kernRight = d;
lastChange = "2023-03-10 14:52:57 +0000";
layers = (
{
layerId = "45069982-2EFC-4B7D-8C53-1932E6EAC4CA";
shapes = (
{
closed = 1;
nodes = (
(595,547,o),
(599,563,o),
(599,580,c),
(291,580,l),
(285,563,o),
(281,547,o),
(281,530,c),
(589,530,l)
);
},
{
ref = d;
}
);
userData = {
com.hugojourdan.ColorFlow = {
"0" = 0;
"1" = 0;
"10" = 0;
"11" = 0;
"2" = 0;
"3" = 0;
"4" = 0;
"5" = 0;
"6" = 0;
"7" = 0;
"8" = 0;
"9" = 0;
};
};
width = 560;
},
{
layerId = "503E420B-61F7-4277-A1BE-A8852071B452";
shapes = (
{
closed = 1;
nodes = (
(648,557,o),
(652,573,o),
(652,590,c),
(314,590,l),
(308,573,o),
(304,557,o),
(304,540,c),
(642,540,l)
);
},
{
ref = d;
}
);
userData = {
com.hugojourdan.ColorFlow = {
"0" = 0;
"1" = 0;
"10" = 0;
"11" = 0;
"2" = 0;
"3" = 0;
"4" = 0;
"5" = 0;
"6" = 0;
"7" = 0;
"8" = 0;
"9" = 0;
};
};
width = 594;
}
);
unicode = 273;
},
{
color = 6;
glyphname = e;
kernLeft = o;
kernRight = e;
lastChange = "2023-03-10 14:52:57 +0000";
layers = (
{
anchors = (
{
name = bottom;
pos = (194,0);
},
{
name = ogonek;
pos = (282,0);
},
{
name = top;
pos = (307,440);
}
);
background = {
shapes = (
{
ref = o;
}
);
};
layerId = "45069982-2EFC-4B7D-8C53-1932E6EAC4CA";
shapes = (
{
closed = 1;
nodes = (
(160,40,o),
(127,69,o),
(127,145,cs),
(127,249,o),
(186,415,o),
(303,415,cs),
(346,415,o),
(360,388,o),
(360,360,cs),
(360,283,o),
(238,231,o),
(107,224,c),
(113,189,l),
(257,196,o),
(453,253,o),
(453,370,cs),
(453,412,o),
(422,455,o),
(321,455,cs),
(154,455,o),
(37,315,o),
(37,155,cs),
(37,49,o),
(95,-15,o),
(201,-15,cs),
(274,-15,o),
(353,22,o),
(415,110,c),
(405,119,o),
(397,125,o),
(385,130,c),
(324,61,o),
(260,40,o),
(221,40,cs)
);
}
);
userData = {
com.hugojourdan.ColorFlow = {
"0" = 0;
"1" = 0;
"10" = 0;
"11" = 0;
"2" = 0;
"3" = 0;
"4" = 0;
"5" = 0;
"6" = 0;
"7" = 0;
"8" = 0;
"9" = 0;
};
};
width = 469;
},
{
anchors = (
{
name = bottom;
pos = (217,0);
},
{
name = ogonek;
pos = (294,0);
},
{
name = top;
pos = (325,460);
}
);
background = {
shapes = (
{
ref = o;
}
);
};
layerId = "503E420B-61F7-4277-A1BE-A8852071B452";
shapes = (
{
closed = 1;
nodes = (
(197,48,o),
(165,79,o),
(165,152,cs),
(165,264,o),
(229,436,o),
(313,436,cs),
(335,436,o),
(357,421,o),
(357,379,cs),
(357,311,o),
(279,235,o),
(144,228,c),
(143,189,l),
(360,218,o),
(487,285,o),
(487,384,cs),
(487,433,o),
(444,475,o),
(331,475,cs),
(146,475,o),
(33,340,o),
(33,160,cs),
(33,52,o),
(102,-16,o),
(207,-16,cs),
(289,-16,o),
(378,24,o),
(451,125,c),
(441,133,o),
(433,139,o),
(421,145,c),
(353,64,o),
(295,48,o),
(256,48,cs)
);
}
);
userData = {
com.hugojourdan.ColorFlow = {
"0" = 0;
"1" = 0;
"10" = 0;
"11" = 0;
"2" = 0;
"3" = 0;
"4" = 0;
"5" = 0;
"6" = 0;
"7" = 0;
"8" = 0;
"9" = 0;
};
};
width = 497;
},
{
associatedMasterId = "45069982-2EFC-4B7D-8C53-1932E6EAC4CA";
layerId = "464CE593-00BB-4522-BCA4-E719CF42C354";
name = "Nov 3 20, 00:58";
shapes = (
{
closed = 1;
nodes = (
(404,104,l),
(367,41,o),
(325,17,o),
(251,17,cs),
(165,17,o),
(131,120,o),
(131,220,cs),
(131,259,l),
(292,259,ls),
(337,259,o),
(382,255,o),
(427,247,c),
(427,359,o),
(341,452,o),
(231,452,cs),
(103,452,o),
(35,356,o),
(35,220,cs),
(35,84,o),
(103,-12,o),
(231,-12,cs),
(328,-12,o),
(370,9,o),
(427,88,c)
);
},
{
closed = 1;
nodes = (
(133,287,l),
(138,365,o),
(158,424,o),
(231,424,cs),
(301,424,o),
(331,365,o),
(331,287,c)
);
}
);
width = 600;
},
{
associatedMasterId = "503E420B-61F7-4277-A1BE-A8852071B452";
layerId = "6764A393-3FBC-4E51-8A8A-5B2316EC6173";
name = "Nov 3 20, 00:58";
shapes = (
{
closed = 1;
nodes = (
(437,109,l),
(391,44,o),
(346,21,o),
(267,21,cs),
(183,21,o),
(155,123,o),
(155,220,cs),
(155,253,l),
(281,253,ls),
(341,253,o),
(401,249,o),
(461,241,c),
(461,359,o),
(363,452,o),
(245,452,cs),
(109,452,o),
(29,359,o),
(29,220,cs),
(29,81,o),
(109,-12,o),
(245,-12,cs),
(349,-12,o),
(394,9,o),
(461,88,c)
);
},
{
closed = 1;
nodes = (
(156,285,l),
(159,361,o),
(174,420,o),
(245,420,cs),
(312,420,o),
(335,360,o),
(335,285,c)
);
}
);
width = 600;
},
{
anchors = (
{
name = bottom;
pos = (251,0);
},
{
name = ogonek;
pos = (372,0);
},
{
name = top;
pos = (261,440);
}
);
associatedMasterId = "45069982-2EFC-4B7D-8C53-1932E6EAC4CA";
layerId = "9774698D-4763-44EA-BA86-ED11EFBDE1CF";
name = "Nov 18 20, 01:39";
shapes = (
{
closed = 1;
nodes = (
(277,-15,o),
(348,22,o),
(400,110,c),
(390,119,o),
(382,125,o),
(370,130,c),
(320,61,o),
(274,40,o),
(230,40,cs),
(167,40,o),
(133,92,o),
(133,178,cs),
(133,280,o),
(201,415,o),
(290,415,cs),
(331,415,o),
(347,388,o),
(346,354,c),
(346,283,o),
(238,238,o),
(107,218,c),
(113,183,l),
(257,203,o),
(436,253,o),
(436,362,c),
(436,406,o),
(407,455,o),
(305,455,cs),
(132,455,o),
(36,311,o),
(36,166,cs),
(36,54,o),
(98,-15,o),
(203,-15,cs)
);
}
);
width = 444;
},
{
anchors = (
{
name = bottom;
pos = (263,0);
},
{
name = ogonek;
pos = (284,0);
},
{
name = top;
pos = (273,440);
}
);
associatedMasterId = "45069982-2EFC-4B7D-8C53-1932E6EAC4CA";
layerId = "E3E0FE3B-0BE0-4E0A-859F-33EAFA713A2E";
name = "Nov 20 20, 13:44";
shapes = (
{
closed = 1;
nodes = (
(165,40,o),
(129,72,o),
(129,155,cs),
(129,255,o),
(188,415,o),
(305,415,cs),
(348,415,o),
(362,388,o),
(362,360,cs),
(362,283,o),
(240,238,o),
(109,218,c),
(115,183,l),
(259,203,o),
(455,253,o),
(455,370,cs),
(455,412,o),
(424,455,o),
(323,455,cs),
(153,455,o),
(34,314,o),
(39,155,cs),
(42,52,o),
(101,-15,o),
(211,-15,cs),
(289,-15,o),
(365,22,o),
(417,110,c),
(407,119,o),
(399,125,o),
(387,130,c),
(337,61,o),
(276,40,o),
(231,40,cs)
);
}
);
width = 461;
},
{
anchors = (
{
name = bottom;
pos = (282,0);
},
{
name = ogonek;
pos = (296,0);
},
{
name = top;
pos = (292,460);
}
);
associatedMasterId = "503E420B-61F7-4277-A1BE-A8852071B452";
layerId = "78395DFC-F3BB-4FFF-8B65-B5DAFC4943B1";
name = "Nov 20 20, 13:52";
shapes = (
{
closed = 1;
nodes = (
(202,48,o),
(167,84,o),
(167,167,cs),
(167,273,o),
(226,436,o),
(311,436,cs),
(341,436,o),
(359,415,o),
(359,373,cs),
(359,290,o),
(288,251,o),
(146,219,c),
(145,180,l),
(363,230,o),
(489,288,o),
(489,382,cs),
(489,450,o),
(424,475,o),
(339,475,cs),
(145,475,o),
(35,346,o),
(35,175,cs),
(35,58,o),
(108,-16,o),
(219,-16,cs),
(298,-16,o),
(391,24,o),
(453,125,c),
(443,133,o),
(435,139,o),
(423,145,c),
(367,64,o),
(305,48,o),
(268,48,cs)
);
}
);
width = 494;
}
);
unicode = 101;
},
{
color = 3;
glyphname = eogonek;
kernLeft = o;
kernRight = e;
lastChange = "2023-03-10 14:52:57 +0000";
layers = (
{
anchors = (
{
name = _ogonek;
pos = (282,0);
}
);
layerId = "45069982-2EFC-4B7D-8C53-1932E6EAC4CA";
shapes = (
{
closed = 1;
nodes = (
(185,-225,o),
(231,-203,o),
(265,-178,c),
(264,-166,o),
(259,-156,o),
(253,-149,c),
(226,-164,o),
(205,-169,o),
(189,-169,cs),
(160,-169,o),
(145,-153,o),
(145,-130,cs),
(145,-76,o),
(197,-27,o),
(282,0,c),
(268,17,l),
(161,-12,o),
(57,-58,o),
(57,-151,cs),
(57,-193,o),
(95,-225,o),
(142,-225,cs)
);
},
{
ref = e;
}
);
userData = {
com.hugojourdan.ColorFlow = {
"0" = 0;
"1" = 0;
"10" = 0;
"11" = 0;
"2" = 0;
"3" = 0;
"4" = 0;
"5" = 0;
"6" = 0;
"7" = 0;
"8" = 0;
"9" = 0;
};
};
width = 469;
},
{
anchors = (
{
name = _ogonek;
pos = (294,0);
}
);
layerId = "503E420B-61F7-4277-A1BE-A8852071B452";
shapes = (
{
closed = 1;
nodes = (
(203,-225,o),
(249,-203,o),
(277,-178,c),
(276,-172,o),
(273,-158,o),
(265,-149,c),
(239,-164,o),
(221,-169,o),
(206,-169,cs),
(181,-169,o),
(168,-154,o),
(168,-133,cs),
(168,-79,o),
(214,-28,o),
(294,0,c),
(279,16,l),
(164,-14,o),
(59,-59,o),
(59,-150,cs),
(59,-195,o),
(103,-225,o),
(159,-225,cs)
);
},
{
ref = e;
}
);
userData = {
com.hugojourdan.ColorFlow = {
"0" = 0;
"1" = 0;
"10" = 0;
"11" = 0;
"2" = 0;
"3" = 0;
"4" = 0;
"5" = 0;
"6" = 0;
"7" = 0;
"8" = 0;
"9" = 0;
};
};
width = 497;
}
);
unicode = 281;
},
{
color = 6;
glyphname = f;
lastChange = "2023-03-10 14:52:57 +0000";
layers = (
{
anchors = (
{
name = bottom;
pos = (106,0);
},
{
name = top;
pos = (263,800);
}
);
layerId = "45069982-2EFC-4B7D-8C53-1932E6EAC4CA";
shapes = (
{
closed = 1;
nodes = (
(190,720,o),
(140,634,o),
(127,440,cs),
(123,377,o),
(108,303,o),
(100,260,cs),
(62,60,ls),
(33,-95,o),
(-21,-162,o),
(-105,-187,c),
(-105,-202,o),
(-101,-217,o),
(-97,-225,c),
(93,-185,o),
(132,-43,o),
(160,104,cs),
(217,400,l),
(220,440,l),
(215,463,o),
(211,492,o),
(211,534,cs),
(211,630,o),
(235,681,o),
(270,681,cs),
(297,681,o),
(301,652,o),
(285,601,c),
(370,601,l),
(391,671,o),
(369,720,o),
(298,720,cs)
);
},
{
closed = 1;
nodes = (
(317,412,o),
(320,429,o),
(321,440,c),
(61,440,l),
(56,428,o),
(53,410,o),
(52,400,c),
(312,400,l)
);
}
);
userData = {
com.hugojourdan.ColorFlow = {
"0" = 0;
"1" = 0;
"10" = 0;
"11" = 0;
"2" = 0;
"3" = 0;
"4" = 0;
"5" = 0;
"6" = 0;
"7" = 0;
"8" = 0;
"9" = 0;
};
};
width = 293;
},
{
anchors = (
{
name = bottom;
pos = (113,0);
},
{
name = top;
pos = (270,800);
}
);
layerId = "503E420B-61F7-4277-A1BE-A8852071B452";
shapes = (
{
closed = 1;
nodes = (
(212,720,o),
(138,662,o),
(122,459,cs),
(116,386,o),
(107,327,o),
(98,280,cs),
(50,30,ls),
(26,-94,o),
(-20,-166,o),
(-106,-187,c),
(-105,-205,o),
(-102,-212,o),
(-96,-225,c),
(130,-205,o),
(167,-10,o),
(191,114,cs),
(250,415,l),
(247,460,l),
(241,488,o),
(232,524,o),
(232,567,cs),
(232,634,o),
(249,680,o),
(280,680,cs),
(304,680,o),
(309,653,o),
(293,595,c),
(398,595,l),
(418,670,o),
(392,720,o),
(311,720,cs)
);
},
{
closed = 1;
nodes = (
(353,427,o),
(358,447,o),
(358,460,c),
(58,460,l),
(54,448,o),
(49,427,o),
(49,415,c),
(349,415,l)
);
}
);
userData = {
com.hugojourdan.ColorFlow = {
"0" = 0;
"1" = 0;
"10" = 0;
"11" = 0;
"2" = 0;
"3" = 0;
"4" = 0;
"5" = 0;
"6" = 0;
"7" = 0;
"8" = 0;
"9" = 0;
};
};
width = 322;
},
{
associatedMasterId = "45069982-2EFC-4B7D-8C53-1932E6EAC4CA";
layerId = "12DBD2D3-25FE-44A0-9205-AE0C724813A7";
name = "Nov 3 20, 20:07";
shapes = (
{
closed = 1;
nodes = (
(342,613,l),
(342,658,l),
(306,703,o),
(288,712,o),
(230,712,cs),
(106,712,o),
(98,567,o),
(98,496,cs),
(98,440,l),
(26,440,l),
(26,412,l),
(98,412,l),
(98,168,ls),
(98,121,o),
(94,74,o),
(86,28,c),
(26,28,l),
(26,0,l),
(266,0,l),
(266,28,l),
(200,28,l),
(192,74,o),
(188,121,o),
(188,168,cs),
(188,412,l),
(266,412,l),
(266,440,l),
(188,440,l),
(188,469,o),
(185,498,o),
(182,526,cs),
(178,555,o),
(175,584,o),
(175,613,cs),
(175,649,o),
(196,684,o),
(230,684,cs),
(260,684,o),
(267,647,o),
(267,613,c)
);
}
);
width = 600;
},
{
associatedMasterId = "503E420B-61F7-4277-A1BE-A8852071B452";
layerId = "AB8C816C-6AA6-4A78-B694-778A2F1C4366";
name = "Nov 3 20, 20:07";
shapes = (
{
closed = 1;
nodes = (
(383,613,l),
(383,673,l),
(335,707,o),
(318,712,o),
(259,712,cs),
(135,712,o),
(117,574,o),
(117,504,cs),
(117,440,l),
(45,440,l),
(45,408,l),
(117,408,l),
(117,172,ls),
(117,125,o),
(113,78,o),
(105,32,c),
(45,32,l),
(45,0,l),
(315,0,l),
(315,32,l),
(249,32,l),
(241,78,o),
(237,125,o),
(237,172,cs),
(237,408,l),
(315,408,l),
(315,440,l),
(237,440,l),
(237,469,o),
(234,498,o),
(231,526,cs),
(228,555,o),
(224,584,o),
(224,613,cs),
(224,645,o),
(231,680,o),
(259,680,cs),
(287,680,o),
(283,643,o),
(283,613,c)
);
}
);
width = 493;
},
{
anchors = (
{
name = bottom;
pos = (164,0);
},
{
name = top;
pos = (164,800);
}
);
associatedMasterId = "45069982-2EFC-4B7D-8C53-1932E6EAC4CA";
layerId = "0DB7F4D7-2667-4F49-BB0F-F3FC9FAC9933";
name = "Nov 13 20, 12:13";
shapes = (
{
closed = 1;
nodes = (
(332,673,o),
(306,720,o),
(226,720,cs),
(121,720,o),
(81,634,o),
(95,420,cs),
(99,353,o),
(101,307,o),
(101,260,cs),
(101,180,ls),
(101,130,o),
(98,85,o),
(91,35,c),
(34,35,l),
(32,25,o),
(32,8,o),
(34,-2,c),
(75,0,o),
(110,0,o),
(149,0,cs),
(187,0,o),
(222,0,o),
(283,-2,c),
(285,8,o),
(285,25,o),
(283,35,c),
(206,35,l),
(199,85,o),
(196,130,o),
(196,180,cs),
(196,400,l),
(191,440,l),
(176,491,o),
(162,535,o),
(162,604,cs),
(162,658,o),
(178,685,o),
(205,685,cs),
(231,685,o),
(241,653,o),
(236,611,c),
(331,611,l)
);
},
{
closed = 1;
nodes = (
(313,412,o),
(313,428,o),
(311,440,c),
(31,440,l),
(29,428,o),
(29,412,o),
(31,400,c),
(311,400,l)
);
}
);
width = 338;
}
);
unicode = 102;
},
{
color = 6;
glyphname = g;
kernLeft = a;
kernRight = g;
lastChange = "2023-03-10 14:52:57 +0000";
layers = (
{
anchors = (
{
name = bottom;
pos = (257,0);
},
{
name = top;
pos = (301,440);
}
);
guides = (
{
pos = (141,5);
}
);
layerId = "45069982-2EFC-4B7D-8C53-1932E6EAC4CA";
shapes = (
{
closed = 1;
nodes = (
(309,5,o),
(418,163,o),
(418,313,c),
(463,369,l),
(440,417,o),
(393,455,o),
(306,455,cs),
(138,455,o),
(37,300,o),
(37,147,cs),
(37,54,o),
(86,5,o),
(167,5,cs)
);
},
{
closed = 1;
nodes = (
(164,65,o),
(133,91,o),
(133,153,cs),
(133,261,o),
(211,415,o),
(309,415,cs),
(355,415,o),
(381,378,o),
(381,312,cs),
(381,205,o),
(314,65,o),
(207,65,cs)
);
},
{
closed = 1;
nodes = (
(242,-225,o),
(381,-120,o),
(421,70,cs),
(461,260,ls),
(472,311,o),
(491,387,o),
(510,440,c),
(499,442,o),
(489,442,o),
(478,440,c),
(396,375,l),
(395,248,l),
(345,116,l),
(333,64,ls),
(300,-78,o),
(234,-185,o),
(125,-185,cs),
(69,-185,o),
(47,-157,o),
(47,-111,cs),
(47,-59,o),
(76,-21,o),
(133,12,c),
(113,30,l),
(69,10,o),
(-34,-37,o),
(-34,-125,cs),
(-34,-192,o),
(25,-225,o),
(103,-225,cs)
);
}
);
userData = {
com.hugojourdan.ColorFlow = {
"0" = 0;
"1" = 0;
"10" = 0;
"11" = 0;
"2" = 0;
"3" = 0;
"4" = 0;
"5" = 0;
"6" = 0;
"7" = 0;
"8" = 0;
"9" = 0;
};
};
width = 529;
},
{
anchors = (
{
name = bottom;
pos = (301,0);
},
{
name = top;
pos = (329,460);
}
);
guides = (
{
pos = (145,5);
}
);
layerId = "503E420B-61F7-4277-A1BE-A8852071B452";
shapes = (
{
closed = 1;
nodes = (
(327,5,o),
(426,166,o),
(426,328,c),
(496,388,l),
(461,440,o),
(406,475,o),
(314,475,cs),
(128,475,o),
(35,327,o),
(35,167,cs),
(35,63,o),
(90,5,o),
(183,5,cs)
);
},
{
closed = 1;
nodes = (
(196,68,o),
(175,102,o),
(175,164,cs),
(175,268,o),
(225,435,o),
(316,435,cs),
(363,435,o),
(388,395,o),
(388,324,cs),
(388,216,o),
(328,68,o),
(240,68,cs)
);
},
{
closed = 1;
nodes = (
(290,-225,o),
(422,-122,o),
(467,96,cs),
(503,270,ls),
(515,330,o),
(536,410,o),
(554,460,c),
(543,462,o),
(533,462,o),
(522,460,c),
(404,392,l),
(404,242,l),
(354,131,l),
(334,34,ls),
(305,-105,o),
(222,-185,o),
(126,-185,cs),
(73,-185,o),
(52,-160,o),
(52,-121,cs),
(52,-67,o),
(91,-10,o),
(147,13,c),
(115,30,l),
(27,-1,o),
(-49,-43,o),
(-49,-119,cs),
(-49,-187,o),
(13,-225,o),
(115,-225,cs)
);
}
);
userData = {
com.hugojourdan.ColorFlow = {
"0" = 0;
"1" = 0;
"10" = 0;
"11" = 0;
"2" = 0;
"3" = 0;
"4" = 0;
"5" = 0;
"6" = 0;
"7" = 0;
"8" = 0;
"9" = 0;
};
};
width = 564;
}
);
unicode = 103;
},
{
color = 3;
glyphname = h;
kernLeft = h;
kernRight = n;
lastChange = "2023-03-10 14:52:57 +0000";
layers = (
{
anchors = (
{
name = bottom;
pos = (209,0);
},
{
name = center;
pos = (294,400);
},
{
name = top;
pos = (218,690);
},
{
name = topright;
pos = (338,700);
}
);
layerId = "45069982-2EFC-4B7D-8C53-1932E6EAC4CA";
shapes = (
{
closed = 1;
nodes = (
(62,-1,o),
(91,0,o),
(126,0,c),
(128,34,o),
(134,68,o),
(141,102,cs),
(229,520,ls),
(240,570,o),
(262,660,o),
(285,713,c),
(222,702,o),
(156,700,o),
(110,700,c),
(106,690,o),
(102,672,o),
(102,663,c),
(159,663,l),
(156,613,o),
(148,565,o),
(139,520,cs),
(51,102,ls),
(44,68,o),
(36,34,o),
(27,-5,c)
);
},
{
alignment = -1;
pos = (103,0);
ref = _COM_noga_n;
}
);
userData = {
com.hugojourdan.ColorFlow = {
"0" = 0;
"1" = 0;
"10" = 0;
"11" = 0;
"2" = 0;
"3" = 0;
"4" = 0;
"5" = 0;
"6" = 0;
"7" = 0;
"8" = 0;
"9" = 0;
};
};
width = 551;
},
{
anchors = (
{
name = bottom;
pos = (327,0);
},
{
name = center;
pos = (327,400);
},
{
name = top;
pos = (232,700);
},
{
name = topright;
pos = (308,700);
}
);
layerId = "503E420B-61F7-4277-A1BE-A8852071B452";
shapes = (
{
closed = 1;
nodes = (
(64,-1,o),
(108,0,o),
(156,0,c),
(158,37,o),
(161,73,o),
(169,110,cs),
(254,510,ls),
(267,571,o),
(291,670,o),
(312,715,c),
(247,704,o),
(184,700,o),
(107,700,c),
(103,690,o),
(99,672,o),
(99,663,c),
(151,663,l),
(149,618,o),
(141,566,o),
(129,510,cs),
(45,112,ls),
(37,75,o),
(30,42,o),
(16,-5,c)
);
},
{
alignment = -1;
pos = (-23,0);
ref = _COM_noga_n;
}
);
userData = {
com.hugojourdan.ColorFlow = {
"0" = 0;
"1" = 0;
"10" = 0;
"11" = 0;
"2" = 0;
"3" = 0;
"4" = 0;
"5" = 0;
"6" = 0;
"7" = 0;
"8" = 0;
"9" = 0;
};
};
width = 586;
}
);
unicode = 104;
},
{
color = 3;
glyphname = hbar;
kernLeft = h;
kernRight = n;
lastChange = "2023-03-10 14:52:57 +0000";
layers = (
{
layerId = "45069982-2EFC-4B7D-8C53-1932E6EAC4CA";
shapes = (
{
closed = 1;
nodes = (
(386,547,o),
(390,563,o),
(390,580,c),
(82,580,l),
(76,563,o),
(72,547,o),
(72,530,c),
(380,530,l)
);
},
{
pos = (4,0);
ref = h;
}
);
userData = {
com.hugojourdan.ColorFlow = {
"0" = 0;
"1" = 0;
"10" = 0;
"11" = 0;
"2" = 0;
"3" = 0;
"4" = 0;
"5" = 0;
"6" = 0;
"7" = 0;
"8" = 0;
"9" = 0;
};
};
width = 555;
},
{
layerId = "503E420B-61F7-4277-A1BE-A8852071B452";
shapes = (
{
closed = 1;
nodes = (
(405,557,o),
(409,573,o),
(409,590,c),
(71,590,l),
(65,573,o),
(61,557,o),
(61,540,c),
(399,540,l)
);
},
{
ref = h;
}
);
userData = {
com.hugojourdan.ColorFlow = {
"0" = 0;
"1" = 0;
"10" = 0;
"11" = 0;
"2" = 0;
"3" = 0;
"4" = 0;
"5" = 0;
"6" = 0;
"7" = 0;
"8" = 0;
"9" = 0;
};
};
width = 586;
}
);
unicode = 295;
},
{
color = 6;
glyphname = idotless;
kernLeft = i;
kernRight = i;
lastChange = "2023-03-10 14:52:57 +0000";
layers = (
{
anchors = (
{
name = bottom;
pos = (115,0);
},
{
name = ogonek;
pos = (184,0);
},
{
name = top;
pos = (180,440);
}
);
layerId = "45069982-2EFC-4B7D-8C53-1932E6EAC4CA";
shapes = (
{
closed = 1;
nodes = (
(183,-15,o),
(237,26,o),
(269,86,c),
(259,95,o),
(251,101,o),
(239,106,c),
(208,58,o),
(185,40,o),
(167,40,cs),
(148,40,o),
(146,61,o),
(153,92,cs),
(189,260,ls),
(200,310,o),
(222,400,o),
(245,453,c),
(181,442,o),
(122,440,o),
(70,440,c),
(66,430,o),
(62,413,o),
(62,403,c),
(119,403,l),
(114,336,o),
(108,300,o),
(99,260,cs),
(63,92,ls),
(50,29,o),
(69,-15,o),
(127,-15,cs)
);
}
);
userData = {
com.hugojourdan.ColorFlow = {
"0" = 0;
"1" = 0;
"10" = 0;
"11" = 0;
"2" = 0;
"3" = 0;
"4" = 0;
"5" = 0;
"6" = 0;
"7" = 0;
"8" = 0;
"9" = 0;
};
};
width = 294;
},
{
anchors = (
{
name = bottom;
pos = (122,0);
},
{
name = ogonek;
pos = (194,0);
},
{
name = top;
pos = (192,460);
}
);
layerId = "503E420B-61F7-4277-A1BE-A8852071B452";
shapes = (
{
closed = 1;
nodes = (
(196,-15,o),
(254,26,o),
(291,85,c),
(282,94,o),
(272,100,o),
(261,105,c),
(233,67,o),
(215,50,o),
(196,50,cs),
(174,50,o),
(175,73,o),
(183,110,cs),
(217,270,ls),
(230,331,o),
(254,430,o),
(275,475,c),
(210,464,o),
(147,460,o),
(70,460,c),
(66,450,o),
(62,432,o),
(62,423,c),
(114,423,l),
(112,378,o),
(104,325,o),
(92,270,cs),
(56,100,ls),
(43,38,o),
(63,-15,o),
(134,-15,cs)
);
}
);
userData = {
com.hugojourdan.ColorFlow = {
"0" = 0;
"1" = 0;
"10" = 0;
"11" = 0;
"2" = 0;
"3" = 0;
"4" = 0;
"5" = 0;
"6" = 0;
"7" = 0;
"8" = 0;
"9" = 0;
};
};
width = 314;
}
);
unicode = 305;
},
{
color = 10;
glyphname = j;
kernLeft = j;
kernRight = j;
lastChange = "2023-03-10 14:52:57 +0000";
layers = (
{
layerId = "45069982-2EFC-4B7D-8C53-1932E6EAC4CA";
shapes = (
{
ref = jdotless;
},
{
pos = (137,0);
ref = dotaccentcomb;
}
);
userData = {
com.hugojourdan.ColorFlow = {
"0" = 0;
"1" = 0;
"10" = 0;
"11" = 0;
"2" = 0;
"3" = 0;
"4" = 0;
"5" = 0;
"6" = 0;
"7" = 0;
"8" = 0;
"9" = 0;
};
};
width = 262;
},
{
layerId = "503E420B-61F7-4277-A1BE-A8852071B452";
shapes = (
{
ref = jdotless;
},
{
pos = (145,0);
ref = dotaccentcomb;
}
);
userData = {
com.hugojourdan.ColorFlow = {
"0" = 0;
"1" = 0;
"10" = 0;
"11" = 0;
"2" = 0;
"3" = 0;
"4" = 0;
"5" = 0;
"6" = 0;
"7" = 0;
"8" = 0;
"9" = 0;
};
};
width = 281;
},
{
associatedMasterId = "503E420B-61F7-4277-A1BE-A8852071B452";
layerId = "8B0BFA18-3464-45E4-9F7C-CCA1A6E5FB42";
name = "Nov 3 20, 19:30";
shapes = (
{
closed = 1;
nodes = (
(262,408,l),
(262,440,l),
(22,440,l),
(22,408,l),
(70,408,l),
(78,362,o),
(82,315,o),
(82,268,cs),
(82,-65,ls),
(82,-118,o),
(72,-177,o),
(26,-177,cs),
(-6,-177,o),
(-11,-135,o),
(-11,-97,c),
(-71,-97,l),
(-71,-153,l),
(-59,-186,o),
(-28,-209,o),
(8,-209,cs),
(118,-209,o),
(202,-113,o),
(202,0,cs),
(202,268,ls),
(202,315,o),
(206,362,o),
(214,408,c)
);
},
{
closed = 1;
nodes = (
(202,567,l),
(202,617,l),
(167,652,l),
(117,652,l),
(82,617,l),
(82,567,l),
(117,532,l),
(167,532,l)
);
}
);
width = 600;
},
{
associatedMasterId = "45069982-2EFC-4B7D-8C53-1932E6EAC4CA";
layerId = "4E017742-BA0F-4C89-810E-8F2D7B76CDC3";
name = "Nov 3 20, 19:30";
shapes = (
{
closed = 1;
nodes = (
(134,444,o),
(80,440,o),
(26,440,c),
(26,412,l),
(74,412,l),
(82,366,o),
(86,319,o),
(86,272,cs),
(86,-74,ls),
(86,-126,o),
(73,-181,o),
(28,-181,cs),
(-2,-181,o),
(-11,-145,o),
(-11,-111,c),
(-56,-111,l),
(-56,-160,l),
(-48,-189,o),
(-22,-209,o),
(8,-209,cs),
(109,-209,o),
(176,-109,o),
(176,0,cs),
(176,272,ls),
(176,332,o),
(180,392,o),
(188,452,c)
);
},
{
closed = 1;
nodes = (
(181,555,l),
(181,613,l),
(131,642,l),
(81,613,l),
(81,555,l),
(131,526,l)
);
}
);
width = 600;
}
);
unicode = 106;
},
{
color = 6;
glyphname = jdotless;
kernLeft = j;
kernRight = j;
lastChange = "2023-03-10 14:52:57 +0000";
layers = (
{
anchors = (
{
name = top;
pos = (184,440);
}
);
layerId = "45069982-2EFC-4B7D-8C53-1932E6EAC4CA";
shapes = (
{
closed = 1;
nodes = (
(97,-185,o),
(127,-43,o),
(159,104,cs),
(193,260,ls),
(204,310,o),
(225,399,o),
(249,453,c),
(186,442,o),
(125,440,o),
(74,440,c),
(70,429,o),
(67,413,o),
(66,403,c),
(123,403,l),
(120,353,o),
(113,308,o),
(103,260,cs),
(61,60,ls),
(29,-91,o),
(-17,-163,o),
(-101,-187,c),
(-101,-201,o),
(-97,-216,o),
(-92,-225,c)
);
}
);
userData = {
com.hugojourdan.ColorFlow = {
"0" = 0;
"1" = 0;
"10" = 0;
"11" = 0;
"2" = 0;
"3" = 0;
"4" = 0;
"5" = 0;
"6" = 0;
"7" = 0;
"8" = 0;
"9" = 0;
};
};
width = 262;
},
{
anchors = (
{
name = top;
pos = (195,460);
}
);
layerId = "503E420B-61F7-4277-A1BE-A8852071B452";
shapes = (
{
closed = 1;
nodes = (
(112,-206,o),
(153,-40,o),
(186,114,cs),
(219,270,ls),
(232,330,o),
(255,427,o),
(278,475,c),
(212,464,o),
(150,460,o),
(73,460,c),
(69,451,o),
(65,434,o),
(65,423,c),
(117,423,l),
(114,372,o),
(104,319,o),
(94,270,cs),
(43,30,ls),
(17,-90,o),
(-23,-167,o),
(-109,-187,c),
(-108,-204,o),
(-104,-214,o),
(-98,-225,c)
);
}
);
userData = {
com.hugojourdan.ColorFlow = {
"0" = 0;
"1" = 0;
"10" = 0;
"11" = 0;
"2" = 0;
"3" = 0;
"4" = 0;
"5" = 0;
"6" = 0;
"7" = 0;
"8" = 0;
"9" = 0;
};
};
width = 281;
},
{
associatedMasterId = "503E420B-61F7-4277-A1BE-A8852071B452";
layerId = "7DFE533A-C31D-4595-AD02-F7928B2B8A8E";
name = "Nov 3 20, 19:34";
shapes = (
{
closed = 1;
nodes = (
(262,408,l),
(262,440,l),
(22,440,l),
(22,408,l),
(70,408,l),
(78,362,o),
(82,315,o),
(82,268,cs),
(82,-65,ls),
(82,-118,o),
(72,-177,o),
(26,-177,cs),
(-6,-177,o),
(-11,-135,o),
(-11,-97,c),
(-71,-97,l),
(-71,-153,l),
(-59,-186,o),
(-28,-209,o),
(8,-209,cs),
(118,-209,o),
(202,-113,o),
(202,0,cs),
(202,268,ls),
(202,315,o),
(206,362,o),
(214,408,c)
);
},
{
closed = 1;
nodes = (
(202,567,l),
(202,617,l),
(167,652,l),
(117,652,l),
(82,617,l),
(82,567,l),
(117,532,l),
(167,532,l)
);
}
);
width = 600;
}
);
unicode = 567;
},
{
color = 6;
glyphname = k;
kernLeft = h;
kernRight = k;
lastChange = "2023-03-10 14:52:57 +0000";
layers = (
{
anchors = (
{
name = bottom;
pos = (217,0);
},
{
name = top;
pos = (362,800);
}
);
layerId = "45069982-2EFC-4B7D-8C53-1932E6EAC4CA";
shapes = (
{
closed = 1;
nodes = (
(62,-1,o),
(91,0,o),
(126,0,c),
(128,34,o),
(134,68,o),
(141,102,cs),
(229,520,ls),
(239,568,o),
(263,659,o),
(285,713,c),
(222,702,o),
(156,700,o),
(110,700,c),
(106,690,o),
(102,672,o),
(102,663,c),
(159,663,l),
(156,613,o),
(148,565,o),
(139,520,cs),
(51,102,ls),
(39,45,o),
(35,31,o),
(27,-5,c)
);
},
{
closed = 1;
nodes = (
(299,16,o),
(318,-15,o),
(373,-15,cs),
(437,-15,o),
(476,26,o),
(508,86,c),
(498,95,o),
(490,101,o),
(478,106,c),
(447,58,o),
(426,40,o),
(407,40,cs),
(389,40,o),
(385,57,o),
(383,73,cs),
(377,117,ls),
(369,177,o),
(330,205,o),
(263,205,cs),
(160,205,l),
(152,180,l),
(186,180,ls),
(237,180,o),
(282,160,o),
(289,103,cs),
(295,51,ls)
);
},
{
closed = 1;
nodes = (
(244,195,l),
(386,213,o),
(481,286,o),
(481,370,cs),
(481,429,o),
(441,455,o),
(387,455,cs),
(295,455,o),
(181,378,o),
(140,205,c),
(169,205,l),
(192,317,o),
(282,395,o),
(345,395,cs),
(377,395,o),
(394,377,o),
(394,348,cs),
(394,280,o),
(302,215,o),
(167,215,c),
(166,195,l)
);
}
);
userData = {
com.hugojourdan.ColorFlow = {
"0" = 0;
"1" = 0;
"10" = 0;
"11" = 0;
"2" = 0;
"3" = 0;
"4" = 0;
"5" = 0;
"6" = 0;
"7" = 0;
"8" = 0;
"9" = 0;
};
};
width = 525;
},
{
anchors = (
{
name = bottom;
pos = (247,0);
},
{
name = top;
pos = (412,800);
}
);
layerId = "503E420B-61F7-4277-A1BE-A8852071B452";
shapes = (
{
closed = 1;
nodes = (
(64,-1,o),
(108,0,o),
(156,0,c),
(158,37,o),
(161,73,o),
(169,110,cs),
(254,510,ls),
(267,571,o),
(291,668,o),
(312,715,c),
(247,704,o),
(184,700,o),
(107,700,c),
(103,690,o),
(99,672,o),
(99,663,c),
(151,663,l),
(149,618,o),
(141,566,o),
(129,510,cs),
(45,112,ls),
(37,75,o),
(32,53,o),
(16,-5,c)
);
},
{
closed = 1;
nodes = (
(311,15,o),
(338,-15,o),
(402,-15,cs),
(459,-15,o),
(509,16,o),
(549,85,c),
(540,94,o),
(530,100,o),
(519,105,c),
(491,67,o),
(472,50,o),
(456,50,cs),
(437,50,o),
(430,64,o),
(426,87,cs),
(417,134,ls),
(407,184,o),
(375,220,o),
(286,220,c),
(191,220,l),
(182,180,l),
(198,180,ls),
(252,180,o),
(287,151,o),
(296,100,cs),
(303,60,ls)
);
},
{
closed = 1;
nodes = (
(282,204,l),
(453,231,o),
(523,322,o),
(523,395,cs),
(523,448,o),
(476,475,o),
(423,475,cs),
(328,475,o),
(201,387,o),
(164,220,c),
(192,220,l),
(218,331,o),
(309,405,o),
(365,405,cs),
(387,405,o),
(408,394,o),
(408,359,cs),
(408,296,o),
(337,220,o),
(192,220,c),
(192,204,l)
);
}
);
userData = {
com.hugojourdan.ColorFlow = {
"0" = 0;
"1" = 0;
"10" = 0;
"11" = 0;
"2" = 0;
"3" = 0;
"4" = 0;
"5" = 0;
"6" = 0;
"7" = 0;
"8" = 0;
"9" = 0;
};
};
width = 563;
},
{
anchors = (
{
name = bottom;
pos = (198,0);
},
{
name = top;
pos = (368,800);
}
);
associatedMasterId = "45069982-2EFC-4B7D-8C53-1932E6EAC4CA";
layerId = "72D2EA87-04B6-447E-B71B-2BF29025C9B2";
name = "Nov 18 20, 02:35";
shapes = (
{
closed = 1;
nodes = (
(68,-1,o),
(97,0,o),
(132,0,c),
(134,34,o),
(140,68,o),
(147,102,cs),
(235,520,ls),
(246,570,o),
(268,660,o),
(291,713,c),
(228,702,o),
(162,700,o),
(116,700,c),
(112,690,o),
(108,672,o),
(108,663,c),
(165,663,l),
(162,613,o),
(154,565,o),
(145,520,cs),
(57,102,ls),
(50,68,o),
(42,34,o),
(33,-5,c)
);
},
{
closed = 1;
nodes = (
(393,-10,o),
(419,-6,o),
(438,0,c),
(443,12,o),
(445,24,o),
(446,35,c),
(406,36,o),
(401,49,o),
(396,97,cs),
(391,148,ls),
(387,186,o),
(366,225,o),
(294,225,c),
(166,225,l),
(158,190,l),
(227,190,ls),
(293,190,o),
(302,158,o),
(305,128,cs),
(309,87,ls),
(314,36,o),
(314,-10,o),
(372,-10,cs)
);
},
{
closed = 1;
nodes = (
(346,205,o),
(468,283,o),
(468,382,cs),
(468,423,o),
(446,455,o),
(386,455,cs),
(287,455,o),
(184,388,o),
(148,225,c),
(173,225,l),
(198,342,o),
(289,400,o),
(342,400,cs),
(365,400,o),
(381,389,o),
(381,355,cs),
(381,279,o),
(274,225,o),
(173,225,c),
(172,205,l)
);
}
);
width = 490;
},
{
anchors = (
{
name = bottom;
pos = (251,0);
},
{
name = top;
pos = (421,800);
}
);
associatedMasterId = "503E420B-61F7-4277-A1BE-A8852071B452";
layerId = "6FC3B977-EF0B-4AD5-BA58-003F6F5393F2";
name = "Nov 18 20, 02:42";
shapes = (
{
closed = 1;
nodes = (
(73,-1,o),
(117,0,o),
(165,0,c),
(167,37,o),
(170,73,o),
(178,110,cs),
(263,510,ls),
(276,571,o),
(300,669,o),
(321,715,c),
(256,704,o),
(193,700,o),
(116,700,c),
(112,690,o),
(108,672,o),
(108,663,c),
(160,663,l),
(158,618,o),
(150,566,o),
(138,510,cs),
(54,112,ls),
(46,75,o),
(40,47,o),
(25,-5,c)
);
},
{
closed = 1;
nodes = (
(422,-10,o),
(451,-7,o),
(481,0,c),
(486,13,o),
(488,24,o),
(489,35,c),
(449,34,o),
(439,55,o),
(431,100,cs),
(422,152,ls),
(414,201,o),
(400,235,o),
(310,235,c),
(204,235,l),
(195,195,l),
(236,195,ls),
(282,195,o),
(297,174,o),
(301,143,cs),
(308,92,ls),
(315,39,o),
(323,-10,o),
(396,-10,cs)
);
},
{
closed = 1;
nodes = (
(405,219,o),
(513,303,o),
(513,402,cs),
(513,443,o),
(483,475,o),
(421,475,cs),
(317,475,o),
(214,402,o),
(177,235,c),
(207,235,l),
(232,352,o),
(314,405,o),
(353,405,cs),
(380,405,o),
(393,393,o),
(393,369,cs),
(393,323,o),
(361,247,o),
(207,235,c),
(206,219,l)
);
}
);
width = 600;
},
{
associatedMasterId = "45069982-2EFC-4B7D-8C53-1932E6EAC4CA";
layerId = "A4CC49A3-73B9-4CCD-A980-4BF6EA5429A8";
name = "Nov 18 20, 11:39";
shapes = (
{
closed = 1;
nodes = (
(330,215,o),
(467,268,o),
(467,387,cs),
(467,433,o),
(432,455,o),
(381,455,cs),
(306,455,o),
(182,388,o),
(146,225,c),
(175,225,l),
(198,337,o),
(281,400,o),
(334,400,cs),
(360,400,o),
(380,387,o),
(380,361,cs),
(380,284,o),
(272,235,o),
(173,235,c),
(172,215,l)
);
}
);
width = 530;
},
{
anchors = (
{
name = bottom;
pos = (251,0);
},
{
name = top;
pos = (421,800);
}
);
associatedMasterId = "503E420B-61F7-4277-A1BE-A8852071B452";
layerId = "FD17C7C1-B9A7-4141-9528-B54EB5464F7A";
name = "Nov 18 20, 11:40";
shapes = (
{
closed = 1;
nodes = (
(427,219,o),
(512,323,o),
(512,403,cs),
(512,451,o),
(474,475,o),
(420,475,cs),
(327,475,o),
(214,402,o),
(177,235,c),
(205,235,l),
(230,352,o),
(310,405,o),
(357,405,cs),
(379,405,o),
(392,393,o),
(392,369,cs),
(392,293,o),
(304,242,o),
(205,235,c),
(206,219,l)
);
}
);
width = 600;
},
{
anchors = (
{
name = bottom;
pos = (188,0);
},
{
name = top;
pos = (358,800);
}
);
associatedMasterId = "45069982-2EFC-4B7D-8C53-1932E6EAC4CA";
layerId = "0696C045-6B8A-49A5-B54A-7C9887E06E4E";
name = "Nov 20 20, 13:21";
shapes = (
{
closed = 1;
nodes = (
(58,-1,o),
(87,0,o),
(122,0,c),
(124,34,o),
(130,68,o),
(137,102,cs),
(225,520,ls),
(235,568,o),
(258,659,o),
(281,713,c),
(218,702,o),
(152,700,o),
(106,700,c),
(102,690,o),
(98,672,o),
(98,663,c),
(155,663,l),
(152,613,o),
(144,565,o),
(135,520,cs),
(47,102,ls),
(36,51,o),
(32,35,o),
(23,-5,c)
);
},
{
closed = 1;
nodes = (
(283,27,o),
(305,-15,o),
(361,-15,cs),
(417,-15,o),
(471,26,o),
(503,86,c),
(493,95,o),
(485,101,o),
(473,106,c),
(442,58,o),
(419,40,o),
(401,40,cs),
(382,40,o),
(380,56,o),
(383,72,cs),
(392,118,ls),
(405,184,o),
(353,205,o),
(279,205,c),
(156,205,l),
(148,180,l),
(232,180,ls),
(283,180,o),
(312,157,o),
(301,108,cs),
(293,72,ls)
);
},
{
closed = 1;
nodes = (
(335,188,o),
(477,260,o),
(477,370,cs),
(477,429,o),
(437,455,o),
(383,455,cs),
(291,455,o),
(177,378,o),
(136,205,c),
(165,205,l),
(188,317,o),
(278,395,o),
(341,395,cs),
(373,395,o),
(390,377,o),
(390,348,cs),
(390,280,o),
(298,215,o),
(163,215,c),
(162,195,l)
);
}
);
width = 521;
},
{
anchors = (
{
name = bottom;
pos = (251,0);
},
{
name = top;
pos = (421,800);
}
);
associatedMasterId = "503E420B-61F7-4277-A1BE-A8852071B452";
layerId = "C5FC7C2E-E6D3-47B3-A212-C73B0012582E";
name = "Nov 20 20, 13:26";
shapes = (
{
closed = 1;
nodes = (
(73,-1,o),
(117,0,o),
(165,0,c),
(167,37,o),
(170,73,o),
(178,110,cs),
(263,510,ls),
(276,571,o),
(300,668,o),
(321,715,c),
(256,704,o),
(193,700,o),
(116,700,c),
(112,690,o),
(108,672,o),
(108,663,c),
(160,663,l),
(158,618,o),
(150,566,o),
(138,510,cs),
(54,112,ls),
(46,75,o),
(41,53,o),
(25,-5,c)
);
},
{
closed = 1;
nodes = (
(308,25,o),
(331,-15,o),
(401,-15,cs),
(458,-15,o),
(516,26,o),
(553,85,c),
(544,94,o),
(534,100,o),
(523,105,c),
(495,67,o),
(477,50,o),
(458,50,cs),
(433,50,o),
(437,78,o),
(445,110,cs),
(449,127,ls),
(463,188,o),
(415,220,o),
(325,220,c),
(200,220,l),
(191,180,l),
(251,180,ls),
(297,180,o),
(338,167,o),
(328,118,cs),
(320,80,ls)
);
},
{
closed = 1;
nodes = (
(438,204,o),
(532,320,o),
(532,395,cs),
(532,448,o),
(485,475,o),
(432,475,cs),
(337,475,o),
(210,387,o),
(173,220,c),
(201,220,l),
(227,331,o),
(318,405,o),
(374,405,cs),
(396,405,o),
(417,394,o),
(417,359,cs),
(417,296,o),
(346,220,o),
(201,220,c),
(201,204,l)
);
}
);
width = 574;
},
{
anchors = (
{
name = bottom;
pos = (251,0);
},
{
name = top;
pos = (421,800);
}
);
associatedMasterId = "503E420B-61F7-4277-A1BE-A8852071B452";
layerId = "FBE767E4-E602-4D1D-89F3-4F24CB3D1EB4";
name = "Nov 20 20, 16:57";
shapes = (
{
closed = 1;
nodes = (
(73,-1,o),
(117,0,o),
(165,0,c),
(167,37,o),
(170,73,o),
(178,110,cs),
(263,510,ls),
(276,571,o),
(300,668,o),
(321,715,c),
(256,704,o),
(193,700,o),
(116,700,c),
(112,690,o),
(108,672,o),
(108,663,c),
(160,663,l),
(158,618,o),
(150,566,o),
(138,510,cs),
(54,112,ls),
(46,75,o),
(41,53,o),
(25,-5,c)
);
},
{
closed = 1;
nodes = (
(321,15,o),
(347,-15,o),
(411,-15,cs),
(468,-15,o),
(526,26,o),
(563,85,c),
(554,94,o),
(544,100,o),
(533,105,c),
(505,67,o),
(487,50,o),
(468,50,cs),
(449,50,o),
(440,64,o),
(436,87,cs),
(424,166,o),
(402,220,o),
(295,220,c),
(200,220,l),
(191,180,l),
(207,180,ls),
(270,180,o),
(301,141,o),
(311,80,cs)
);
},
{
closed = 1;
nodes = (
(438,204,o),
(532,320,o),
(532,395,cs),
(532,448,o),
(485,475,o),
(432,475,cs),
(337,475,o),
(210,387,o),
(173,220,c),
(201,220,l),
(227,331,o),
(318,405,o),
(374,405,cs),
(396,405,o),
(417,394,o),
(417,359,cs),
(417,296,o),
(346,220,o),
(201,220,c),
(201,204,l)
);
}
);
width = 574;
}
);
unicode = 107;
},
{
color = 6;
glyphname = kgreenlandic;
kernLeft = n;
kernRight = k;
lastChange = "2023-03-10 14:52:57 +0000";
layers = (
{
background = {
shapes = (
{
closed = 1;
nodes = (
(416,-10,o),
(440,-6,o),
(456,0,c),
(461,12,o),
(463,24,o),
(464,36,c),
(424,37,o),
(415,49,o),
(415,97,cs),
(416,153,ls),
(417,211,o),
(394,266,o),
(286,250,c),
(315,243,l),
(368,260,o),
(421,349,o),
(496,405,c),
(543,405,l),
(547,414,o),
(551,433,o),
(551,442,c),
(503,440,o),
(467,440,o),
(444,440,cs),
(419,440,o),
(420,440,o),
(365,442,c),
(361,433,o),
(357,414,o),
(357,405,c),
(415,405,l),
(406,381,o),
(392,356,o),
(355,316,cs),
(321,279,o),
(289,260,o),
(255,260,cs),
(206,260,l),
(214,297,o),
(230,356,o),
(246,405,c),
(301,405,l),
(305,415,o),
(309,432,o),
(309,442,c),
(266,440,o),
(238,440,o),
(197,440,cs),
(159,440,o),
(139,440,o),
(95,442,c),
(91,432,o),
(87,415,o),
(87,405,c),
(139,405,l),
(135,354,o),
(128,311,o),
(116,260,cs),
(98,180,ls),
(86,130,o),
(73,86,o),
(55,36,c),
(-7,36,l),
(-11,26,o),
(-15,8,o),
(-15,-2,c),
(29,0,o),
(63,0,o),
(100,0,cs),
(138,0,o),
(173,0,o),
(219,-2,c),
(223,8,o),
(227,26,o),
(227,36,c),
(165,36,l),
(169,86,o),
(176,130,o),
(188,180,cs),
(198,225,l),
(237,225,ls),
(316,225,o),
(325,189,o),
(324,153,cs),
(322,87,ls),
(320,26,o),
(324,-10,o),
(399,-10,cs)
);
}
);
};
layerId = "45069982-2EFC-4B7D-8C53-1932E6EAC4CA";
shapes = (
{
closed = 1;
nodes = (
(384,-10,o),
(408,-6,o),
(424,0,c),
(429,12,o),
(431,24,o),
(432,36,c),
(392,37,o),
(383,49,o),
(383,97,cs),
(384,153,ls),
(385,211,o),
(362,266,o),
(254,250,c),
(283,243,l),
(336,260,o),
(389,349,o),
(464,405,c),
(511,405,l),
(515,414,o),
(519,433,o),
(519,442,c),
(471,440,o),
(435,440,o),
(412,440,cs),
(387,440,o),
(388,440,o),
(333,442,c),
(329,433,o),
(325,414,o),
(325,405,c),
(383,405,l),
(374,381,o),
(360,356,o),
(323,316,cs),
(289,279,o),
(257,260,o),
(223,260,cs),
(174,260,l),
(166,225,l),
(205,225,ls),
(284,225,o),
(293,189,o),
(292,153,cs),
(290,87,ls),
(288,26,o),
(292,-10,o),
(367,-10,cs)
);
},
{
closed = 1;
nodes = (
(62,-1,o),
(91,0,o),
(126,0,c),
(128,34,o),
(134,68,o),
(141,102,cs),
(174,260,ls),
(184,308,o),
(208,399,o),
(230,453,c),
(167,442,o),
(101,440,o),
(55,440,c),
(51,430,o),
(47,412,o),
(47,403,c),
(104,403,l),
(101,353,o),
(93,305,o),
(84,260,cs),
(51,102,ls),
(39,45,o),
(35,31,o),
(27,-5,c)
);
}
);
userData = {
RMXScaler = {
height = 62.8;
width = 80;
};
com.hugojourdan.ColorFlow = {
"0" = 0;
"1" = 0;
"10" = 0;
"11" = 0;
"2" = 0;
"3" = 0;
"4" = 0;
"5" = 0;
"6" = 0;
"7" = 0;
"8" = 0;
"9" = 0;
};
};
width = 523;
},
{
background = {
shapes = (
{
closed = 1;
nodes = (
(18,0,o),
(77,0,o),
(114,0,cs),
(149,0,o),
(210,0,o),
(247,-1,c),
(249,4,o),
(252,15,o),
(252,23,c),
(202,23,l),
(205,70,o),
(209,95,o),
(218,138,cs),
(258,322,ls),
(266,358,o),
(278,403,o),
(290,437,c),
(340,437,l),
(343,443,o),
(345,456,o),
(345,461,c),
(308,460,o),
(249,460,o),
(212,460,cs),
(175,460,o),
(116,460,o),
(80,461,c),
(77,456,o),
(74,443,o),
(74,437,c),
(124,437,l),
(125,420,o),
(122,387,o),
(108,322,cs),
(68,138,ls),
(57,87,o),
(48,57,o),
(36,23,c),
(-14,23,l),
(-16,18,o),
(-19,7,o),
(-19,-1,c)
);
},
{
closed = 1;
nodes = (
(450,-7,o),
(473,-2,o),
(516,0,c),
(520,8,o),
(521,17,o),
(521,23,c),
(486,26,o),
(476,34,o),
(477,70,cs),
(478,124,ls),
(481,216,o),
(441,258,o),
(366,250,c),
(380,251,o),
(402,261,o),
(430,295,cs),
(460,331,o),
(480,358,o),
(496,384,cs),
(513,412,o),
(531,428,o),
(539,437,c),
(587,437,l),
(589,442,o),
(593,453,o),
(592,461,c),
(547,460,o),
(516,460,o),
(495,460,cs),
(475,460,o),
(449,460,o),
(405,461,c),
(402,454,o),
(400,444,o),
(400,437,c),
(465,437,l),
(463,422,o),
(458,405,o),
(447,383,cs),
(427,344,o),
(416,336,o),
(393,307,cs),
(365,272,o),
(315,256,o),
(244,256,cs),
(194,256,l),
(189,230,l),
(252,230,ls),
(309,230,o),
(342,211,o),
(340,169,cs),
(335,70,ls),
(332,17,o),
(367,-7,o),
(431,-7,c)
);
}
);
};
layerId = "503E420B-61F7-4277-A1BE-A8852071B452";
shapes = (
{
closed = 1;
nodes = (
(429,-10,o),
(454,-7,o),
(482,0,c),
(486,13,o),
(488,24,o),
(489,37,c),
(450,36,o),
(433,55,o),
(432,100,cs),
(431,157,ls),
(430,241,o),
(379,269,o),
(310,260,c),
(313,242,l),
(398,292,o),
(438,381,o),
(488,424,c),
(547,424,l),
(551,434,o),
(555,453,o),
(554,462,c),
(500,460,o),
(463,460,o),
(438,460,cs),
(414,460,o),
(405,460,o),
(354,462,c),
(351,453,o),
(347,434,o),
(347,424,c),
(405,424,l),
(397,391,o),
(384,367,o),
(362,337,cs),
(332,295,o),
(301,270,o),
(254,270,cs),
(203,270,l),
(195,230,l),
(226,230,ls),
(282,230,o),
(300,202,o),
(301,158,cs),
(303,92,ls),
(305,33,o),
(310,-10,o),
(406,-10,cs)
);
},
{
closed = 1;
nodes = (
(64,-1,o),
(108,0,o),
(156,0,c),
(158,37,o),
(161,73,o),
(169,110,cs),
(204,270,ls),
(217,331,o),
(241,428,o),
(262,475,c),
(197,464,o),
(134,460,o),
(57,460,c),
(53,450,o),
(49,432,o),
(49,423,c),
(101,423,l),
(99,378,o),
(91,326,o),
(79,270,cs),
(45,112,ls),
(37,75,o),
(32,53,o),
(16,-5,c)
);
}
);
userData = {
RMXScaler = {
height = 65.7;
width = 80;
};
com.hugojourdan.ColorFlow = {
"0" = 0;
"1" = 0;
"10" = 0;
"11" = 0;
"2" = 0;
"3" = 0;
"4" = 0;
"5" = 0;
"6" = 0;
"7" = 0;
"8" = 0;
"9" = 0;
};
};
width = 554;
}
);
unicode = 312;
userData = {
RMXScaler = {
source = K;
};
};
},
{
color = 6;
glyphname = l;
kernLeft = l;
kernRight = l;
lastChange = "2023-03-10 14:52:57 +0000";
layers = (
{
anchors = (
{
name = bottom;
pos = (119,0);
},
{
name = center;
pos = (256,400);
},
{
name = top;
pos = (222,700);
},
{
name = topright;
pos = (337,700);
}
);
layerId = "45069982-2EFC-4B7D-8C53-1932E6EAC4CA";
shapes = (
{
closed = 1;
nodes = (
(169,-15,o),
(223,26,o),
(255,86,c),
(245,95,o),
(237,101,o),
(225,106,c),
(194,58,o),
(171,40,o),
(153,40,cs),
(134,40,o),
(132,61,o),
(139,92,cs),
(229,520,ls),
(239,568,o),
(262,659,o),
(285,713,c),
(222,702,o),
(156,700,o),
(110,700,c),
(106,690,o),
(102,672,o),
(102,663,c),
(159,663,l),
(156,613,o),
(148,565,o),
(139,520,cs),
(49,92,ls),
(36,29,o),
(55,-15,o),
(113,-15,cs)
);
}
);
userData = {
com.hugojourdan.ColorFlow = {
"0" = 0;
"1" = 0;
"10" = 0;
"11" = 0;
"2" = 0;
"3" = 0;
"4" = 0;
"5" = 0;
"6" = 0;
"7" = 0;
"8" = 0;
"9" = 0;
};
};
width = 278;
},
{
anchors = (
{
name = bottom;
pos = (124,0);
},
{
name = center;
pos = (162,400);
},
{
name = top;
pos = (241,700);
},
{
name = topright;
pos = (361,700);
}
);
guides = (
{
angle = 258.0198;
pos = (85,305);
}
);
layerId = "503E420B-61F7-4277-A1BE-A8852071B452";
shapes = (
{
closed = 1;
nodes = (
(181,-15,o),
(239,26,o),
(276,85,c),
(267,94,o),
(257,100,o),
(246,105,c),
(218,67,o),
(200,50,o),
(181,50,cs),
(159,50,o),
(160,73,o),
(168,110,cs),
(253,510,ls),
(266,571,o),
(290,670,o),
(311,715,c),
(246,704,o),
(183,700,o),
(106,700,c),
(102,690,o),
(98,672,o),
(98,663,c),
(150,663,l),
(148,618,o),
(140,566,o),
(128,510,cs),
(41,100,ls),
(28,38,o),
(48,-15,o),
(119,-15,cs)
);
}
);
userData = {
com.hugojourdan.ColorFlow = {
"0" = 0;
"1" = 0;
"10" = 0;
"11" = 0;
"2" = 0;
"3" = 0;
"4" = 0;
"5" = 0;
"6" = 0;
"7" = 0;
"8" = 0;
"9" = 0;
};
};
width = 297;
},
{
associatedMasterId = "45069982-2EFC-4B7D-8C53-1932E6EAC4CA";
backgroundImage = {
imagePath = "../../../../aniawielunska/Dropbox/POLTAWSKI_NOVA/POLTAWSKII_NOVA_MATERIALY/Idzkowski_AP/kursywa/kursywa_48.gif";
pos = (-449,-314);
scale = (15.403,15.403);
};
layerId = "38236067-8A6E-49F7-8812-36E1293F4F5E";
name = "Nov 16 20, 20:06";
shapes = (
{
closed = 1;
nodes = (
(203,35,l),
(196,85,o),
(193,130,o),
(193,180,cs),
(193,520,ls),
(193,570,o),
(196,663,o),
(208,713,c),
(147,702,o),
(78,700,o),
(31,700,c),
(29,690,o),
(29,673,o),
(31,663,c),
(88,663,l),
(95,613,o),
(98,570,o),
(98,520,cs),
(98,180,ls),
(98,130,o),
(95,85,o),
(88,35,c),
(31,35,l),
(29,25,o),
(29,8,o),
(31,-2,c),
(72,0,o),
(107,0,o),
(146,0,cs),
(184,0,o),
(219,0,o),
(260,-2,c),
(262,8,o),
(262,25,o),
(260,35,c)
);
}
);
width = 276;
},
{
anchors = (
{
name = bottom;
pos = (74,0);
},
{
name = center;
pos = (159,400);
},
{
name = top;
pos = (223,700);
},
{
name = topright;
pos = (358,700);
}
);
associatedMasterId = "503E420B-61F7-4277-A1BE-A8852071B452";
layerId = "C6814DD2-5DD7-4E05-BDF3-D54B03A25632";
name = "Nov 16 20, 20:06";
shapes = (
{
closed = 1;
nodes = (
(233,35,l),
(226,80,o),
(223,130,o),
(223,190,cs),
(223,510,ls),
(223,570,o),
(226,670,o),
(238,715,c),
(175,704,o),
(108,700,o),
(31,700,c),
(29,690,o),
(29,673,o),
(31,663,c),
(83,663,l),
(90,618,o),
(93,570,o),
(93,510,cs),
(93,190,ls),
(93,130,o),
(90,80,o),
(83,35,c),
(31,35,l),
(29,25,o),
(29,8,o),
(31,-2,c),
(77,0,o),
(122,0,o),
(158,0,cs),
(194,0,o),
(239,0,o),
(285,-2,c),
(287,8,o),
(287,25,o),
(285,35,c)
);
}
);
width = 289;
}
);
unicode = 108;
},
{
color = 3;
glyphname = lslash;
lastChange = "2023-03-10 14:52:57 +0000";
layers = (
{
layerId = "45069982-2EFC-4B7D-8C53-1932E6EAC4CA";
shapes = (
{
closed = 1;
nodes = (
(300,353,o),
(356,393,o),
(368,449,c),
(348,452,o),
(327,452,o),
(307,449,c),
(297,402,o),
(292,377,o),
(242,337,c),
(235,307,l)
);
},
{
closed = 1;
nodes = (
(75,239,o),
(19,199,o),
(7,143,c),
(27,140,o),
(48,140,o),
(68,143,c),
(78,190,o),
(83,215,o),
(138,255,c),
(145,285,l)
);
},
{
pos = (53,0);
ref = l;
}
);
userData = {
com.hugojourdan.ColorFlow = {
"0" = 0;
"1" = 0;
"10" = 0;
"11" = 0;
"2" = 0;
"3" = 0;
"4" = 0;
"5" = 0;
"6" = 0;
"7" = 0;
"8" = 0;
"9" = 0;
};
};
width = 358;
},
{
layerId = "503E420B-61F7-4277-A1BE-A8852071B452";
shapes = (
{
closed = 1;
nodes = (
(345,383,o),
(414,423,o),
(426,479,c),
(399,484,o),
(371,484,o),
(342,479,c),
(332,432,o),
(322,407,o),
(277,367,c),
(271,337,l)
);
},
{
closed = 1;
nodes = (
(65,239,o),
(1,199,o),
(-11,143,c),
(16,138,o),
(44,138,o),
(73,143,c),
(83,190,o),
(88,215,o),
(133,255,c),
(139,285,l)
);
},
{
pos = (58,0);
ref = l;
}
);
userData = {
com.hugojourdan.ColorFlow = {
"0" = 0;
"1" = 0;
"10" = 0;
"11" = 0;
"2" = 0;
"3" = 0;
"4" = 0;
"5" = 0;
"6" = 0;
"7" = 0;
"8" = 0;
"9" = 0;
};
};
width = 391;
}
);
unicode = 322;
},
{
color = 6;
glyphname = m;
kernLeft = n;
kernRight = n;
lastChange = "2023-03-10 14:52:57 +0000";
layers = (
{
layerId = "45069982-2EFC-4B7D-8C53-1932E6EAC4CA";
shapes = (
{
closed = 1;
nodes = (
(721,-15,o),
(775,26,o),
(807,86,c),
(797,95,o),
(789,101,o),
(777,106,c),
(746,58,o),
(723,40,o),
(705,40,cs),
(686,40,o),
(683,61,o),
(691,92,cs),
(748,316,ls),
(773,414,o),
(736,455,o),
(666,455,cs),
(566,455,o),
(460,368,o),
(402,102,c),
(428,102,l),
(462,260,o),
(546,390,o),
(622,390,cs),
(658,390,o),
(670,361,o),
(658,314,cs),
(601,92,ls),
(585,30,o),
(607,-15,o),
(665,-15,cs)
);
},
{
closed = 1;
nodes = (
(80,-1,o),
(109,0,o),
(144,0,c),
(146,34,o),
(152,68,o),
(159,102,cs),
(193,260,l),
(207,348,o),
(213,380,o),
(244,453,c),
(180,442,o),
(126,440,o),
(74,440,c),
(70,430,o),
(66,413,o),
(66,403,c),
(123,403,l),
(118,336,o),
(112,300,o),
(103,260,cs),
(69,102,ls),
(62,68,o),
(54,34,o),
(45,-5,c)
);
},
{
closed = 1;
nodes = (
(348,-1,o),
(377,0,o),
(412,0,c),
(414,34,o),
(420,68,o),
(428,102,cs),
(478,316,ls),
(501,414,o),
(466,455,o),
(397,455,cs),
(296,455,o),
(191,368,o),
(133,102,c),
(159,102,l),
(193,260,o),
(276,390,o),
(352,390,cs),
(388,390,o),
(399,361,o),
(388,314,cs),
(338,102,ls),
(330,68,o),
(322,34,o),
(313,-5,c)
);
}
);
userData = {
com.hugojourdan.ColorFlow = {
"0" = 0;
"1" = 0;
"10" = 0;
"11" = 0;
"2" = 0;
"3" = 0;
"4" = 0;
"5" = 0;
"6" = 0;
"7" = 0;
"8" = 0;
"9" = 0;
};
};
width = 830;
},
{
layerId = "503E420B-61F7-4277-A1BE-A8852071B452";
shapes = (
{
closed = 1;
nodes = (
(759,-15,o),
(817,26,o),
(854,85,c),
(845,94,o),
(835,100,o),
(824,105,c),
(796,67,o),
(778,50,o),
(759,50,cs),
(737,50,o),
(736,74,o),
(746,110,cs),
(805,334,ls),
(827,417,o),
(803,475,o),
(714,475,cs),
(603,475,o),
(494,383,o),
(437,110,c),
(468,110,l),
(496,240,o),
(558,395,o),
(645,395,cs),
(679,395,o),
(692,371,o),
(680,326,cs),
(619,100,ls),
(602,39,o),
(626,-15,o),
(697,-15,cs)
);
},
{
closed = 1;
nodes = (
(80,-1,o),
(124,0,o),
(172,0,c),
(174,37,o),
(177,73,o),
(185,110,cs),
(233,326,l),
(235,375,o),
(247,442,o),
(262,475,c),
(197,464,o),
(149,460,o),
(72,460,c),
(68,450,o),
(64,432,o),
(64,423,c),
(116,423,l),
(114,378,o),
(106,325,o),
(94,270,cs),
(61,112,ls),
(53,75,o),
(46,42,o),
(32,-5,c)
);
},
{
closed = 1;
nodes = (
(363,-1,o),
(405,0,o),
(453,0,c),
(455,37,o),
(459,73,o),
(468,110,cs),
(522,334,ls),
(542,417,o),
(520,475,o),
(431,475,cs),
(320,475,o),
(211,383,o),
(154,110,c),
(185,110,l),
(213,240,o),
(275,395,o),
(362,395,cs),
(396,395,o),
(408,371,o),
(397,326,cs),
(346,112,ls),
(337,75,o),
(329,42,o),
(315,-5,c)
);
}
);
userData = {
com.hugojourdan.ColorFlow = {
"0" = 0;
"1" = 0;
"10" = 0;
"11" = 0;
"2" = 0;
"3" = 0;
"4" = 0;
"5" = 0;
"6" = 0;
"7" = 0;
"8" = 0;
"9" = 0;
};
};
width = 875;
},
{
associatedMasterId = "503E420B-61F7-4277-A1BE-A8852071B452";
layerId = "1F6028BA-2544-425B-B06C-3F3834F1FAF6";
name = "Nov 18 20, 02:16";
shapes = (
{
closed = 1;
nodes = (
(78,-1,o),
(122,0,o),
(170,0,c),
(172,37,o),
(175,73,o),
(183,110,cs),
(231,326,l),
(233,375,o),
(245,442,o),
(260,475,c),
(195,464,o),
(147,460,o),
(70,460,c),
(66,450,o),
(62,432,o),
(62,423,c),
(114,423,l),
(112,378,o),
(104,325,o),
(92,270,cs),
(59,112,ls),
(51,75,o),
(44,42,o),
(30,-5,c)
);
},
{
closed = 1;
nodes = (
(787,-15,o),
(818,26,o),
(852,85,c),
(843,94,o),
(833,100,o),
(822,105,c),
(797,67,o),
(782,50,o),
(762,50,cs),
(741,50,o),
(733,70,o),
(744,110,cs),
(803,334,ls),
(825,417,o),
(801,475,o),
(712,475,cs),
(601,475,o),
(492,383,o),
(435,110,c),
(466,110,l),
(494,240,o),
(556,395,o),
(643,395,cs),
(677,395,o),
(690,371,o),
(678,326,cs),
(617,100,ls),
(600,39,o),
(624,-15,o),
(707,-15,cs)
);
},
{
closed = 1;
nodes = (
(318,475,o),
(209,383,o),
(152,110,c),
(183,110,l),
(211,240,o),
(273,395,o),
(360,395,cs),
(394,395,o),
(406,371,o),
(395,326,cs),
(344,112,ls),
(335,75,o),
(327,42,o),
(313,-5,c),
(361,-1,o),
(403,0,o),
(451,0,c),
(453,37,o),
(457,73,o),
(466,110,cs),
(520,334,ls),
(540,417,o),
(518,475,o),
(429,475,cs)
);
}
);
width = 888;
}
);
unicode = 109;
},
{
color = 3;
glyphname = n;
kernLeft = n;
kernRight = n;
lastChange = "2023-03-10 14:52:57 +0000";
layers = (
{
anchors = (
{
name = bottom;
pos = (245,0);
},
{
name = top;
pos = (345,440);
}
);
guides = (
{
angle = 180;
pos = (107,102);
}
);
layerId = "45069982-2EFC-4B7D-8C53-1932E6EAC4CA";
shapes = (
{
closed = 1;
nodes = (
(80,-1,o),
(109,0,o),
(144,0,c),
(146,34,o),
(152,68,o),
(159,102,cs),
(193,260,l),
(207,348,o),
(213,380,o),
(244,453,c),
(180,442,o),
(126,440,o),
(74,440,c),
(70,430,o),
(66,413,o),
(66,403,c),
(123,403,l),
(118,336,o),
(112,300,o),
(103,260,cs),
(69,102,ls),
(62,68,o),
(54,34,o),
(45,-5,c)
);
},
{
alignment = -1;
pos = (121,0);
ref = _COM_noga_n;
}
);
userData = {
com.hugojourdan.ColorFlow = {
"0" = 0;
"1" = 0;
"10" = 0;
"11" = 0;
"2" = 0;
"3" = 0;
"4" = 0;
"5" = 0;
"6" = 0;
"7" = 0;
"8" = 0;
"9" = 0;
};
};
width = 569;
},
{
anchors = (
{
name = bottom;
pos = (262,0);
},
{
name = top;
pos = (364,460);
}
);
guides = (
{
pos = (89,110);
}
);
layerId = "503E420B-61F7-4277-A1BE-A8852071B452";
shapes = (
{
closed = 1;
nodes = (
(80,-1,o),
(124,0,o),
(172,0,c),
(174,37,o),
(177,73,o),
(185,110,cs),
(233,326,l),
(235,375,o),
(247,442,o),
(262,475,c),
(197,464,o),
(149,460,o),
(72,460,c),
(68,450,o),
(64,432,o),
(64,423,c),
(116,423,l),
(114,378,o),
(106,325,o),
(94,270,cs),
(61,112,ls),
(53,75,o),
(46,42,o),
(32,-5,c)
);
},
{
alignment = -1;
pos = (-7,0);
ref = _COM_noga_n;
}
);
userData = {
com.hugojourdan.ColorFlow = {
"0" = 0;
"1" = 0;
"10" = 0;
"11" = 0;
"2" = 0;
"3" = 0;
"4" = 0;
"5" = 0;
"6" = 0;
"7" = 0;
"8" = 0;
"9" = 0;
};
};
width = 602;
},
{
anchors = (
{
name = bottom;
pos = (341,0);
},
{
name = top;
pos = (411,460);
}
);
associatedMasterId = "503E420B-61F7-4277-A1BE-A8852071B452";
guides = (
{
pos = (86,110);
}
);
layerId = "6DBA625A-2F03-43D8-955B-329C6E461BB8";
name = "Nov 16 20, 20:55";
shapes = (
{
closed = 1;
nodes = (
(77,0,o),
(122,0,o),
(158,0,cs),
(194,0,o),
(239,0,o),
(285,-2,c),
(287,8,o),
(287,25,o),
(285,35,c),
(233,35,l),
(226,80,o),
(223,130,o),
(223,190,cs),
(223,350,l),
(213,395,l),
(215,424,o),
(218,458,o),
(223,475,c),
(160,464,o),
(113,460,o),
(36,460,c),
(34,450,o),
(34,433,o),
(36,423,c),
(83,423,l),
(90,378,o),
(93,330,o),
(93,270,cs),
(93,190,ls),
(93,130,o),
(90,80,o),
(83,35,c),
(31,35,l),
(29,25,o),
(29,8,o),
(31,-2,c)
);
},
{
closed = 1;
nodes = (
(387,0,o),
(432,0,o),
(468,0,cs),
(504,0,o),
(549,0,o),
(595,-2,c),
(597,8,o),
(597,25,o),
(595,35,c),
(543,35,l),
(536,80,o),
(533,130,o),
(533,190,cs),
(533,306,ls),
(533,326,o),
(534,356,o),
(538,376,c),
(515,441,o),
(470,475,o),
(387,475,cs),
(299,475,o),
(242,436,o),
(213,395,c),
(223,350,l),
(253,390,o),
(283,415,o),
(330,415,cs),
(384,415,o),
(403,372,o),
(403,318,cs),
(403,190,ls),
(403,130,o),
(400,80,o),
(393,35,c),
(341,35,l),
(339,25,o),
(339,8,o),
(341,-2,c)
);
}
);
width = 611;
}
);
unicode = 110;
},
{
color = 6;
glyphname = eng;
kernLeft = n;
lastChange = "2023-03-10 14:52:57 +0000";
layers = (
{
anchors = (
{
name = bottom;
pos = (245,0);
},
{
name = top;
pos = (345,440);
}
);
layerId = "45069982-2EFC-4B7D-8C53-1932E6EAC4CA";
shapes = (
{
closed = 1;
nodes = (
(80,-1,o),
(109,0,o),
(144,0,c),
(146,34,o),
(152,68,o),
(159,102,cs),
(193,260,l),
(207,348,o),
(213,380,o),
(244,453,c),
(180,442,o),
(126,440,o),
(74,440,c),
(70,430,o),
(66,413,o),
(66,403,c),
(123,403,l),
(118,336,o),
(112,300,o),
(103,260,cs),
(69,102,ls),
(62,68,o),
(54,34,o),
(45,-5,c)
);
},
{
closed = 1;
nodes = (
(301,455,o),
(191,368,o),
(133,102,c),
(159,102,l),
(193,260,o),
(281,390,o),
(361,390,cs),
(398,390,o),
(409,361,o),
(399,314,cs),
(346,60,ls),
(315,-91,o),
(268,-163,o),
(184,-187,c),
(184,-201,o),
(188,-216,o),
(193,-225,c),
(382,-185,o),
(413,-43,o),
(444,104,cs),
(489,316,ls),
(510,415,o),
(476,455,o),
(404,455,cs)
);
}
);
userData = {
com.hugojourdan.ColorFlow = {
"0" = 0;
"1" = 0;
"10" = 0;
"11" = 0;
"2" = 0;
"3" = 0;
"4" = 0;
"5" = 0;
"6" = 0;
"7" = 0;
"8" = 0;
"9" = 0;
};
};
width = 539;
},
{
anchors = (
{
name = bottom;
pos = (344,0);
},
{
name = top;
pos = (364,460);
}
);
layerId = "503E420B-61F7-4277-A1BE-A8852071B452";
shapes = (
{
closed = 1;
nodes = (
(80,-1,o),
(124,0,o),
(172,0,c),
(174,37,o),
(177,73,o),
(185,110,cs),
(233,326,l),
(235,375,o),
(247,442,o),
(262,475,c),
(197,464,o),
(149,460,o),
(72,460,c),
(68,450,o),
(64,432,o),
(64,423,c),
(116,423,l),
(114,378,o),
(106,325,o),
(94,270,cs),
(61,112,ls),
(53,75,o),
(46,42,o),
(32,-5,c)
);
},
{
closed = 1;
nodes = (
(325,475,o),
(211,383,o),
(154,110,c),
(185,110,l),
(213,240,o),
(280,395,o),
(371,395,cs),
(406,395,o),
(418,372,o),
(408,326,cs),
(344,30,ls),
(318,-90,o),
(278,-167,o),
(192,-187,c),
(193,-204,o),
(197,-214,o),
(203,-225,c),
(413,-206,o),
(455,-40,o),
(487,114,cs),
(533,334,ls),
(551,418,o),
(530,475,o),
(439,475,cs)
);
}
);
userData = {
com.hugojourdan.ColorFlow = {
"0" = 0;
"1" = 0;
"10" = 0;
"11" = 0;
"2" = 0;
"3" = 0;
"4" = 0;
"5" = 0;
"6" = 0;
"7" = 0;
"8" = 0;
"9" = 0;
};
};
width = 575;
}
);
unicode = 331;
},
{
color = 3;
glyphname = oslash;
kernLeft = o;
kernRight = o;
lastChange = "2023-03-10 14:52:57 +0000";
layers = (
{
layerId = "45069982-2EFC-4B7D-8C53-1932E6EAC4CA";
shapes = (
{
closed = 1;
nodes = (
(433,275,o),
(81,197,o),
(51,-40,c),
(71,-43,o),
(82,-43,o),
(102,-40,c),
(109,166,o),
(461,243,o),
(491,480,c),
(471,483,o),
(460,483,o),
(440,480,c)
);
},
{
ref = o;
}
);
userData = {
com.hugojourdan.ColorFlow = {
"0" = 0;
"1" = 0;
"10" = 0;
"11" = 0;
"2" = 0;
"3" = 0;
"4" = 0;
"5" = 0;
"6" = 0;
"7" = 0;
"8" = 0;
"9" = 0;
};
};
width = 522;
},
{
layerId = "503E420B-61F7-4277-A1BE-A8852071B452";
shapes = (
{
closed = 1;
nodes = (
(451,295,o),
(98,197,o),
(20,-40,c),
(39,-43,o),
(50,-43,o),
(71,-40,c),
(119,166,o),
(472,263,o),
(550,500,c),
(531,503,o),
(520,503,o),
(499,500,c)
);
},
{
ref = o;
}
);
userData = {
com.hugojourdan.ColorFlow = {
"0" = 0;
"1" = 0;
"10" = 0;
"11" = 0;
"2" = 0;
"3" = 0;
"4" = 0;
"5" = 0;
"6" = 0;
"7" = 0;
"8" = 0;
"9" = 0;
};
};
width = 559;
}
);
unicode = 248;
},
{
color = 6;
glyphname = oe;
kernLeft = o;
kernRight = e;
lastChange = "2023-03-10 14:52:57 +0000";
layers = (
{
layerId = "45069982-2EFC-4B7D-8C53-1932E6EAC4CA";
shapes = (
{
closed = 1;
nodes = (
(38,51,o),
(96,-15,o),
(199,-15,cs),
(351,-15,o),
(465,129,o),
(465,281,cs),
(465,389,o),
(407,455,o),
(304,455,cs),
(152,455,o),
(38,311,o),
(38,159,cs)
);
},
{
closed = 1;
nodes = (
(135,266,o),
(204,415,o),
(301,415,cs),
(352,415,o),
(373,374,o),
(373,302,cs),
(373,161,o),
(294,25,o),
(204,25,cs),
(155,25,o),
(135,65,o),
(135,135,cs)
);
},
{
closed = 1;
nodes = (
(484,40,o),
(452,69,o),
(452,145,cs),
(452,249,o),
(511,415,o),
(619,415,cs),
(663,415,o),
(675,388,o),
(675,362,cs),
(675,283,o),
(563,232,o),
(432,224,c),
(438,189,l),
(574,195,o),
(768,254,o),
(768,367,cs),
(768,412,o),
(737,455,o),
(645,455,cs),
(479,455,o),
(367,314,o),
(367,158,cs),
(367,49,o),
(421,-15,o),
(519,-15,cs),
(593,-15,o),
(669,22,o),
(730,110,c),
(720,119,o),
(712,125,o),
(700,130,c),
(641,61,o),
(580,40,o),
(536,40,cs)
);
}
);
userData = {
com.hugojourdan.ColorFlow = {
"0" = 0;
"1" = 0;
"10" = 0;
"11" = 0;
"2" = 0;
"3" = 0;
"4" = 0;
"5" = 0;
"6" = 0;
"7" = 0;
"8" = 0;
"9" = 0;
};
};
width = 784;
},
{
layerId = "503E420B-61F7-4277-A1BE-A8852071B452";
shapes = (
{
closed = 1;
nodes = (
(35,57,o),
(109,-16,o),
(230,-16,cs),
(395,-16,o),
(511,119,o),
(511,278,cs),
(511,404,o),
(439,476,o),
(319,476,cs),
(153,476,o),
(35,339,o),
(35,182,cs)
);
},
{
closed = 1;
nodes = (
(172,278,o),
(232,436,o),
(317,436,cs),
(363,436,o),
(379,389,o),
(379,319,cs),
(379,182,o),
(319,24,o),
(234,24,cs),
(188,24,o),
(172,71,o),
(172,141,cs)
);
},
{
closed = 1;
nodes = (
(532,48,o),
(502,79,o),
(502,154,cs),
(502,264,o),
(566,436,o),
(642,436,cs),
(665,436,o),
(684,420,o),
(684,383,cs),
(684,311,o),
(614,236,o),
(481,228,c),
(480,189,l),
(690,217,o),
(814,288,o),
(814,379,cs),
(814,433,o),
(771,475,o),
(668,475,cs),
(477,475,o),
(375,330,o),
(375,172,cs),
(375,46,o),
(428,-15,o),
(544,-15,cs),
(634,-15,o),
(706,24,o),
(778,125,c),
(768,133,o),
(760,139,o),
(748,145,c),
(682,64,o),
(626,48,o),
(588,48,cs)
);
}
);
userData = {
com.hugojourdan.ColorFlow = {
"0" = 0;
"1" = 0;
"10" = 0;
"11" = 0;
"2" = 0;
"3" = 0;
"4" = 0;
"5" = 0;
"6" = 0;
"7" = 0;
"8" = 0;
"9" = 0;
};
};
width = 825;
}
);
unicode = 339;
},
{
color = 3;
glyphname = p;
kernLeft = n;
kernRight = b;
lastChange = "2023-03-10 14:52:57 +0000";
layers = (
{
anchors = (
{
name = bottom;
pos = (300,0);
},
{
name = top;
pos = (300,440);
}
);
layerId = "45069982-2EFC-4B7D-8C53-1932E6EAC4CA";
shapes = (
{
closed = 1;
nodes = (
(33,-211,o),
(62,-210,o),
(97,-210,c),
(99,-176,o),
(105,-142,o),
(112,-108,cs),
(160,117,l),
(161,191,l),
(191,260,l),
(205,348,o),
(211,380,o),
(242,453,c),
(178,442,o),
(124,440,o),
(72,440,c),
(68,430,o),
(64,413,o),
(64,403,c),
(121,403,l),
(116,336,o),
(110,300,o),
(101,260,cs),
(22,-108,ls),
(15,-142,o),
(7,-176,o),
(-2,-215,c)
);
},
{
angle = 180;
pos = (545,440);
ref = _COM_brzuch_bdpq;
}
);
userData = {
com.hugojourdan.ColorFlow = {
"0" = 0;
"1" = 0;
"10" = 0;
"11" = 0;
"2" = 0;
"3" = 0;
"4" = 0;
"5" = 0;
"6" = 0;
"7" = 0;
"8" = 0;
"9" = 0;
};
};
width = 543;
},
{
anchors = (
{
name = bottom;
pos = (305,0);
},
{
name = top;
pos = (305,460);
}
);
layerId = "503E420B-61F7-4277-A1BE-A8852071B452";
shapes = (
{
closed = 1;
nodes = (
(35,-211,o),
(79,-210,o),
(127,-210,c),
(129,-173,o),
(132,-137,o),
(140,-100,cs),
(183,103,l),
(191,210,l),
(231,326,l),
(233,375,o),
(245,442,o),
(260,475,c),
(195,464,o),
(147,460,o),
(70,460,c),
(66,450,o),
(62,432,o),
(62,423,c),
(114,423,l),
(112,378,o),
(104,326,o),
(92,270,cs),
(16,-98,ls),
(8,-135,o),
(1,-168,o),
(-13,-215,c)
);
},
{
angle = 180;
pos = (574,460);
ref = _COM_brzuch_bdpq;
}
);
userData = {
com.hugojourdan.ColorFlow = {
"0" = 0;
"1" = 0;
"10" = 0;
"11" = 0;
"2" = 0;
"3" = 0;
"4" = 0;
"5" = 0;
"6" = 0;
"7" = 0;
"8" = 0;
"9" = 0;
};
};
width = 580;
}
);
unicode = 112;
},
{
color = 3;
glyphname = thorn;
kernRight = b;
lastChange = "2023-03-10 14:52:57 +0000";
layers = (
{
anchors = (
{
name = bottom;
pos = (284,0);
},
{
name = top;
pos = (284,440);
}
);
layerId = "45069982-2EFC-4B7D-8C53-1932E6EAC4CA";
shapes = (
{
closed = 1;
nodes = (
(107,690,o),
(103,672,o),
(103,663,c),
(160,663,l),
(157,613,o),
(150,565,o),
(140,520,cs),
(6,-108,ls),
(-1,-142,o),
(-9,-176,o),
(-18,-215,c),
(17,-211,o),
(46,-210,o),
(81,-210,c),
(83,-176,o),
(89,-142,o),
(96,-108,cs),
(144,117,l),
(145,191,l),
(175,260,l),
(230,520,ls),
(240,568,o),
(263,659,o),
(286,713,c),
(223,702,o),
(157,700,o),
(111,700,c)
);
},
{
angle = 180;
pos = (529,440);
ref = _COM_brzuch_bdpq;
}
);
userData = {
com.hugojourdan.ColorFlow = {
"0" = 0;
"1" = 0;
"10" = 0;
"11" = 0;
"2" = 0;
"3" = 0;
"4" = 0;
"5" = 0;
"6" = 0;
"7" = 0;
"8" = 0;
"9" = 0;
};
};
width = 527;
},
{
anchors = (
{
name = bottom;
pos = (289,0);
},
{
name = top;
pos = (289,460);
}
);
layerId = "503E420B-61F7-4277-A1BE-A8852071B452";
shapes = (
{
closed = 1;
nodes = (
(103,690,o),
(99,672,o),
(99,663,c),
(151,663,l),
(149,618,o),
(141,566,o),
(129,510,cs),
(0,-98,ls),
(-8,-135,o),
(-15,-168,o),
(-29,-215,c),
(19,-211,o),
(63,-210,o),
(111,-210,c),
(113,-173,o),
(116,-137,o),
(124,-100,cs),
(167,103,l),
(175,210,l),
(215,326,l),
(254,510,ls),
(267,571,o),
(291,670,o),
(312,715,c),
(247,704,o),
(184,700,o),
(107,700,c)
);
},
{
angle = 180;
pos = (558,460);
ref = _COM_brzuch_bdpq;
}
);
userData = {
com.hugojourdan.ColorFlow = {
"0" = 0;
"1" = 0;
"10" = 0;
"11" = 0;
"2" = 0;
"3" = 0;
"4" = 0;
"5" = 0;
"6" = 0;
"7" = 0;
"8" = 0;
"9" = 0;
};
};
width = 564;
}
);
unicode = 254;
},
